<?xml version="1.0" encoding="iso-8859-1"?>
<!-- Generator: Adobe Illustrator 19.0.0, SVG Export Plug-In . SVG Version: 6.00 Build 0)  -->
<svg version="1.1" id="Layer_1" xmlns="http://www.w3.org/2000/svg" xmlns:xlink="http://www.w3.org/1999/xlink" x="0px" y="0px"
	 viewBox="0 0 512 512" style="enable-background:new 0 0 512 512;" xml:space="preserve">
<g>
	<g>
		<path d="M384,0c-42.351,0-76.8,34.449-76.8,76.8c0,42.351,34.449,76.8,76.8,76.8s76.8-34.449,76.8-76.8
			C460.8,34.449,426.351,0,384,0z M384,128c-28.271,0-51.2-22.921-51.2-51.2s22.929-51.2,51.2-51.2c28.279,0,51.2,22.921,51.2,51.2
			S412.279,128,384,128z"/>
	</g>
</g>
<g>
	<g>
		<path d="M299.87,396.279c-0.708-0.102-1.374-0.367-2.074-0.495c-20.275,52.89-71.45,90.615-131.396,90.615
			c-77.636,0-140.8-63.164-140.8-140.8s63.164-140.8,140.8-140.8c42.078,0,79.804,18.654,105.626,48.009l5.589-30.729
			C248.132,195.516,209.22,179.2,166.4,179.2C74.496,179.2,0,253.696,0,345.6S74.496,512,166.4,512
			c56.815,0,106.923-28.518,136.943-71.979L299.87,396.279z"/>
	</g>
</g>
<g>
	<g>
		<path d="M486.4,325.12h-3.302L460.39,200.226c-2.219-12.177-12.817-21.026-25.19-21.026H332.8
			c-12.365,0-22.972,8.849-25.19,21.026l-25.6,140.8c-1.357,7.467,0.666,15.155,5.53,20.983c4.873,5.82,12.066,9.19,19.661,9.19
			h16.358l9.327,117.231C333.943,501.734,345.054,512,358.4,512h51.2c13.355,0,24.465-10.266,25.515-23.569l4.241-53.231H486.4
			c14.14,0,25.6-11.46,25.6-25.6v-58.88C512,336.58,500.54,325.12,486.4,325.12z M409.6,486.4h-51.2l-11.204-140.8H307.2l25.6-140.8
			h38.4v77.875c0,7.074,5.726,12.8,12.8,12.8c7.074,0,12.8-5.726,12.8-12.8V204.8h38.4l21.871,120.32H404.48
			c-14.14,0-25.6,11.46-25.6,25.6v58.88c0,14.14,11.46,25.6,25.6,25.6h9.19L409.6,486.4z M486.4,409.6h-81.92v-58.88h81.92V409.6z"
			/>
	</g>
</g>
<g>
	<g>
		<path d="M263.851,297.097c-5.547-4.369-13.602-3.345-17.954,2.253L166.4,401.553L86.903,299.349
			c-4.352-5.598-12.424-6.622-17.954-2.253c-5.598,4.326-6.596,12.373-2.253,17.954l89.6,115.2
			c2.432,3.123,6.153,4.949,10.103,4.949s7.671-1.826,10.103-4.949l89.6-115.2C270.456,309.478,269.457,301.423,263.851,297.097z"/>
	</g>
</g>
<g>
</g>
<g>
</g>
<g>
</g>
<g>
</g>
<g>
</g>
<g>
</g>
<g>
</g>
<g>
</g>
<g>
</g>
<g>
</g>
<g>
</g>
<g>
</g>
<g>
</g>
<g>
</g>
<g>
</g>
</svg>
