<svg xmlns="http://www.w3.org/2000/svg" xmlns:xlink="http://www.w3.org/1999/xlink" viewBox="0 0 361.19 400"><defs><style>.cls-1{isolation:isolate;}.cls-2{opacity:0.1;}.cls-3{fill:#31aee0;}.cls-4{fill:#8cdeff;}.cls-5{fill:url(#linear-gradient);}.cls-6{fill:url(#linear-gradient-2);}.cls-7{fill:url(#linear-gradient-3);}.cls-8{fill:url(#linear-gradient-4);}.cls-10,.cls-16,.cls-9{opacity:0.2;}.cls-9{mix-blend-mode:multiply;}.cls-11{fill:url(#linear-gradient-5);}.cls-12{fill:url(#linear-gradient-6);}.cls-13{fill:url(#linear-gradient-7);}.cls-14{fill:url(#linear-gradient-8);}.cls-15{fill:#916262;}.cls-16,.cls-31{fill:#212226;}.cls-17{fill:#221c7d;}.cls-18{fill:#a67070;}.cls-19{fill:#2d24a3;}.cls-20{fill:#ffadad;}.cls-21{fill:#fff;}.cls-22{fill:#392ecf;}.cls-23{fill:#42444d;}.cls-24{fill:url(#linear-gradient-9);}.cls-25{fill:url(#linear-gradient-10);}.cls-26{fill:#ffe7db;}.cls-27{fill:url(#linear-gradient-11);}.cls-28{fill:#9a9fb3;}.cls-29{fill:url(#linear-gradient-12);}.cls-30{fill:url(#linear-gradient-13);}.cls-32{fill:#ed7e7e;}.cls-33{fill:#9fa9d1;}.cls-34,.cls-36{fill:none;stroke:#fff;stroke-miterlimit:10;}.cls-35{fill:url(#linear-gradient-14);}.cls-36{stroke-width:0.5px;}.cls-37{opacity:0.53;}</style><linearGradient id="linear-gradient" x1="304.72" y1="341.56" x2="304.72" y2="251.74" gradientUnits="userSpaceOnUse"><stop offset="0" stop-color="#ffe7db"/><stop offset="0.24" stop-color="#fde4d8"/><stop offset="0.41" stop-color="#f5dbd0"/><stop offset="0.56" stop-color="#e8cbc2"/><stop offset="0.69" stop-color="#d6b5ae"/><stop offset="0.82" stop-color="#be9994"/><stop offset="0.94" stop-color="#a27674"/><stop offset="1" stop-color="#916262"/></linearGradient><linearGradient id="linear-gradient-2" x1="255.22" y1="341.56" x2="255.22" y2="251.74" xlink:href="#linear-gradient"/><linearGradient id="linear-gradient-3" x1="284.38" y1="341.56" x2="284.38" y2="251.74" xlink:href="#linear-gradient"/><linearGradient id="linear-gradient-4" x1="234.87" y1="341.56" x2="234.87" y2="251.74" xlink:href="#linear-gradient"/><linearGradient id="linear-gradient-5" x1="1939.77" y1="341.56" x2="1939.77" y2="251.74" gradientTransform="matrix(-1, 0, 0, 1, 1999.23, 0)" xlink:href="#linear-gradient"/><linearGradient id="linear-gradient-6" x1="1890.26" y1="341.56" x2="1890.26" y2="251.74" gradientTransform="matrix(-1, 0, 0, 1, 1999.23, 0)" xlink:href="#linear-gradient"/><linearGradient id="linear-gradient-7" x1="1919.42" y1="341.56" x2="1919.42" y2="251.74" gradientTransform="matrix(-1, 0, 0, 1, 1999.23, 0)" xlink:href="#linear-gradient"/><linearGradient id="linear-gradient-8" x1="1869.92" y1="341.56" x2="1869.92" y2="251.74" gradientTransform="matrix(-1, 0, 0, 1, 1999.23, 0)" xlink:href="#linear-gradient"/><linearGradient id="linear-gradient-9" x1="37.93" y1="368.23" x2="37.93" y2="216.13" gradientTransform="matrix(1, 0, -0.06, 1, 15.18, -0.67)" xlink:href="#linear-gradient"/><linearGradient id="linear-gradient-10" x1="984.45" y1="368.23" x2="984.45" y2="216.13" gradientTransform="matrix(-1, 0, 0.06, 1, 1295.26, -0.67)" xlink:href="#linear-gradient"/><linearGradient id="linear-gradient-11" x1="181.96" y1="213.12" x2="181.96" y2="248.57" xlink:href="#linear-gradient"/><linearGradient id="linear-gradient-12" x1="217.84" y1="199.16" x2="217.84" y2="234.31" gradientTransform="matrix(1, 0, 0.16, 1.01, -35.65, -1.71)" gradientUnits="userSpaceOnUse"><stop offset="0" stop-color="#fff"/><stop offset="1" stop-color="#ffadad"/></linearGradient><linearGradient id="linear-gradient-13" x1="1832.97" y1="199.16" x2="1832.97" y2="234.31" gradientTransform="matrix(-1, 0, -0.16, 1.01, 1994.33, -1.71)" xlink:href="#linear-gradient-12"/><linearGradient id="linear-gradient-14" x1="287.84" y1="46.61" x2="287.84" y2="9.39" gradientUnits="userSpaceOnUse"><stop offset="0" stop-color="#ff9c9c"/><stop offset="1" stop-color="#ffe7db"/></linearGradient></defs><title>screen_img</title><g class="cls-1"><g id="Layer_1" data-name="Layer 1"><ellipse class="cls-2" cx="181.96" cy="373.42" rx="179.22" ry="26.58"/><path class="cls-3" d="M333.81,141.31H284.32a6.2,6.2,0,0,0-7.38,4.72l-21.57,97.85a6.19,6.19,0,0,0,4.71,7.38,6,6,0,0,0,2.61,0h46.88Z"/><path class="cls-4" d="M309.58,251.26h0a6.18,6.18,0,0,0,7.38-4.71l21.57-97.86a6.19,6.19,0,0,0-4.71-7.38h0a6.2,6.2,0,0,0-7.38,4.72l-21.57,97.85A6.19,6.19,0,0,0,309.58,251.26Z"/><polygon class="cls-5" points="313.16 364.51 308.18 364.51 296.28 256.49 304.23 256.49 313.16 364.51"/><polygon class="cls-6" points="246.78 364.51 251.76 364.51 263.66 256.49 255.71 256.49 246.78 364.51"/><polygon class="cls-7" points="292.82 362.32 287.84 362.32 275.93 254.3 283.88 254.3 292.82 362.32"/><polygon class="cls-8" points="226.43 362.32 231.41 362.32 243.31 254.3 235.37 254.3 226.43 362.32"/><g class="cls-9"><polygon points="234.17 268.72 241.73 268.72 243.31 254.3 235.36 254.3 234.17 268.72"/><polygon points="254.7 268.72 262.31 268.72 263.66 256.49 255.71 256.49 254.7 268.72"/><polygon points="283.88 254.3 275.93 254.3 277.52 268.72 285.08 268.72 283.88 254.3"/><polygon points="304.23 256.49 296.28 256.49 297.63 268.72 305.24 268.72 304.23 256.49"/></g><path class="cls-3" d="M310.46,261.81H225.34V251.17h85.12a5.32,5.32,0,0,1,5.32,5.32h0A5.32,5.32,0,0,1,310.46,261.81Z"/><rect class="cls-10" x="225.34" y="251.17" width="42.61" height="10.64"/><path class="cls-3" d="M30.38,141.31H79.87A6.2,6.2,0,0,1,87.25,146l21.57,97.85a6.19,6.19,0,0,1-4.71,7.38,6,6,0,0,1-2.61,0H54.62Z"/><path class="cls-4" d="M54.61,251.26h0a6.18,6.18,0,0,1-7.38-4.71L25.66,148.69a6.19,6.19,0,0,1,4.71-7.38h0A6.2,6.2,0,0,1,37.75,146l21.57,97.85A6.19,6.19,0,0,1,54.61,251.26Z"/><polygon class="cls-11" points="51.03 364.51 56.01 364.51 67.91 256.49 59.96 256.49 51.03 364.51"/><polygon class="cls-12" points="117.41 364.51 112.43 364.51 100.53 256.49 108.48 256.49 117.41 364.51"/><polygon class="cls-13" points="71.37 362.32 76.35 362.32 88.26 254.3 80.31 254.3 71.37 362.32"/><polygon class="cls-14" points="137.76 362.32 132.78 362.32 120.87 254.3 128.82 254.3 137.76 362.32"/><g class="cls-9"><polygon points="130.02 268.72 122.46 268.72 120.87 254.3 128.82 254.3 130.02 268.72"/><polygon points="109.49 268.72 101.88 268.72 100.53 256.49 108.48 256.49 109.49 268.72"/><polygon points="80.31 254.3 88.26 254.3 86.67 268.72 79.11 268.72 80.31 254.3"/><polygon points="59.96 256.49 67.91 256.49 66.56 268.72 58.95 268.72 59.96 256.49"/></g><path class="cls-3" d="M53.73,261.81h85.12V251.17H53.73a5.32,5.32,0,0,0-5.32,5.32h0A5.32,5.32,0,0,0,53.73,261.81Z"/><rect class="cls-10" x="96.24" y="251.17" width="42.61" height="10.64" transform="translate(235.09 512.98) rotate(180)"/><path class="cls-15" d="M137.81,358.79c.64-1.84,1.78-3.08,3.08-3.08s2.44,1.24,3.08,3.08h31.22l-1.56-4.44a13.55,13.55,0,0,0-8.22-8.28l-12.35-4.41a6.3,6.3,0,0,1-4-7.32L152,321.41H134l-3.7,20.95-3,16.43Z"/><path class="cls-16" d="M127.27,358.79h10.54c.64-1.84,1.78-3.08,3.08-3.08s2.44,1.24,3.08,3.08h31.22l-1.56-4.44a13.64,13.64,0,0,0-1.14-2.41h-44Z"/><path class="cls-17" d="M105.8,229.1s34,7.4,46.28,10.41,21.91,8.22,16.16,28.76-15.33,58.05-15.33,58.05H131l11.5-67.48-64.08-7.55-11.81-26.2Z"/><path class="cls-18" d="M151.68,365.49c.63-1.85,1.77-3.08,3.07-3.08s2.44,1.23,3.08,3.08h31.22L187.5,361a13.55,13.55,0,0,0-8.23-8.27l-11.58-4.14a13.36,13.36,0,0,1-8.13-8.19l-4.33-12.34H137.3L142,349.05l-.82,16.44Z"/><path class="cls-19" d="M55.78,229.1c1.46,10.59-1.65,22.77,14.78,27.55s42.09,5.13,42.09,5.13l23.28,69.75H159.2l-23.27-78.79a18.23,18.23,0,0,0-13-12.51l-39.46-12Z"/><path class="cls-20" d="M101.07,184.6l9.13,21.82,28.65,3.47s14.21-2.83,18.85,6.07H101.07L90.59,186.71Z"/><path class="cls-15" d="M88.53,157.34c6.86,2.75,17.27,30.32,17.27,30.32H88.53Z"/><path class="cls-20" d="M80.06,118.38l5.75,13.42-3,1s2.33,6.84,1.5,9.17-7.8,3.56-7.8,3.56L78,160.28H61a46.36,46.36,0,0,0-5-20.43,89.93,89.93,0,0,0-10.35-16.4Z"/><path class="cls-15" d="M59.47,129.48c.78-2.2,5.28.43,5.28.43l2,3.54,3-1-4.14-12-19.85,2.93A89.93,89.93,0,0,1,56,139.85,45.24,45.24,0,0,1,58.9,147s1.25-.27,4.19-2.91a8.31,8.31,0,0,0,2.66-5.68C62.87,138.24,58,133.74,59.47,129.48Z"/><polygon class="cls-18" points="72.64 152.85 45.01 155.98 54.31 229.1 106.97 229.1 88.53 157.34 72.64 152.85"/><path class="cls-20" d="M46.92,184.6l-1.23,21.15,28.48,5.69,9.32-2.19s12.17,2.24,14.09,7.35H33.5l.82-32Z"/><path class="cls-16" d="M80.06,118.38l-34.37,5.07s.68.79,1.8,2.32h0L82,122.84Z"/><path class="cls-21" d="M47,125.56S93.2,118,93.48,117s-14-.69-14-.69,1.24-9.14-6.57-10.4c-8.8-1.42-20.94.37-27.94,6.26C40,116.36,39.33,122.54,47,125.56Z"/><polygon class="cls-15" points="57.68 150.64 72.64 152.85 70.23 160.28 56.49 154.89 57.68 150.64"/><polygon class="cls-15" points="80.37 151.35 72.64 152.93 74.14 160.67 81.77 155.57 80.37 151.35"/><path class="cls-15" d="M48,155.57c-7.38.82-12,5.08-13.59,14.52-1.73,10.18-2.28,17.57-2.28,17.57H48.64s.61-14.15.61-19.9C49.25,159.68,48,155.57,48,155.57Z"/><path class="cls-16" d="M79.51,116.32s1.24-9.14-6.57-10.4c-1.13-.18-2.31-.31-3.52-.38a14.73,14.73,0,0,0-8.23,15Z"/><path class="cls-16" d="M141.13,365.49h10.55c.63-1.85,1.77-3.08,3.07-3.08s2.44,1.23,3.08,3.08h31.22L187.5,361a14,14,0,0,0-1.05-2.25h-45Z"/><path class="cls-20" d="M211.14,325.11l-5.63,19.09L186.3,362.64,172.08,369s8.32,7.56,23.57,2.82,21.26-5.63,22.54-8.45,1-15.11,1-15.11l6.15-21.78Z"/><path class="cls-19" d="M195.65,371.86c15.24-4.74,21.26-5.63,22.54-8.45.69-1.53.93-5.84,1-9.47l-9.06,3c-1.3-4.62-6.74-6.48-10.41-7.21L186.3,362.64,172.08,369S180.4,376.6,195.65,371.86Z"/><path class="cls-19" d="M297.59,223.6l-5.3,20a17.14,17.14,0,0,1-16.56,12.74H250.49l-23,72.81H205.85l18.29-90.65,46.61-17.25Z"/><path class="cls-16" d="M248.43,230l-4.28,1.05-20,7.41-3.7,18.33L247,267.39l3.5-11.08h25.24A17.1,17.1,0,0,0,292,244.46Z"/><path class="cls-20" d="M267.47,240.39h16.7s10.77-6.17,14.56-3.7S302.11,249,302.11,249s2.6,8.08,1.23,12.74-5.88,14.37-5.88,14.37l-7.74-15a18,18,0,0,0-15.05-9.72l-11.17-.57Z"/><path class="cls-19" d="M298.73,236.69c-2.08-1.35-6.25-.11-9.6,1.29,3.42,6.58,2.71,14.18,2.71,14.18a6,6,0,0,0-4,6l0,0a17.87,17.87,0,0,1,1.88,2.86l7.74,15s4.51-9.72,5.88-14.37S302.11,249,302.11,249,302.52,239.15,298.73,236.69Z"/><path class="cls-22" d="M269.11,239l-2.74,17.29H207.58c-15.33,0-18.32-13.47-13-17.29,7.67-5.48,53.78-16.25,53.78-16.25l20.71,2.74-29.39,12.23Z"/><path class="cls-17" d="M263.09,148.28l-30.68,15.88-22.64-27v-1.49a7,7,0,0,0-1.7-4.59L201,122.9v2.36a5.63,5.63,0,0,0,.3,1.81l1.53,4.41-8.4-3.1-6-5.48L185.7,129a4.13,4.13,0,0,0,.38,4l4.82,7a8.85,8.85,0,0,0,6.73,3.8l5.21.32,23.91,41L273,165.44Z"/><path class="cls-20" d="M209.77,137.14v-1.49a7,7,0,0,0-1.7-4.59L201,122.9v2.36a5.63,5.63,0,0,0,.3,1.81l1.53,4.41-8.4-3.1-6-5.48L185.7,129a4.13,4.13,0,0,0,.38,4l4.82,7a8.85,8.85,0,0,0,6.73,3.8l5.21.32L214,163.27c5.76-3.09,8.69-6.51,10.14-9Z"/><path class="cls-23" d="M265.69,112.77s-12.1-6.74-5.75-18.49c4.61-8.54,13.72-5.11,13.72-5.11s6.66-5.62,16.84-2c7.84,2.83,14.19,12.32,11.36,19.61-3.13,8.08,1.33,20.17-4.07,22.34-7,2.83-9.68-.43-17.29-3.85S265.69,112.77,265.69,112.77Z"/><path class="cls-20" d="M268.31,100.62s-5.41,11.51-7.05,14.43h4.38s-.14,7,1.1,9.86c2.31,5.34,9.26.73,10.72,2.92s2.79,9.31,2.79,9.31h14.6l-3-16.29s5.34-3.84,4.38-7.95-5.61-1-5.61-1-2.19,9.31-2.74,9.31-1.23-7.81-1.23-7.81-4.52-1-6.3-10.27C280.34,103.18,274.79,106,268.31,100.62Z"/><path class="cls-19" d="M277.24,132.21h18.07s-.09,4.2,5.93,6.94,8.4,4,9.5,14.79-12.23,73.94-12.23,73.94H252.79a4.37,4.37,0,0,1-4.06-6c5.08-13.07,16.2-45.33,14.36-73.64l14.05-11.14Z"/><path class="cls-22" d="M306.7,142.28c6.78,5.63,11.89,21.7,16.82,32.47s13.14,28.12,7.48,44H264.55l8.4-9.86,12.12,1.28,32.24-6.94s-10.3-24.13-15.52-35C294.12,152.11,306.7,142.28,306.7,142.28Z"/><path class="cls-20" d="M309.81,204.85l-24.74,5.32-5.92-.62a14.92,14.92,0,0,0-11,3.29l-7.22,5.91h51.77C314.38,211.15,312.1,207,309.81,204.85Z"/><path class="cls-16" d="M237.83,237.92,224.5,237S232.9,234.08,237.83,237.92Z"/><polygon class="cls-24" points="35.38 372.41 28.81 372.41 34.01 221.72 47.16 221.72 35.38 372.41"/><polygon class="cls-9" points="33.37 240.41 45.7 240.41 47.16 221.72 34.01 221.72 33.37 240.41"/><polygon class="cls-25" points="328.55 372.41 335.12 372.41 329.92 221.72 316.77 221.72 328.55 372.41"/><polygon class="cls-9" points="330.56 240.41 318.23 240.41 316.77 221.72 329.92 221.72 330.56 240.41"/><rect class="cls-26" x="15.55" y="215.96" width="332.83" height="12.4"/><rect class="cls-27" x="15.55" y="228.36" width="332.83" height="3.29"/><rect class="cls-28" x="185.85" y="213.36" width="95" height="2.6"/><path class="cls-29" d="M248.53,216H184.32l-6.18-39.3a3,3,0,0,1,3-3.65h57a4.42,4.42,0,0,1,4.19,3.65Z"/><path class="cls-16" d="M238.16,173h-1.75a4.42,4.42,0,0,1,4.19,3.65l6.18,39.3h1.75l-6.18-39.3A4.42,4.42,0,0,0,238.16,173Z"/><path class="cls-16" d="M220,194.49a5.85,5.85,0,0,1-5.89,7,8.54,8.54,0,0,1-8.1-7,5.85,5.85,0,0,1,5.89-7.05A8.53,8.53,0,0,1,220,194.49Z"/><rect class="cls-28" x="62.7" y="213.36" width="95" height="2.6" transform="translate(220.4 429.33) rotate(180)"/><path class="cls-30" d="M95,216h64.21l6.18-39.3a3,3,0,0,0-3-3.65h-57a4.42,4.42,0,0,0-4.19,3.65Z"/><path class="cls-16" d="M105.39,173h1.74a4.41,4.41,0,0,0-4.18,3.65L96.76,216H95l6.18-39.3A4.42,4.42,0,0,1,105.39,173Z"/><path class="cls-16" d="M123.51,194.49a5.85,5.85,0,0,0,5.88,7,8.53,8.53,0,0,0,8.1-7,5.84,5.84,0,0,0-5.88-7.05A8.52,8.52,0,0,0,123.51,194.49Z"/><g class="cls-10"><rect class="cls-31" x="117.06" y="86.6" width="118.13" height="30.8"/></g><rect class="cls-21" x="115.19" y="84.5" width="118.13" height="30.8"/><rect class="cls-19" x="115.19" y="84.5" width="30.36" height="30.8"/><path class="cls-32" d="M228,84.5a10.95,10.95,0,0,0-21.44-3.14,10.65,10.65,0,0,0,1,8.54l-.08,0,8.47,16a1.23,1.23,0,0,0,2.18,0l8.47-16-.08,0A10.89,10.89,0,0,0,228,84.5Zm-11,4.22a4.22,4.22,0,1,1,4.22-4.22A4.22,4.22,0,0,1,217,88.72Z"/><rect class="cls-33" x="149.93" y="92.43" width="50.39" height="1.64"/><rect class="cls-33" x="149.93" y="99.08" width="50.39" height="1.64"/><rect class="cls-33" x="149.93" y="105.74" width="50.39" height="1.64"/><polyline class="cls-34" points="124.73 99.35 128.79 103.5 136.8 94.67"/><circle class="cls-21" cx="32.13" cy="60.29" r="32.13" transform="translate(-32.6 82.14) rotate(-80.6)"/><polygon class="cls-21" points="37.98 86.6 51.03 100.73 49.25 80.28 37.98 86.6"/><path class="cls-21" d="M258.08,45.83A32.14,32.14,0,1,0,275.71,4,32.14,32.14,0,0,0,258.08,45.83Z"/><polygon class="cls-21" points="292.36 60.28 285.61 78.28 279.53 58.67 292.36 60.28"/><path class="cls-16" d="M50.79,63.67a18,18,0,0,0,0-6.75H46.15a14.18,14.18,0,0,0-1.73-4.14l3.3-3.3a19.17,19.17,0,0,0-4.78-4.77L39.65,48a14,14,0,0,0-4.14-1.72V41.64a18,18,0,0,0-6.75,0v4.64A13.89,13.89,0,0,0,24.62,48l-3.3-3.29a19,19,0,0,0-4.77,4.77l3.29,3.3a13.89,13.89,0,0,0-1.72,4.14H13.48a18,18,0,0,0,0,6.75h4.64a14,14,0,0,0,1.72,4.14L16.55,71.1a19.17,19.17,0,0,0,4.77,4.78l3.3-3.3a14.18,14.18,0,0,0,4.14,1.73V79a18,18,0,0,0,6.75,0V74.31a14.3,14.3,0,0,0,4.14-1.73l3.29,3.3a19.38,19.38,0,0,0,4.78-4.78l-3.3-3.29a14.3,14.3,0,0,0,1.73-4.14ZM32.13,64.74a4.45,4.45,0,1,1,4.45-4.45A4.44,4.44,0,0,1,32.13,64.74Z"/><path class="cls-28" d="M292.91,54.17c0,1.2-2.27,2.17-5.07,2.17s-5.07-1-5.07-2.17S285,52,287.84,52,292.91,53,292.91,54.17Z"/><path class="cls-35" d="M302.53,25.76a14.69,14.69,0,1,0-25.82,9.58,14.7,14.7,0,0,1,3.78,9.56v.32h14.7V44.9a14.48,14.48,0,0,1,3.73-9.5A14.57,14.57,0,0,0,302.53,25.76Z"/><rect class="cls-36" x="284.48" y="26.39" width="6.72" height="20.4"/><rect class="cls-33" x="280.53" y="45.22" width="14.62" height="8.96"/><rect class="cls-26" x="280.53" y="46.79" width="14.62" height="0.77"/><rect class="cls-26" x="280.53" y="49.31" width="14.62" height="0.77"/><rect class="cls-26" x="280.53" y="51.83" width="14.62" height="0.77"/><g class="cls-10"><path class="cls-31" d="M92.64,2.19h75.65a1.55,1.55,0,0,1,1.55,1.55V63.3a1.92,1.92,0,0,1-1.92,1.92H93A1.92,1.92,0,0,1,91.1,63.3V3.74A1.55,1.55,0,0,1,92.64,2.19Z"/></g><path class="cls-21" d="M90.34,0H166a1.55,1.55,0,0,1,1.55,1.55V61.11A1.92,1.92,0,0,1,165.61,63H90.72a1.92,1.92,0,0,1-1.92-1.92V1.55A1.55,1.55,0,0,1,90.34,0Z"/><path class="cls-16" d="M90.34,2.19H166a1.55,1.55,0,0,1,1.55,1.55V17.34a0,0,0,0,1,0,0H88.8a0,0,0,0,1,0,0V3.74A1.55,1.55,0,0,1,90.34,2.19Z"/><path class="cls-32" d="M90.34,0H166a1.55,1.55,0,0,1,1.55,1.55V15.15a0,0,0,0,1,0,0H88.8a0,0,0,0,1,0,0V1.55A1.55,1.55,0,0,1,90.34,0Z"/><rect class="cls-16" x="94.39" y="21.86" width="5.9" height="0.82"/><rect class="cls-16" x="104.67" y="21.86" width="5.9" height="0.82"/><rect class="cls-16" x="114.94" y="21.86" width="5.9" height="0.82"/><rect class="cls-16" x="125.22" y="21.86" width="5.9" height="0.82"/><rect class="cls-16" x="135.49" y="21.86" width="5.9" height="0.82"/><rect class="cls-16" x="145.77" y="21.86" width="5.9" height="0.82"/><rect class="cls-16" x="156.05" y="21.86" width="5.9" height="0.82"/><rect class="cls-37" x="94.39" y="26.84" width="5.9" height="2.88"/><rect class="cls-37" x="104.67" y="26.84" width="5.9" height="2.88"/><rect class="cls-37" x="114.94" y="26.84" width="5.9" height="2.88"/><rect class="cls-16" x="125.22" y="26.84" width="5.9" height="2.88"/><rect class="cls-16" x="135.49" y="26.84" width="5.9" height="2.88"/><rect class="cls-16" x="145.77" y="26.84" width="5.9" height="2.88"/><rect class="cls-16" x="156.05" y="26.84" width="5.9" height="2.88"/><rect class="cls-32" x="94.39" y="33.32" width="5.9" height="2.88"/><rect class="cls-16" x="104.67" y="33.32" width="5.9" height="2.88"/><rect class="cls-16" x="114.94" y="33.32" width="5.9" height="2.88"/><rect class="cls-16" x="125.22" y="33.32" width="5.9" height="2.88"/><rect class="cls-16" x="135.49" y="33.32" width="5.9" height="2.88"/><rect class="cls-16" x="145.77" y="33.32" width="5.9" height="2.88"/><rect class="cls-16" x="156.05" y="33.32" width="5.9" height="2.88"/><rect class="cls-32" x="94.39" y="39.8" width="5.9" height="2.88"/><rect class="cls-16" x="104.67" y="39.8" width="5.9" height="2.88"/><rect class="cls-16" x="114.94" y="39.8" width="5.9" height="2.88"/><rect class="cls-16" x="125.22" y="39.8" width="5.9" height="2.88"/><rect class="cls-16" x="135.49" y="39.8" width="5.9" height="2.88"/><rect class="cls-16" x="145.77" y="39.8" width="5.9" height="2.88"/><rect class="cls-16" x="156.05" y="39.8" width="5.9" height="2.88"/><rect class="cls-32" x="94.39" y="46.28" width="5.9" height="2.88"/><rect class="cls-16" x="104.67" y="46.28" width="5.9" height="2.88"/><rect class="cls-16" x="114.94" y="46.28" width="5.9" height="2.88"/><rect class="cls-16" x="125.22" y="46.28" width="5.9" height="2.88"/><rect class="cls-16" x="135.49" y="46.28" width="5.9" height="2.88"/><rect class="cls-37" x="145.77" y="46.28" width="5.9" height="2.88"/><rect class="cls-37" x="156.05" y="46.28" width="5.9" height="2.88"/><rect class="cls-16" x="109.22" y="4.56" width="37.88" height="7.03"/></g></g></svg>