<?xml version="1.0" encoding="utf-8"?>
<!-- Generator: Adobe Illustrator 21.0.0, SVG Export Plug-In . SVG Version: 6.00 Build 0)  -->
<svg version="1.1" id="Layer_1" xmlns="http://www.w3.org/2000/svg" xmlns:xlink="http://www.w3.org/1999/xlink" x="0px" y="0px"
	 viewBox="0 0 228 188" style="enable-background:new 0 0 228 188;" xml:space="preserve">
<style type="text/css">
	.st0{fill:#EAEBFB;}
	.st1{clip-path:url(#SVGID_2_);fill:#DFE0F3;}
	.st2{fill:#C7CBE8;}
	.st3{fill:#93B7FA;}
	.st4{fill:#FFFFFF;}
	.st5{fill:#C5C9E6;}
	.st6{fill:#3D415B;}
	.st7{fill:none;stroke:#3D415B;stroke-width:2.4961;stroke-miterlimit:10;}
	.st8{fill:#E3BC9A;}
	.st9{fill:#D8AC89;}
	.st10{fill:#7C6EF2;}
	.st11{fill:#303348;}
	.st12{fill:#282C3C;}
	.st13{fill:#583BF5;}
	.st14{fill:#DDB28D;}
	.st15{fill:#A9C9FA;}
	.st16{fill:#82A7E7;}
	.st17{fill:#8EB6EC;}
	.st18{fill:#ECF2F5;}
	.st19{fill:#29323D;}
	.st20{fill:#4747CC;}
	.st21{fill:none;stroke:#3D415B;stroke-width:2;stroke-miterlimit:10;}
</style>
<g>
	<path class="st0" d="M82.3,75c34.5-20.8,50.8-84.9,104-46.6c53.2,38.3,31.2,116.9-19.9,135.9c-51,19-116.7,8.3-135.1-27
		C-0.2,76.9,59.2,89,82.3,75z"/>
	<g>
		<defs>
			<path id="SVGID_1_" d="M82.3,75c34.5-20.8,50.8-84.9,104-46.6c53.2,38.3,31.2,116.9-19.9,135.9c-51,19-116.7,8.3-135.1-27
				C-0.2,76.9,59.2,89,82.3,75z"/>
		</defs>
		<clipPath id="SVGID_2_">
			<use xlink:href="#SVGID_1_"  style="overflow:visible;"/>
		</clipPath>
		<path class="st1" d="M222.2,149.1c0,0-29.4-29.5-78.5-15.5c-49.1,14-78,2-71.9-72.2c0,0-69,9.6-60.2,58.7
			C22.3,179.6,161,202.3,222.2,149.1z"/>
	</g>
	<g>
		<g>
			<path class="st2" d="M157.8,27.9v28.8c0,2.5,2,4.5,4.5,4.5h61.3c2.5,0,4.5-2,4.5-4.5V27.9c0-2.5-2-4.5-4.5-4.5l-61.3,0
				C159.8,23.4,157.8,25.4,157.8,27.9z"/>
		</g>
		<g>
			<path class="st3" d="M157.8,27.9v2.5h70.3v-2.5c0-2.5-2-4.5-4.5-4.5l-61.3,0C159.8,23.4,157.8,25.4,157.8,27.9z"/>
			<g>
				<circle class="st4" cx="224.2" cy="27.2" r="0.9"/>
				<circle class="st4" cx="220.4" cy="27.2" r="0.9"/>
				<circle class="st4" cx="216.6" cy="27.2" r="0.9"/>
			</g>
		</g>
		<path class="st4" d="M204.5,47.6h14.1c0.5,0,0.8-0.4,0.8-0.8V35.4c0-0.5-0.4-0.8-0.8-0.8h-14.1c-0.5,0-0.8,0.4-0.8,0.8v11.4
			C203.6,47.3,204,47.6,204.5,47.6z"/>
		<g>
			<path class="st4" d="M167.5,53.8h51.9c0.5,0,1-0.4,1-1l0,0c0-0.5-0.4-1-1-1h-51.9c-0.5,0-1,0.4-1,1l0,0
				C166.6,53.3,167,53.8,167.5,53.8z"/>
		</g>
		<g>
			<path class="st4" d="M167.5,46.3H199c0.5,0,1-0.4,1-1l0,0c0-0.5-0.4-1-1-1h-31.5c-0.5,0-1,0.4-1,1l0,0
				C166.6,45.8,167,46.3,167.5,46.3z"/>
		</g>
		<g>
			<path class="st4" d="M179.5,39.2H199c0.5,0,1-0.4,1-1l0,0c0-0.5-0.4-1-1-1h-19.5c-0.5,0-1,0.4-1,1l0,0
				C178.5,38.8,179,39.2,179.5,39.2z"/>
		</g>
	</g>
	<g>
		<path class="st4" d="M132.5,48.2l0.5-1.3l0.5,1.3c0.4,1.1,1.3,2.1,2.6,2.6l0,0l0,0c-1.3,0.6-2.2,1.5-2.6,2.6l-0.5,1.3l-0.5-1.3
			c-0.4-1.1-1.3-2.1-2.6-2.6l0,0l0,0C131.2,50.3,132.1,49.4,132.5,48.2z"/>
		<path class="st4" d="M174.6,124.5l0.5-1.3l0.5,1.3c0.4,1.1,1.3,2.1,2.6,2.6l0,0l0,0c-1.3,0.6-2.2,1.5-2.6,2.6l-0.5,1.3l-0.5-1.3
			c-0.4-1.1-1.3-2.1-2.6-2.6l0,0l0,0C173.3,126.6,174.2,125.7,174.6,124.5z"/>
		<path class="st4" d="M48.4,116.5l0.3-0.9l0.3,0.9c0.3,0.7,0.9,1.4,1.7,1.7l0,0l0,0c-0.8,0.4-1.4,1-1.7,1.7l-0.3,0.9l-0.3-0.9
			c-0.3-0.7-0.9-1.4-1.7-1.7l0,0l0,0C47.5,117.9,48.1,117.2,48.4,116.5z"/>
		<path class="st4" d="M195,72.2l0.3-0.9l0.3,0.9c0.3,0.7,0.9,1.4,1.7,1.7l0,0l0,0c-0.8,0.4-1.4,1-1.7,1.7l-0.3,0.9l-0.3-0.9
			c-0.3-0.7-0.9-1.4-1.7-1.7l0,0l0,0C194.1,73.6,194.7,72.9,195,72.2z"/>
	</g>
	<g>
		<path class="st3" d="M95.2,0l29.2,0c1.6,0,2.9,1.3,2.9,2.9v15.8c0,1.6-1.3,2.9-2.9,2.9h-1.6v7.2l-7.2-7.2H95.2
			c-1.6,0-2.9-1.3-2.9-2.9V2.9C92.4,1.3,93.6,0,95.2,0z"/>
		<g>
			<path class="st4" d="M120.3,15.5h-6.9c-0.5,0-1,0.4-1,1l0,0c0,0.5,0.4,1,1,1h6.9c0.5,0,1-0.4,1-1l0,0
				C121.3,15.9,120.9,15.5,120.3,15.5z"/>
		</g>
		<g>
			<path class="st4" d="M120.3,10.7h-12.7c-0.5,0-1,0.4-1,1l0,0c0,0.5,0.4,1,1,1h12.7c0.5,0,1-0.4,1-1l0,0
				C121.3,11.1,120.9,10.7,120.3,10.7z"/>
		</g>
		<g>
			<path class="st4" d="M120.3,6H98.5c-0.5,0-1,0.4-1,1l0,0c0,0.5,0.4,1,1,1h21.8c0.5,0,1-0.4,1-1l0,0C121.3,6.4,120.9,6,120.3,6z"
				/>
		</g>
	</g>
	<g>
		<path class="st5" d="M113.3,135.3H79.5c-6.8,0-12.5-5.1-13.2-11.8l-4.9-50.7h33.8l0.7,29.4L113.3,135.3z"/>
		<g>
			<path class="st6" d="M113.3,135.9c-8.7,0.3-17.4,0.5-26,0.6l-6.5,0.1c-0.6,0-1,0-1.7,0c-0.6,0-1.2-0.1-1.8-0.1
				c-1.2-0.2-2.3-0.5-3.4-0.9c-4.5-1.7-7.8-5.9-8.7-10.6c-0.2-1.2-0.3-2.3-0.4-3.4l-0.3-3.2l-0.6-6.5c-0.4-4.3-0.8-8.6-1.2-13
				c-0.8-8.7-1.5-17.3-2.1-26c0-0.4,0.3-0.8,0.7-0.8c0.4,0,0.8,0.3,0.8,0.7c1,8.6,2,17.3,2.9,25.9c0.5,4.3,0.9,8.6,1.3,13l0.6,6.5
				l0.3,3.2c0.1,1.1,0.2,2.2,0.4,3.1c0.8,3.8,3.5,7.2,7.1,8.8c0.9,0.4,1.8,0.7,2.8,0.8c0.5,0.1,1,0.1,1.5,0.1c0.5,0,1.1,0,1.6,0
				l6.5,0.1c8.7,0.1,17.4,0.3,26,0.6c0.3,0,0.5,0.3,0.5,0.6C113.8,135.6,113.6,135.9,113.3,135.9z"/>
		</g>
		<line class="st7" x1="94" y1="136.3" x2="94" y2="172.1"/>
	</g>
	<g>
		<rect x="87.6" y="102.7" class="st6" width="108.9" height="1.7"/>
		<polygon class="st8" points="100.5,178.9 99.3,183 104.9,184.7 106.7,179.6 		"/>
		<polygon class="st8" points="134.5,175.9 134.5,179.2 129.5,179.2 128.9,175.9 		"/>
		<g>
			<g>
				<path class="st9" d="M96.2,79.6l7.5,18.6l0.2,0.4c0.4,1.1,1.5,1.8,2.6,1.8l21.4-0.2c0.9,0,1.6-0.7,1.6-1.6
					c0-0.8-0.6-1.4-1.3-1.5L107,94l2.8,2.2l-5.1-19.4c-0.6-2.4-3.1-3.8-5.5-3.2c-2.4,0.6-3.8,3.1-3.2,5.5
					C96,79.2,96.1,79.4,96.2,79.6z"/>
				<path class="st9" d="M125.6,96.7l7.3-0.2c1.8,0,3.3,1.6,3.3,3.6v0h-10.7L125.6,96.7z"/>
			</g>
			<g>
				<path class="st10" d="M108,81.9l-11.7,2.9l-1.9-10.4c-0.5-2.8,1.4-5.5,4.3-5.9l0,0c2.4-0.3,4.8,1,5.6,3.3L108,81.9z"/>
			</g>
		</g>
		<path class="st11" d="M95.9,102.2l36.1,18.3c3.4,1.7,5.4,5.2,5.2,9l-2.7,46.4h-5.5l-7.5-49.6l-28.1-19.7L95.9,102.2z"/>
		<path class="st12" d="M102.3,38.8c0,0-10-3.4-15.3,6.1c-0.3,0.6-0.6,1.1-1.1,1.6c-1.1,1.3-3.3,3.6-5.8,4.3
			c-9.8,3-15.9,21.5,3.5,23.1c24.3,2.1,31.2-2.7,27.8-12.4c-2.5-6.9-0.3-11.8-0.3-11.8L102.3,38.8z"/>
		<path class="st13" d="M94.3,63.6l5.2,2.3c3.1,1.4,5.1,4.5,5,7.8c-0.1,6.8-1.6,23.7-7.4,30.2H79.6c-2.7-12-1.2-30.4-1.2-30.4
			c-0.2-4.5,3.1-8.4,7.6-9L94.3,63.6z"/>
		<g>
			<g>
				<g>
					<path class="st14" d="M93.8,69.2L93.8,69.2c1.8,0.2,3.5-1.1,3.7-2.9l1.4-11.2l-6.7-0.8l-1.4,11.1C90.6,67.3,91.9,69,93.8,69.2z
						"/>
					<path class="st8" d="M99.3,63.4l0.3,0c4.5,0.6,8.5-2.6,9.1-7l1.3-9.7l-16.4-2.1l-1.3,9.7C91.7,58.8,94.9,62.9,99.3,63.4z"/>
				</g>
				<path class="st12" d="M91.8,50.6l1.4,2.9c0,0,1.9,1.6,2.4-2.4c0.4-3.4,2.9-2.8,2.9-2.8s8.5,6.5,13.6,2c4-3.5-2.4-9.9-9.8-11.4
					L92.7,43L91.8,50.6z"/>
				
					<ellipse transform="matrix(0.1201 -0.9928 0.9928 0.1201 27.5616 137.6545)" class="st8" cx="91.4" cy="53.3" rx="2.7" ry="2.7"/>
				<ellipse transform="matrix(0.12 -0.9928 0.9928 0.12 26.3664 138.7214)" class="st4" cx="91.4" cy="54.5" rx="0.5" ry="0.5"/>
			</g>
			<path class="st4" d="M105.8,58.7l-4.6-1c0,0-0.2,2,2.3,2.4C105.5,60.4,105.8,58.7,105.8,58.7z"/>
		</g>
		<path class="st6" d="M79.6,104h17.6l28.1,17c3.3,2,4.6,6.1,3.1,9.7l-21.6,49l-6.2-0.7l11.6-47.3c-9.7-0.4-27.8-1.9-32.5-7.1
			C71.6,115.6,79.6,104,79.6,104z"/>
		<g>
			<path class="st3" d="M139.4,73.2l-10,26.9H162l9.3-25.4c0.3-0.8-0.3-1.6-1.1-1.6H139.4z"/>
			<path class="st15" d="M139.4,73.2h-1.6c-0.8,0-1.6,0.5-1.9,1.3l-9.4,25.6h2.9L139.4,73.2z"/>
			<path class="st16" d="M159.5,102.7h-30.1v-2.6h32.5v0.2C161.9,101.7,160.8,102.7,159.5,102.7z"/>
			<path class="st17" d="M129.4,102.7h-20.1c-0.7,0-1.3-0.6-1.3-1.3l0,0c0-0.7,0.6-1.3,1.3-1.3h20.1V102.7z"/>
			
				<ellipse transform="matrix(0.3143 -0.9493 0.9493 0.3143 20.0219 202.7455)" class="st18" cx="150.4" cy="87.5" rx="3.5" ry="2.9"/>
		</g>
		<g>
			<g>
				<path class="st8" d="M82.4,79.1L90,98l0.2,0.4c0.4,1.1,1.5,1.8,2.7,1.8l21.4-0.1c0.9,0,1.6-0.7,1.6-1.6c0-0.8-0.6-1.4-1.4-1.6
					l-21.2-3.1l2.8,2.2l-5.1-19.7c-0.6-2.4-3.1-3.9-5.5-3.3c-2.4,0.6-3.9,3.1-3.3,5.5C82.3,78.7,82.4,78.9,82.4,79.1z"/>
				<path class="st8" d="M111.9,96.6l7.3-0.2c1.8,0,3.3,1.7,3.3,3.7l0,0h-10.7L111.9,96.6z"/>
			</g>
			<g>
				<path class="st10" d="M94.3,81.4l-11.7,2.9l-1.9-10.6c-0.5-2.9,1.4-5.6,4.3-6l0,0c2.4-0.4,4.8,1,5.6,3.3L94.3,81.4z"/>
			</g>
		</g>
		<path class="st19" d="M108.6,180.8l2.7,2.7l6.1,1.5c0.6,0.2,1.1,0.6,1.4,1.2l0.3,0.9c0.2,0.4-0.2,0.9-0.6,0.9l-19.8-0.5
			c-0.6,0-1.1-0.6-1.1-1.2l1.6-5.6l3,0.7c1,0.3,2.1,0.2,3-0.3l1.1-0.6C107,180,108,180.1,108.6,180.8z"/>
		<path class="st19" d="M137,176.9l2.7,2.7l6.1,1.5c0.6,0.2,1.1,0.6,1.4,1.2l0.3,0.9c0.2,0.4-0.2,0.9-0.6,0.9l-17.9-0.4
			c-0.6,0-1.1-0.6-1.1-1.2l0.5-5.7l2.2,0.7c1,0.3,2.1,0.2,3-0.3l1.1-0.6C135.4,176.1,136.4,176.3,137,176.9z"/>
	</g>
	<g>
		<path class="st20" d="M53.2,60.9H3c-1.7,0-3.1-1.4-3.1-3.1V43.6c0-1.7,1.4-3.1,3.1-3.1h50.3c1.7,0,3.1,1.4,3.1,3.1v14.3
			C56.3,59.6,54.9,60.9,53.2,60.9z"/>
		<g>
			<path class="st4" d="M17.4,56.6H7c-0.5,0-1-0.4-1-1v-9.8c0-0.5,0.4-1,1-1h10.4c0.5,0,1,0.4,1,1v9.8
				C18.4,56.2,17.9,56.6,17.4,56.6z"/>
			<g>
				<path class="st4" d="M49.3,47.3H22.5c-0.5,0-0.8-0.4-0.8-0.8l0,0c0-0.5,0.4-0.8,0.8-0.8h26.8c0.5,0,0.8,0.4,0.8,0.8l0,0
					C50.2,46.9,49.8,47.3,49.3,47.3z"/>
				<g>
					<path class="st4" d="M31.8,51.6h-9.4c-0.5,0-0.8-0.4-0.8-0.8v0c0-0.5,0.4-0.8,0.8-0.8h9.4c0.5,0,0.8,0.4,0.8,0.8v0
						C32.7,51.2,32.3,51.6,31.8,51.6z"/>
					<path class="st4" d="M49.3,51.6H38.1c-0.5,0-0.8-0.4-0.8-0.8v0c0-0.5,0.4-0.8,0.8-0.8h11.2c0.5,0,0.8,0.4,0.8,0.8v0
						C50.2,51.2,49.8,51.6,49.3,51.6z"/>
				</g>
				<path class="st4" d="M42.6,55.8H22.5c-0.5,0-0.8-0.4-0.8-0.8l0,0c0-0.5,0.4-0.8,0.8-0.8h20.1c0.5,0,0.8,0.4,0.8,0.8l0,0
					C43.4,55.4,43.1,55.8,42.6,55.8z"/>
			</g>
		</g>
	</g>
	<g>
		<path class="st3" d="M178.3,94.6c0,0-8.3,0-6.6-8.5C171.8,86.1,180.5,86.9,178.3,94.6z"/>
		<path class="st3" d="M179.4,94.1c0,0,8.4,0,6.6-8.6C186,85.5,177.2,86.4,179.4,94.1z"/>
		<path class="st16" d="M179,94.1c0,0,6.1-6.2-1.1-11.6C177.9,82.6,172.1,89.7,179,94.1z"/>
		<polygon class="st13" points="172.3,93.4 185.7,93.4 183.5,102.7 174.6,102.7 		"/>
	</g>
	<line class="st21" x1="145.6" y1="104.4" x2="145.6" y2="170"/>
</g>
</svg>
