<?xml version="1.0" encoding="utf-8"?>
<!-- Generator: Adobe Illustrator 22.1.0, SVG Export Plug-In . SVG Version: 6.00 Build 0)  -->
<svg version="1.1" id="Layer_1" xmlns="http://www.w3.org/2000/svg" xmlns:xlink="http://www.w3.org/1999/xlink" x="0px" y="0px"
	 viewBox="0 0 197.8 138" style="enable-background:new 0 0 197.8 138;" xml:space="preserve">
<style type="text/css">
	.st0{fill:#95B9FC;}
	.st1{fill:#FFFFFF;}
	.st2{fill:#C9CDEA;}
	.st3{fill:#ECEDFD;}
	.st4{opacity:0.12;fill:#B8B8B8;enable-background:new    ;}
	.st5{fill:#583BF9;}
	.st6{fill:#8992C6;}
	.st7{fill:none;stroke:#DF7383;stroke-width:1.5001;stroke-linecap:round;stroke-linejoin:round;stroke-miterlimit:10;}
	.st8{fill:#E5BE9C;}
	.st9{fill:#29323D;}
	.st10{fill:#282C3C;}
	.st11{fill:#3D415B;}
	.st12{fill:#DFB48F;}
	.st13{fill:#D4667C;}
	.st14{fill:#DF7383;}
	.st15{opacity:0.44;fill:#CACACA;enable-background:new    ;}
	.st16{fill:#535975;}
	.st17{fill:none;stroke:#E5BE9C;stroke-width:1.466;stroke-linecap:round;stroke-linejoin:round;stroke-miterlimit:10;}
	.st18{fill:none;stroke:#D4667C;stroke-width:0.5625;stroke-miterlimit:10;}
</style>
<g>
	<g>
		<path class="st0" d="M165.9,12H37V7.2c0-4,3.2-7.2,7.2-7.2H159c3.8,0,6.9,3.1,6.9,6.9V12z"/>
		<circle class="st1" cx="49.3" cy="6.3" r="1.6"/>
		<circle class="st1" cx="54.9" cy="6.3" r="1.6"/>
		<circle class="st1" cx="60.6" cy="6.3" r="1.6"/>
		<rect x="37" y="12" class="st2" width="128.9" height="79.8"/>
		<rect x="41.7" y="15.8" class="st1" width="119" height="71.8"/>
	</g>
	<path class="st3" d="M93.8,78.7H50.9c-1,0-1.8-0.8-1.8-1.8V26c0-1,0.8-1.8,1.8-1.8h42.9c1,0,1.8,0.8,1.8,1.8v50.9
		C95.6,77.9,94.8,78.7,93.8,78.7z"/>
	<path class="st3" d="M145.1,53.3h-39.5c-0.7,0-1.2-0.6-1.2-1.2V24.7c0-0.7,0.6-1.2,1.2-1.2h39.5c0.7,0,1.2,0.6,1.2,1.2V52
		C146.3,52.7,145.8,53.3,145.1,53.3z"/>
	<path class="st3" d="M150.2,77H104c-0.5,0-0.9-0.4-0.9-0.9V62.9c0-0.5,0.4-0.9,0.9-0.9h46.2c0.5,0,0.9,0.4,0.9,0.9v13.2
		C151.2,76.6,150.8,77,150.2,77z"/>
	<path class="st4" d="M145.6,44.3h-35.9c-0.4,0-0.7-0.3-0.7-0.7V32.8c0-0.4,0.3-0.7,0.7-0.7h35.9c0.4,0,0.7,0.3,0.7,0.7v10.7
		C146.3,43.9,146,44.3,145.6,44.3z"/>
	<path class="st5" d="M148.5,40.8h-34.4c-0.4,0-0.7-0.3-0.7-0.7V29.3c0-0.4,0.3-0.7,0.7-0.7h34.4c0.4,0,0.7,0.3,0.7,0.7v10.8
		C149.2,40.5,148.9,40.8,148.5,40.8z"/>
	<g>
		<path class="st0" d="M64.7,36.9h-7.1c-1.8,0-3.2-1.4-3.2-3.2l0,0c0-1.8,1.4-3.2,3.2-3.2h7.1c1.8,0,3.2,1.4,3.2,3.2l0,0
			C67.9,35.5,66.4,36.9,64.7,36.9z"/>
		<g>
			<path class="st6" d="M89.8,32.3H71.6c-0.2,0-0.3-0.1-0.3-0.3s0.1-0.3,0.3-0.3h18.2c0.2,0,0.3,0.1,0.3,0.3
				C90.1,32.2,89.9,32.3,89.8,32.3z"/>
			<path class="st6" d="M80,35.8h-8.4c-0.2,0-0.3-0.1-0.3-0.3s0.1-0.3,0.3-0.3H80c0.2,0,0.3,0.1,0.3,0.3S80.1,35.8,80,35.8z"/>
		</g>
	</g>
	<g>
		<g>
			<rect x="87.6" y="44.1" class="st1" width="0.4" height="19.8"/>
			<rect x="81.7" y="44.1" class="st1" width="0.4" height="19.8"/>
			<rect x="75.7" y="44.1" class="st1" width="0.4" height="19.8"/>
			<rect x="69.7" y="44.1" class="st1" width="0.4" height="19.8"/>
			<rect x="63.8" y="44.1" class="st1" width="0.4" height="19.8"/>
			<rect x="57.8" y="44.1" class="st1" width="0.4" height="19.8"/>
		</g>
		<rect x="53.1" y="66.1" class="st1" width="39.2" height="0.4"/>
	</g>
	<g>
		<g>
			<rect x="111.2" y="71.6" class="st1" width="31.7" height="1.9"/>
			<rect x="122" y="71.6" class="st0" width="20.8" height="1.9"/>
		</g>
		<g>
			<rect x="111.2" y="66" class="st1" width="31.7" height="1.9"/>
			<rect x="132.9" y="66" class="st0" width="10" height="1.9"/>
		</g>
	</g>
	<path class="st7" d="M54.2,62c1.2-2.1,2.8-6.2,6-6.2c2.4,0,2.9,5.7,6.5,6.6c3.7,0.9,2.8-14.3,5.8-14.1c3,0.1,2.1,10.2,5.6,10.7
		s3.4-2.4,6.2-2.2c2.8,0.3,2.6,4.4,7.6,3.9"/>
	<g>
		<path class="st1" d="M143.4,33.1H118c-0.2,0-0.4-0.2-0.4-0.4s0.2-0.4,0.4-0.4h25.3c0.2,0,0.4,0.2,0.4,0.4
			C143.8,33,143.6,33.1,143.4,33.1z"/>
		<path class="st1" d="M129.7,37.1H118c-0.2,0-0.4-0.2-0.4-0.4s0.2-0.4,0.4-0.4h11.7c0.2,0,0.4,0.2,0.4,0.4
			C130.1,36.9,130,37.1,129.7,37.1z"/>
	</g>
</g>
<g>
	<path class="st8" d="M171.1,96.7l-3.2,5.9l0.6,27.8l-3.9,1.6l-3.3-28.4c-0.2-0.5-0.2-1.1,0-1.6l1.4-5.4L171.1,96.7z"/>
	<polygon class="st8" points="185,96.7 184.6,131 180.6,131.1 178.1,96.7 	"/>
	<path class="st9" d="M162.8,130.5l-1.8,1.8l-4.1,1c-0.4,0.1-0.8,0.4-0.9,0.8l-0.2,0.6c-0.1,0.3,0.1,0.6,0.4,0.6l12.1-0.3
		c0.4,0,0.8-0.4,0.7-0.8l-0.3-3.9l-1.5,0.5c-0.7,0.2-1.4,0.1-2-0.2l-0.7-0.4C163.9,130,163.2,130.1,162.8,130.5z"/>
	<path class="st9" d="M179,130.2l-1.8,1.8l-4.1,1c-0.4,0.1-0.8,0.4-0.9,0.8l-0.2,0.6c-0.1,0.3,0.1,0.6,0.4,0.6l12.1-0.3
		c0.4,0,0.8-0.4,0.7-0.8l-0.3-3.9l-1.5,0.5c-0.7,0.2-1.4,0.1-2-0.2l-0.7-0.4C180.1,129.7,179.4,129.8,179,130.2z"/>
	<path class="st10" d="M173.6,28.1c0,0,8.7-0.9,11.2,6.8c0.1,0.3,0.2,0.7,0.2,1c0.1,0.9,0,2.7-0.7,4.1c-1,2,2.9,5.1,5.9,8.2
		c3.9,4,0.5,14.6-9.5,15.6s-16-2.1-15.5-6.9s4.4-3.9,5.4-7.2s-5.4-3.8-4.4-8.3s1.5-6.4,2.4-9.3L173.6,28.1z"/>
	<path class="st5" d="M168.2,48.6l3.7,16.7l10.1-0.2l1.9-16.3c0.1-1-0.7-1.9-1.8-1.9L170,46.7C168.8,46.7,168,47.6,168.2,48.6z"/>
	<polygon class="st5" points="171,46.7 163.3,46.7 163,52.2 171.6,53.9 	"/>
	<polygon class="st8" points="163.3,46.7 155.8,46.1 155.2,51.1 163,52.2 	"/>
	<polygon class="st8" points="155.8,46.1 147,37.7 145.2,40.1 155.2,51.1 	"/>
	<path class="st5" d="M168.2,48.6l-0.4,5.3c0,0.6,0.1,1.2,0.5,1.6l3.5,4.5L168.2,48.6z"/>
	<path class="st11" d="M171.9,65.3l-0.1,2l-9.4,30.1h24.9l-0.5-23.5c0,0-0.5-6.1-4.8-8.8L171.9,65.3z"/>
	<ellipse transform="matrix(0.4816 -0.8764 0.8764 0.4816 31.0219 202.5873)" class="st8" cx="186.8" cy="75.1" rx="3.1" ry="3.1"/>
	<ellipse transform="matrix(0.4816 -0.8764 0.8764 0.4816 41.7803 146.0468)" class="st8" cx="144.3" cy="37.7" rx="3.1" ry="3.1"/>
	<path class="st5" d="M182,46.9c0,0,3.4,0.1,5.9,2.7l4.2,3.9l-3,4.1l-7-5.8L182,46.9z"/>
	<path class="st8" d="M189.1,57.5l3.7,3L186.7,73l1.8,1.7l9.1-14.6c0.4-0.7,0.2-1.6-0.4-2.2l-5-4.5L189.1,57.5z"/>
	<g>
		<g>
			<g>
				<path class="st12" d="M176.1,48.9h-0.4c-1.1-0.1-1.9-1.1-1.8-2.2l0.7-7.6l4.4,0.4l-0.7,7.5C178.2,48.2,177.2,49,176.1,48.9z"/>
				<path class="st8" d="M173.1,44.4h-0.2c-2.9-0.3-5.1-2.8-4.9-5.8l0.6-6.4l10.8,0.9l-0.6,6.4C178.7,42.5,176.1,44.7,173.1,44.4z"
					/>
			</g>
			<path class="st10" d="M179.8,37.2l-1.3,1.7c0,0-1.4,0.8-1.2-1.9c0.2-2.3-1.5-2.2-1.5-2.2s-6.4,3-9-0.6c-2.1-2.8,3.6-6.5,7.9-6
				l5.6,4L179.8,37.2z"/>
			<ellipse class="st8" cx="179.6" cy="39" rx="1.8" ry="1.8"/>
			<ellipse class="st1" cx="179.6" cy="40" rx="0.3" ry="0.3"/>
		</g>
		<path class="st1" d="M169.2,40.1h3.5c0,0-0.1,1.5-2,1.3C169.1,41.3,169.2,40.1,169.2,40.1z"/>
	</g>
</g>
<g>
	<path class="st8" d="M31.3,51.3l6.6,5.5l10.7-8.2l2.7,2.3L38.6,62.5c-0.5,0.6-1.5,0.7-2.1,0.1L28.7,56L31.3,51.3z"/>
	<path class="st13" d="M26.2,44.6c0,0,0.5-0.4,7.1,6.6L28.6,58l-3-3.1L26.2,44.6z"/>
	<path class="st8" d="M12.1,53.9L6,60.5l7.4,13.2L10.7,76L0.3,60.4c-0.5-0.6-0.4-1.6,0.2-2.1l7.3-7.7L12.1,53.9z"/>
	<path class="st14" d="M21,43.5l4.5,0.8c1.2,0.2,2.1,1.2,2.3,2.4l3.8,24.8l-18.4-0.6l-2.1-23.4c-0.1-1.6,1-2.9,2.5-3.1L21,43.5z"/>
	<g>
		<polygon class="st14" points="7.1,130.6 8.2,122.9 12.6,123.4 11.2,131.1 		"/>
		<polygon class="st14" points="36.8,129.8 35.7,122 40.1,121.4 40.8,129.3 		"/>
		<polygon class="st11" points="31.5,71.5 33.3,78.8 12.4,78.5 13.1,70.9 		"/>
		<polygon class="st11" points="23,76.3 29.4,96.3 34.7,124.2 41.3,122.9 38.1,95.8 32.8,76.8 		"/>
		<polygon class="st15" points="23.8,78.7 29.2,78.7 25,82.7 		"/>
		<polygon class="st11" points="12.5,77.5 11.1,97.2 6.5,123.5 14,124.2 19.6,98.1 22.1,76.3 		"/>
		<g>
			<path class="st9" d="M40.8,129.3l-4,0.5l0.7,6l12.5-0.5l0,0c-0.2-0.9-0.9-1.6-1.8-1.7l-7-1.7L40.8,129.3z"/>
			<polygon class="st2" points="37.5,135.9 50,135.4 50.1,136.3 37.6,136.8 			"/>
		</g>
		<g>
			<path class="st9" d="M11.2,131.1l-4.1-0.6l-0.8,6l11.9,0.5l0,0c0-1-0.5-1.8-1.3-2.1l-6-1.1L11.2,131.1z"/>
			<polygon class="st2" points="6.3,136.6 18.2,137.1 18.1,138 6.1,137.5 			"/>
		</g>
		<path class="st16" d="M41,121.8l-6.6,1c-1,0.1-1.7,1-1.5,1.9l0,0c0.1,0.9,1,1.6,2,1.4l6.6-1c1-0.1,1.7-1,1.5-1.9l0,0
			C42.9,122.2,42,121.6,41,121.8z"/>
		<path class="st16" d="M13.3,123.7L6.7,123c-1-0.1-1.9,0.5-2,1.5l0,0c-0.1,0.9,0.6,1.8,1.6,1.9l6.6,0.8c1,0.1,1.9-0.5,2-1.5l0,0
			C15,124.7,14.3,123.9,13.3,123.7z"/>
	</g>
	<g>
		<g>
			<path class="st12" d="M19.9,45.7h0.4c1.2,0,2.2-1,2.2-2.2l0.1-8.3h-4.8l-0.1,8.2C17.7,44.7,18.6,45.7,19.9,45.7z"/>
			<path class="st8" d="M23.5,42.2h0.2c3.2,0,5.8-2.6,5.9-5.8l0.1-7l-11.8-0.1l-0.1,7C17.7,39.6,20.3,42.2,23.5,42.2z"/>
			<path class="st10" d="M17.8,34.8h1.7c0.5,0,0.8-0.4,0.7-0.8c-0.2-1.2-0.4-3.3,0.4-3.6c1.1-0.3,7.1,1.4,9.2-0.2
				c2.9-2.1,0.9-5.7-1.7-5.9s-2.3,2.8-5.3,2.7c-3-0.1-7.6-1.4-5.8,6.7L17.8,34.8z"/>
		</g>
		<ellipse class="st8" cx="17.6" cy="35.1" rx="1.9" ry="1.9"/>
	</g>
	<g>
		<path class="st10" d="M26.3,34c0-1.3,1-2.3,2.3-2.3s2.3,1,2.3,2.3s-1,2.3-2.3,2.3C27.4,36.4,26.3,35.3,26.3,34z M26.9,34
			c0,0.9,0.8,1.7,1.7,1.7c0.9,0,1.7-0.8,1.7-1.7s-0.8-1.7-1.7-1.7C27.7,32.3,26.9,33.1,26.9,34z"/>
		<path class="st10" d="M21.3,34c0-1.3,1-2.3,2.3-2.3s2.3,1,2.3,2.3s-1,2.3-2.3,2.3C22.4,36.4,21.3,35.3,21.3,34z M21.9,34
			c0,0.9,0.8,1.7,1.7,1.7c0.9,0,1.7-0.8,1.7-1.7s-0.8-1.7-1.7-1.7C22.7,32.3,21.9,33.1,21.9,34z"/>
		<rect x="25.6" y="32.9" class="st10" width="1.2" height="0.6"/>
		<rect x="20" y="33.4" class="st10" width="1.9" height="0.6"/>
	</g>
	<path class="st14" d="M12.7,44.6c0,0-1.9,0.9-8.6,7.8l5.5,6.2l4-3.7L12.7,44.6z"/>
	<circle class="st8" cx="13.1" cy="75.8" r="3.2"/>
	<circle class="st8" cx="51" cy="50.2" r="3"/>
	<line class="st17" x1="49" y1="49.2" x2="53.3" y2="45.6"/>
	<polygon class="st13" points="14.9,51.8 20.5,51.7 20.8,56.6 18.5,57.9 15.4,57 	"/>
	<path class="st18" d="M16.3,44c0,0,0,3.5,4.3,3.3c0,0,3.1,0,3-3.4"/>
</g>
</svg>
