<?xml version="1.0" encoding="utf-8"?>
<!-- Generator: Adobe Illustrator 22.1.0, SVG Export Plug-In . SVG Version: 6.00 Build 0)  -->
<svg version="1.1" id="Layer_1" xmlns="http://www.w3.org/2000/svg" xmlns:xlink="http://www.w3.org/1999/xlink" x="0px" y="0px"
	 viewBox="0 0 190 210.5" style="enable-background:new 0 0 190 210.5;" xml:space="preserve">
<style type="text/css">
	.st0{fill:#C0D0D8;}
	.st1{fill:#EFF4F4;}
	.st2{fill:#808791;}
	.st3{fill:#C7D8E2;}
	.st4{fill:#DCE8EF;}
	.st5{fill:#F0F7F7;}
	.st6{fill:#CEE8EF;}
	.st7{fill:#B2CAD3;}
	.st8{fill:#799DD3;}
	.st9{opacity:0.3;fill:#FFFFFF;enable-background:new    ;}
	.st10{fill:#CAD3DB;}
	.st11{fill:#D8E1EA;}
	.st12{fill:#ED9558;}
	.st13{fill:#FFFFFF;}
	.st14{fill:#C97841;}
	.st15{fill:#5C81B7;}
	.st16{fill:#A5BDD6;}
	.st17{fill:#C4CBD6;}
	.st18{fill:#6F7475;}
	.st19{fill:#8A9596;}
	.st20{fill:#FFC197;}
	.st21{fill:#B5B5B5;}
	.st22{fill:#F0F6F7;}
	.st23{fill:#C8CDCE;}
	.st24{fill:#E2E2E2;}
	.st25{fill:#D6DDEA;}
	.st26{fill:#ED8C62;}
	.st27{fill:#FFAF84;}
	.st28{fill:#E8E8E8;}
	.st29{fill:#3962A8;}
	.st30{fill:#2D548C;}
	.st31{fill:#658BC1;}
	.st32{fill:#C8D6DB;}
	.st33{fill:#82AACE;}
	.st34{fill:#4E7CAF;}
	.st35{fill:#424344;}
</style>
<g>
	<g>
		<g>
			<g>
				<g>
					<circle class="st0" cx="69.8" cy="15.9" r="15.9"/>
					<path class="st1" d="M84.4,15.9c0,4.8-2.3,9.1-6,11.8c-1.1,0.8-2.3,1.4-3.5,1.9c-0.6,0.2-1.2,0.4-1.8,0.5
						c-0.4,0.1-0.7,0.2-1.1,0.2c-0.7,0.1-1.5,0.2-2.3,0.2c-1.5,0-3-0.2-4.3-0.7c-6-1.9-10.3-7.4-10.3-14c0-2.3,0.5-4.4,1.5-6.4
						C57.7,7,59.5,5,61.7,3.6c0.5-0.3,1-0.6,1.6-0.9c1.2-0.6,2.5-1,3.8-1.3c0.9-0.2,1.8-0.2,2.7-0.2c6.2,0,11.5,3.9,13.6,9.3
						C84.1,12.3,84.4,14.1,84.4,15.9z"/>
					<path class="st2" d="M69.8,16.7c-0.2,0-0.4-0.1-0.6-0.3l-4.8-6c-0.3-0.3-0.2-0.8,0.1-1c0.3-0.3,0.8-0.2,1,0.1l4.8,6
						c0.3,0.3,0.2,0.8-0.1,1C70.1,16.6,69.9,16.7,69.8,16.7z"/>
					<circle class="st0" cx="69.8" cy="15.9" r="2.9"/>
					<path class="st0" d="M62.4,25.2c-0.2,0-0.3-0.1-0.5-0.2c-0.3-0.3-0.3-0.7-0.1-1l7.4-8.5c0.3-0.3,0.7-0.3,1-0.1
						c0.3,0.3,0.3,0.7,0.1,1l-7.4,8.5C62.8,25.1,62.6,25.2,62.4,25.2z"/>
				</g>
				<g>
					<path class="st3" d="M187.7,38l-26.3,76.5c-0.4,1.3-1.8,2-3.1,1.5l-42.8-14.7c-1.3-0.4-2-1.8-1.5-3.1l26.3-76.5
						c0.4-1.3,1.9-2,3.1-1.5l42.8,14.7C187.5,35.3,188.2,36.7,187.7,38z"/>
					<path class="st4" d="M189.7,38.6l-26.3,76.5c-0.4,1.3-1.8,2-3.1,1.5l-42.8-14.7c-1.3-0.4-2-1.8-1.5-3.1l26.3-76.5
						c0.4-1.3,1.9-2,3.1-1.5l42.7,14.7C189.4,35.9,190.1,37.3,189.7,38.6z"/>
					<path class="st5" d="M184.2,40.4l-10,29.1l0,0l-8.1,23.7l0,0l-3.7,10.8l-0.9,2.5c-0.2,0.7-1,1.1-1.7,0.8l-20.4-7l-15.8-5.4
						c-0.7-0.2-1.1-1-0.8-1.7l9.7-28.2l13-37.9c0.2-0.7,0.9-1,1.6-0.9h0.1l6.2,2.1l13.8,4.7l16.3,5.6
						C184.1,38.9,184.5,39.7,184.2,40.4z"/>
					<g>
						<path class="st3" d="M139.5,107.3L139.5,107.3c-1.2-0.4-1.9-1.7-1.4-3l0,0c0.4-1.2,1.7-1.9,3-1.4l0,0c1.2,0.4,1.9,1.7,1.4,3
							l0,0C142,107.1,140.7,107.7,139.5,107.3z"/>
					</g>
					<g>
						<path class="st3" d="M150,25.8L150,25.8c-0.5-0.2-0.8-0.7-0.6-1.2l0,0c0.2-0.5,0.7-0.8,1.2-0.6l0,0c0.5,0.2,0.8,0.7,0.6,1.2
							l0,0C151,25.7,150.5,26,150,25.8z"/>
					</g>
					<path class="st6" d="M158.6,89.5l-1.1-0.4l1.6-4.6c0.7-2.2,0.6-4.5-0.4-6.5l-2.9-5.9c-0.9-1.9-0.1-4.2,1.7-5.1l5.9-2.9
						c2-1,3.6-2.7,4.3-4.9l1.6-4.6l1.1,0.4l-1.6,4.6c-0.8,2.4-2.6,4.4-4.9,5.5L158,68c-1.3,0.6-1.9,2.3-1.2,3.6l2.9,5.9
						c1.1,2.3,1.3,4.9,0.5,7.4L158.6,89.5z"/>
					<path class="st6" d="M136.5,81.9l-1.1-0.4l1.6-4.6c0.8-2.4,2.6-4.4,4.9-5.5l5.9-2.9c1.3-0.6,1.9-2.3,1.2-3.6l-2.9-5.9
						c-1.1-2.3-1.3-4.9-0.5-7.4l1.6-4.6l1.1,0.4l-1.6,4.6c-0.7,2.2-0.6,4.5,0.4,6.5l2.9,5.9c0.9,1.9,0.1,4.2-1.7,5.1l-5.9,2.9
						c-2,1-3.6,2.7-4.3,4.9L136.5,81.9z"/>
					<path class="st7" d="M170.6,56.2c-0.1,0-0.2,0-0.4-0.1L146.8,48c-0.6-0.2-0.9-0.8-0.7-1.4c0.2-0.6,0.8-0.9,1.4-0.7l23.4,8.1
						c0.6,0.2,0.9,0.8,0.7,1.4C171.5,55.9,171,56.2,170.6,56.2z"/>
					<path class="st7" d="M158.7,90.7c-0.1,0-0.2,0-0.4-0.1l-23.4-8.1c-0.6-0.2-0.9-0.8-0.7-1.4s0.8-0.9,1.4-0.7l23.4,8.1
						c0.6,0.2,0.9,0.8,0.7,1.4C159.6,90.4,159.2,90.7,158.7,90.7z"/>
					<path class="st8" d="M149,56.3l4.4,8.9c0.2,0.4,0.7,0.6,1.1,0.4l8.9-4.4c0.7-0.3,0.6-1.3-0.1-1.5L150,55.1
						C149.3,54.9,148.7,55.6,149,56.3z"/>
					<path class="st8" d="M145,80.3l3.8-1.9c0.4-0.2,0.9,0,1.1,0.4l1.9,3.8c0.3,0.7-0.3,1.4-1,1.2l-5.7-2
						C144.4,81.6,144.3,80.6,145,80.3z"/>
					<ellipse class="st8" cx="150.3" cy="75.7" rx="0.9" ry="0.9"/>
					<ellipse class="st8" cx="151.7" cy="72" rx="0.9" ry="0.9"/>
					<ellipse class="st8" cx="153" cy="68.3" rx="0.9" ry="0.9"/>
					<path class="st9" d="M162.3,104l-0.9,2.5c-0.2,0.7-1,1.1-1.7,0.8l-20.4-7l-7-35.4l13-37.9c0.2-0.7,0.9-1,1.6-0.9L162.3,104z"/>
					<polygon class="st9" points="174.2,69.5 174.2,69.5 166.1,93.2 153.3,28.4 167,33.1 					"/>
				</g>
				<g>
					<path class="st10" d="M183.6,105.9l2.2,22.3c0.1,1.2-0.8,2.3-2,2.4l-30.6,3c-1.2,0.1-2.3-0.8-2.4-2l-2.2-22.3
						c-0.1-1.2,0.8-2.3,2-2.4l30.6-3C182.4,103.8,183.5,104.7,183.6,105.9z"/>
					<path class="st11" d="M184.1,102.1l3.6,22.1c0.2,1.2-0.6,2.3-1.8,2.5l-30.3,4.9c-1.2,0.2-2.3-0.6-2.5-1.8l-3.6-22.1
						c-0.2-1.2,0.6-2.3,1.8-2.5l30.3-4.9C182.8,100.1,183.9,100.9,184.1,102.1z"/>
					<path class="st12" d="M184.1,102.1l0.8,4.9l-34.7,5.6l-0.8-4.9c-0.2-1.2,0.6-2.3,1.8-2.5l30.3-4.9
						C182.8,100.1,183.9,100.9,184.1,102.1z"/>
					
						<rect x="150.1" y="109.8" transform="matrix(0.9872 -0.1597 0.1597 0.9872 -15.5127 28.1926)" class="st13" width="35.1" height="1.6"/>
					
						<ellipse transform="matrix(0.9872 -0.1597 0.1597 0.9872 -15.0498 26.5419)" class="st14" cx="157.6" cy="106.9" rx="2.6" ry="2.6"/>
					
						<ellipse transform="matrix(0.9872 -0.1597 0.1597 0.9872 -14.3346 29.4413)" class="st14" cx="176" cy="103.9" rx="2.6" ry="2.6"/>
					<g>
						<path class="st15" d="M157.6,108.7c-0.9,0-1.6-0.6-1.8-1.5l-0.6-3.8c-0.2-1,0.5-1.9,1.5-2.1s1.9,0.5,2.1,1.5l0.6,3.8
							c0.2,1-0.5,1.9-1.5,2.1C157.8,108.7,157.7,108.7,157.6,108.7z"/>
						<path class="st15" d="M176,105.7c-0.9,0-1.6-0.6-1.8-1.5l-0.6-3.8c-0.2-1,0.5-1.9,1.5-2.1s1.9,0.5,2.1,1.5l0.6,3.8
							c0.2,1-0.5,1.9-1.5,2.1C176.2,105.7,176.1,105.7,176,105.7z"/>
					</g>
					
						<rect x="155.1" y="116" transform="matrix(0.9871 -0.1598 0.1598 0.9871 -16.7548 26.5653)" class="st16" width="3.4" height="2.9"/>
					
						<rect x="178.4" y="112.3" transform="matrix(0.9872 -0.1598 0.1598 0.9872 -15.8626 30.2431)" class="st16" width="3.4" height="2.9"/>
					
						<rect x="172.6" y="113.2" transform="matrix(0.9872 -0.1598 0.1598 0.9872 -16.0804 29.3268)" class="st16" width="3.4" height="2.9"/>
					
						<rect x="166.8" y="114.1" transform="matrix(0.9872 -0.1598 0.1598 0.9872 -16.2984 28.4103)" class="st16" width="3.4" height="2.9"/>
					
						<rect x="161" y="115.1" transform="matrix(0.9872 -0.1598 0.1598 0.9872 -16.532 27.4977)" class="st16" width="3.4" height="2.9"/>
					
						<rect x="155.9" y="120.7" transform="matrix(0.9872 -0.1598 0.1598 0.9872 -17.4931 26.755)" class="st16" width="3.4" height="2.9"/>
					
						<rect x="179.2" y="116.9" transform="matrix(0.9872 -0.1598 0.1598 0.9872 -16.5864 30.4286)" class="st16" width="3.4" height="2.9"/>
					
						<rect x="173.4" y="117.9" transform="matrix(0.9871 -0.1598 0.1598 0.9871 -16.8212 29.5155)" class="st16" width="3.4" height="2.9"/>
					
						<rect x="167.5" y="118.8" transform="matrix(0.9872 -0.1598 0.1598 0.9872 -17.0416 28.584)" class="st16" width="3.4" height="2.9"/>
					
						<rect x="161.7" y="119.7" transform="matrix(0.9872 -0.1598 0.1598 0.9872 -17.2597 27.6675)" class="st16" width="3.4" height="2.9"/>
					
						<rect x="156.6" y="125.3" transform="matrix(0.9872 -0.1598 0.1598 0.9872 -18.2208 26.9247)" class="st16" width="3.4" height="2.9"/>
					
						<rect x="179.9" y="121.6" transform="matrix(0.9872 -0.1598 0.1598 0.9872 -17.3295 30.6023)" class="st16" width="3.4" height="2.9"/>
					
						<rect x="174.1" y="122.5" transform="matrix(0.9872 -0.1598 0.1598 0.9872 -17.5476 29.6858)" class="st16" width="3.4" height="2.9"/>
					
						<rect x="168.3" y="123.5" transform="matrix(0.9872 -0.1598 0.1598 0.9872 -17.7811 28.7732)" class="st16" width="3.4" height="2.9"/>
					
						<rect x="162.5" y="124.4" transform="matrix(0.9872 -0.1598 0.1598 0.9872 -17.9989 27.8568)" class="st16" width="3.4" height="2.9"/>
				</g>
				<circle class="st17" cx="12.7" cy="90.1" r="7"/>
				<path class="st17" d="M44.2,50.8c-2.1,0-3.8-1.7-3.8-3.8s1.7-3.8,3.8-3.8S48,44.9,48,47C48.1,49.1,46.3,50.8,44.2,50.8z
					 M44.2,45.2c-1,0-1.8,0.8-1.8,1.8s0.8,1.8,1.8,1.8S46,48,46,47C46.1,46,45.2,45.2,44.2,45.2z"/>
				<g>
					<path class="st18" d="M18.4,51.4l-9.2,18c-0.5,1-0.1,2.2,0.9,2.7l34.7,17.7c1,0.5,2.2,0.1,2.7-0.9l9.2-18
						c0.3-0.5,0.3-1.1,0.1-1.6s-0.5-0.9-1-1.1L21.1,50.5c-0.5-0.2-1-0.3-1.5-0.2C19.1,50.5,18.6,50.9,18.4,51.4z"/>
					<path class="st19" d="M19.6,50.4l8.7,19.1c1.4,3,4.6,4.7,7.8,4l20.6-4.2c-0.2-0.5-0.5-0.9-1-1.1L21.1,50.5
						C20.6,50.3,20.1,50.2,19.6,50.4z"/>
				</g>
				<g>
					<path class="st12" d="M42.1,38.9l5.5,13c0.3,0.7,1.1,1.1,1.9,0.7l25-10.6c0.7-0.3,1.1-1.1,0.7-1.9l-5.5-13
						c-0.2-0.4-0.5-0.7-0.8-0.8c-0.3-0.1-0.7-0.1-1,0l-25,10.6c-0.3,0.1-0.6,0.4-0.7,0.7C41.9,38.1,41.9,38.5,42.1,38.9z"/>
					<path class="st20" d="M42.1,37.8l14.1,3.9c2.2,0.6,4.6-0.4,5.6-2.4l7-12.9c-0.3-0.1-0.7-0.1-1,0L42.8,37
						C42.5,37.2,42.2,37.5,42.1,37.8z"/>
				</g>
				<path class="st21" d="M63.7,61h-1.3v1.3c0,0.6-0.5,1.1-1.1,1.1s-1.1-0.5-1.1-1.1V61H59c-0.6,0-1.1-0.5-1.1-1.1s0.5-1.1,1.1-1.1
					h1.3v-1.3c0-0.6,0.5-1.1,1.1-1.1s1.1,0.5,1.1,1.1v1.3h1.3c0.6,0,1.1,0.5,1.1,1.1C64.8,60.5,64.3,61,63.7,61z"/>
			</g>
			<path class="st22" d="M17,191.9c-9.6,0-17.4-7.8-17.4-17.5s7.8-17.5,17.4-17.5s17.5,7.8,17.5,17.5S26.6,191.9,17,191.9z
				 M17,163.9c-5.8,0-10.4,4.7-10.4,10.5s4.7,10.5,10.4,10.5c5.8,0,10.5-4.7,10.5-10.5C27.4,168.6,22.7,163.9,17,163.9z"/>
		</g>
		<path class="st23" d="M3.7,138.9c-0.3,0-0.5-0.2-0.5-0.5c0-5.1,0.6-10.2,1.7-15.2c1.5-6.7,4-13.1,7.3-19.1
			c0.1-0.2,0.4-0.3,0.7-0.2c0.2,0.1,0.3,0.4,0.2,0.7c-3.3,5.9-5.8,12.2-7.2,18.9c-1.1,4.9-1.6,9.9-1.6,15
			C4.2,138.7,4,138.9,3.7,138.9z"/>
		<path class="st23" d="M6,156.6c-0.2,0-0.4-0.1-0.5-0.4c-0.5-2-1-4-1.3-6.1c0-0.3,0.1-0.5,0.4-0.6c0.3,0,0.5,0.1,0.6,0.4
			c0.3,2,0.8,4,1.3,6c0.1,0.3-0.1,0.5-0.4,0.6C6.1,156.6,6.1,156.6,6,156.6z"/>
		<g>
			<circle class="st23" cx="73.1" cy="138.4" r="64.7"/>
			<path class="st21" d="M131.5,138.4c0,19.3-9.4,36.5-23.8,47.1c-4.3,3.2-9.1,5.8-14.1,7.7c-2.3,0.9-4.6,1.6-7,2.1
				c-4.3,1-8.8,1.6-13.5,1.6c-6,0-11.9-0.9-17.4-2.6c-23.8-7.4-41.1-29.6-41.1-55.8c0-9.1,2.1-17.8,5.8-25.4
				c4.6-9.6,11.7-17.6,20.3-23.4c2-1.4,4.1-2.6,6.4-3.7c4.7-2.4,9.9-4.1,15.2-5.1c3.5-0.6,7.1-1,10.8-1
				C105.3,79.9,131.5,106.1,131.5,138.4z"/>
			<path class="st1" d="M130,138.4c0,18.8-9.1,35.5-23.2,45.9c-4.2,3.1-8.8,5.6-13.8,7.5c-2.2,0.8-4.5,1.5-6.8,2.1
				c-4.2,1-8.6,1.5-13.1,1.5c-5.9,0-11.6-0.9-16.9-2.6c-23.2-7.2-40-28.8-40-54.4c0-8.9,2-17.3,5.7-24.8c4.4-9.2,11.3-17,19.7-22.6
				c2-1.3,4-2.5,6.2-3.6c4.6-2.3,9.6-4,14.8-5c3.4-0.6,6.9-1,10.5-1C104.5,81.5,130,107,130,138.4z"/>
			<path class="st13" d="M86.2,193.8c-4.2,1-8.6,1.5-13.1,1.5c-5.9,0-11.6-0.9-16.9-2.6l-34.3-79.1c4.4-9.2,11.3-17,19.7-22.6
				L86.2,193.8z"/>
			<path class="st13" d="M106.8,184.2c-4.2,3.1-8.8,5.6-13.8,7.5L47.8,87.4c4.6-2.3,9.6-4,14.8-5L106.8,184.2z"/>
			<path class="st12" d="M73.1,141.4c-1.1,0-2.1-0.6-2.7-1.6c-0.8-1.5-0.2-3.3,1.3-4l30.6-16c1.5-0.8,3.3-0.2,4,1.3
				c0.8,1.5,0.2,3.3-1.3,4l-30.6,16C74,141.3,73.5,141.4,73.1,141.4z"/>
			<circle class="st18" cx="73.1" cy="138.4" r="11.7"/>
			<path class="st18" d="M73.1,141.4c-1,0-2-0.5-2.6-1.4l-24.1-39c-0.9-1.4-0.4-3.3,1-4.1c1.4-0.9,3.3-0.4,4.1,1l24.1,39
				c0.9,1.4,0.4,3.3-1,4.1C74.2,141.2,73.6,141.4,73.1,141.4z"/>
		</g>
		<path class="st23" d="M137.8,138.4c0,21.4-10.3,40.3-26.3,52.1L82.7,77.1c-0.2-0.9-0.3-1.9-0.3-2.8l0,0
			C113.7,78.8,137.8,105.8,137.8,138.4z"/>
		<path class="st24" d="M46.1,206.3h54c0.9,0,1.6-0.7,1.6-1.6l0,0c0-0.9-0.7-1.6-1.6-1.6h-54c-0.9,0-1.6,0.7-1.6,1.6l0,0
			C44.5,205.6,45.2,206.3,46.1,206.3z"/>
	</g>
	<g>
		<path class="st24" d="M122,208.6h28.6c0.9,0,1.6-0.7,1.6-1.6l0,0c0-0.9-0.7-1.6-1.6-1.6H122c-0.9,0-1.6,0.7-1.6,1.6l0,0
			C120.4,207.9,121.1,208.6,122,208.6z"/>
		<g>
			<g>
				<polygon class="st25" points="131.4,201.9 130.1,193.6 133.8,192.5 134.4,201.3 				"/>
				<path class="st12" d="M134.6,200.4c0.2,0,0.5,0.1,0.7,0.3c1.3,1.1,5.3,3.1,7.4,3.4c2.2,0.3,2.3,1.4-0.8,1.4s-5.4-0.3-6.8-0.2
					c-1.4,0-1,0.2-4.4,0.2c-2.6,0-1.8-3.3-0.9-4.9c0.3-0.5,0.7-0.7,1.2-0.7L134.6,200.4z"/>
			</g>
			<g>
				<polygon class="st25" points="119.4,194.2 124.6,187.6 128,189.6 121.9,196 				"/>
				<path class="st12" d="M122.7,195.5c0.1,0.2,0.2,0.4,0.2,0.7c0.1,1.7,1.4,6.1,2.9,7.5c1.6,1.4,0.6,1.8-2,0.6
					c-2.8-1.3-3.4-4.2-4.4-5.1c-1-1-0.9-0.6-3.2-3.1c-1.8-1.9,1.2-3.6,3-3.9c0.5-0.1,1,0,1.3,0.5L122.7,195.5z"/>
			</g>
			<g>
				<g>
					<path class="st26" d="M117.1,54.3c0,0-1,6.8,1,9.9s2.3,3.6,2.3,3.6"/>
					<path class="st27" d="M122.1,70.9c-0.6,0.3-1.2,0.5-1.8,0.5c-1.2,0-2.4-0.6-3-1.7c0,0-0.4-0.6-2.2-3.5c-1.3-2-1.7-4.8-1.8-7.2
						c-0.1-2.4,0.2-4.4,0.3-5.1c0.3-1.9,2.1-3.3,4-3s3.3,2.1,3,4c-0.2,1-0.2,2.2-0.2,3.3s0.1,2.2,0.3,3.1c0.1,0.5,0.2,0.9,0.4,1.1
						c2,3.2,2.3,3.7,2.3,3.7C124.4,67.7,123.8,69.9,122.1,70.9z"/>
				</g>
				<path class="st28" d="M109.1,109.8c0.7-10.1-2.7-35.3-4.4-45.3c-0.3-1.5,0.9-2.9,2.5-2.9H128c1.1,0,2.1,0.8,2.4,1.8
					c2.4,9.1,3.9,46.4,3.9,46.4H109.1z"/>
				<path class="st27" d="M143.5,88.7c-0.4-1.9-2.7-6.8-5.3-11.9c-2.8-5.4-5.9-11.1-7.3-13.6c-0.8-1.4-2.6-2-4.1-1.2
					c-1.4,0.8-2,2.6-1.2,4.1c2.2,4,4.5,8.2,6.4,12c2.2,4.3,4.4,7,5.3,9.1c-1.6,1.4-5.6,1.5-8.8,1.3c-0.9-0.1-4.3-0.3-6.5,1.7
					c-0.9,0.8-1.9,2.3-1.8,4.6c0.1,1.6,0.3,2.3,1.7,3c0.6,0.3,1.4,0.4,2,0.3c1.6-0.2,1.8-1.1,1.8-3c0-1.3,0.7-2.7,0.7-2.7
					s4.8,1.2,8.9,1.7c4,0.5,5.7-0.3,7.2-2C143.4,91.1,143.7,89.9,143.5,88.7z"/>
				<path class="st29" d="M110.2,126.1c0,0-3.1-5.6-1.1-16.4h25.1c0,0,0.4,8.2-0.2,16.4H110.2z"/>
				<path class="st26" d="M138.2,76.8l-2.9,0.6l-3.2,0.6c-2-3.8-4.2-8-6.4-12c-0.8-1.4-0.3-3.3,1.2-4.1c1.4-0.8,3.3-0.3,4.1,1.2
					C132.3,65.7,135.4,71.4,138.2,76.8z"/>
				<path class="st27" d="M109.9,63.9c-0.4-1.6-2-2.6-3.6-2.2c-7.2,1.8-12.3,3.4-15.7,4.9c-8,3.4-7.9,5.9-7.9,7.2
					c0,1.5,0.3,4.3,17.6,10.6c0,0.5-0.5,2.5-0.9,3.1c-0.8,1.5,0,2.8,0.9,4.2c0.3,0.5,1,1.1,1.8,1.1c1.1,0,2.4-1.3,2.6-2.5
					c0.7-4,0.5-6.4,0.3-6.9l0,0l0,0c0,0,0-0.1-0.1-0.1c-0.1-0.1-0.1-0.3-0.2-0.4s-0.1-0.1-0.2-0.2s-0.1-0.2-0.2-0.2
					c-0.1-0.1-0.2-0.2-0.4-0.3c0,0,0,0-0.1-0.1c-0.2-0.1-0.4-0.2-0.7-0.3c-5.9-2.4-11.3-6.3-13.7-8c0.8-0.5,2-1,3.5-1.6
					c3.7-1.5,9.1-3.2,14.7-4.6C109.3,67.1,110.3,65.5,109.9,63.9z"/>
				<path class="st28" d="M138.7,75.5l-4,0.8l-3.1,0.6l0,0l-2.7,0.5c-3.4-6.7-4.2-8.3-4.4-10.6c-0.1-2.6,0.6-3.9,2.2-4.8
					c1.7-0.9,3.8-0.3,4.8,1.4C131.5,63.4,135.2,68.6,138.7,75.5z"/>
				<path class="st29" d="M149.6,159.4c-0.4,2.5-1.7,5.1-3.6,8.4c-3.1,5.5-7.9,11.5-12.2,16.6c-3,3.5-5.8,6.6-7.5,8.7
					c-0.8,0.9-1.4,1.6-1.7,2.1l-3.6-4.7c1.3-1.9,2.5-4.4,4.1-6.7c0-0.1,0.1-0.1,0.1-0.2c2.9-4.4,6-9.3,8.5-13.8
					c0.1-0.1,0.2-0.3,0.3-0.4c2.6-4.7,4.6-8.9,5-11.4c0.7-4.4-5.9-18-12.4-30.1c-0.7-1.4-1.5-2.7-2.2-4.1c-0.2-0.5-0.4-1-0.4-1.5
					c-0.2-2.2,1.4-4.8,3.4-5.9c2.4-1.3,5.6-2,6.9,0.4C137,121.9,151.2,148.7,149.6,159.4z"/>
				<path class="st30" d="M133.8,184.3c-3,3.5-5.8,6.6-7.5,8.7c-0.3-2.5-0.6-5.1-0.9-7.8c-0.1-0.5-0.1-1-0.2-1.6
					c2.9-4.4,6-9.3,8.5-13.8C133.8,174.3,133.8,179.4,133.8,184.3z"/>
				<path class="st29" d="M133.1,160.8c-1.2-10.1-9.7-37.1-11-40.1c-1.1-2.5-7.2-3.1-9.8-2c-2.5,1.1-3.7,4.1-2.6,6.6
					c3.4,7.7,13,28.4,14,35.7c0.6,4.4,1.3,13.2,2.7,20.6c1,5.2,1.9,10.3,2.7,14c0.6,3.2,0.6,2.6,0.7,2.9l6-0.9
					C135.9,197.7,134.6,172.6,133.1,160.8z"/>
				<path class="st26" d="M107.7,67.5c-5.6,1.4-11,3.1-14.7,4.6l-2.4-5.5c3.5-1.5,8.5-3.1,15.7-4.9c1.6-0.4,3.2,0.6,3.6,2.2
					C110.3,65.5,109.3,67.1,107.7,67.5z"/>
				<path class="st28" d="M106.3,61.6c1.9-0.3,3.3,0.6,3.8,2.5s-0.8,3.3-2.4,4.3c-2.1,1.2-2.7,1.4-11.4,4.4l-4.8-6.7
					C102.5,61.9,103.1,62.1,106.3,61.6z"/>
				<path class="st26" d="M120.7,61.2c-0.2,0-0.3,0-0.5,0c-2.6,0-5-0.9-6.8-2.3c-0.1-2.4,0.2-4.4,0.3-5.1c0.3-1.9,2.1-3.3,4-3
					s3.3,2.1,3,4c-0.2,1-0.2,2.2-0.2,3.3C120.4,59.3,120.5,60.4,120.7,61.2z"/>
				<path class="st27" d="M130.7,48.7c-1.4,6.5-5,11.2-11.2,11.2s-10.1-4.7-11.2-11.2c-1-6.1,5.1-12.1,11.3-12.1
					C125.7,36.6,132,42.6,130.7,48.7z"/>
				<path class="st31" d="M131.5,198.7v-0.2c-1.7-10.5-4.3-26.4-5.6-36.4c-0.9-7.3-10-28.9-13.3-36.6c0-0.1,0-0.1-0.1-0.2v-0.1
					c-0.5-1.5-2.2-7-0.6-15.7l0.5,0.1c-1.6,8.6,0.1,14,0.6,15.4v0.1v0.1c3.4,7.7,12.4,29.4,13.4,36.8c1.3,10,3.9,25.9,5.6,36.4v0.2
					L131.5,198.7z"/>
			</g>
			<path class="st32" d="M123.4,61.5c0,1.5-0.6,4.1-4.6,4.1c-2.9,0-6.5-1.2-7.9-3.6l-0.3-0.5H123.4z"/>
			<path class="st27" d="M111.8,61.5c1.1,1.9,4.2,3.1,7,3.1s3.6-1.4,3.6-3.1H111.8z"/>
			<g>
				<path class="st33" d="M127,92.9c0,0,0.2-1.7-1.6-4.2l1.6-1c2.1,3.1,1.9,5.3,1.9,5.5L127,92.9z"/>
				<path class="st34" d="M125.7,87.7c0.9-0.4,2.2-0.2,2.8,0.5s0.3,1.6-0.6,2s-2.2,0.2-2.8-0.5C124.4,89.1,124.7,88.2,125.7,87.7z"
					/>
			</g>
			<path class="st35" d="M130.4,40.4c-3.4-5.5-11.7-5.9-13.4-5.8c-0.9,0-2.7,0.5-3.5,1.8c-0.1-0.9,0-1.7,0-1.7
				c-0.7,0.9-0.9,1.7-0.7,2.2c-0.5-0.7-0.9-1.4-0.9-1.4c-0.1,1,0.1,1.5,0.5,1.8c-2.3,0.5-5.2,3.8-4.2,10.4c0.4,2.9,6.9,0.7,8.8-2.2
				c1.2,2,3.7,2.4,3.7,2.4c-0.9-0.9-1.6-2.1-2.2-3.4c3.5,2.1,8.1,4.4,8.6,5.8c0,0,1-2.3,0.2-3.7c0,0,2.8,0.7,3.1,3.4
				C130.5,50,134,46.2,130.4,40.4z"/>
			
				<rect x="123.1" y="109.4" transform="matrix(0.9872 -0.1595 0.1595 0.9872 -17.2431 21.1843)" class="st31" width="0.5" height="17.2"/>
			<path class="st31" d="M124.2,123.3l-0.1-0.5c0,0,1.1-0.2,1.6-1c0.3-0.5,0.4-1,0.3-1.7l-1.7-10.8l0.5-0.1l1.7,10.8
				c0.1,0.8,0,1.6-0.4,2.1C125.5,123.1,124.3,123.3,124.2,123.3z"/>
			<path class="st27" d="M107.8,48c-0.5,1.1-0.4,2.3,0,3.3c0.6,1.2,2.3,1.1,2.8-0.1l1.5-3.2c0.5-1.2-0.6-2.5-1.8-2.2
				C109.2,46.2,108.3,46.9,107.8,48z"/>
		</g>
	</g>
</g>
</svg>
