<?xml version="1.0" encoding="UTF-8"?><!DOCTYPE svg PUBLIC "-//W3C//DTD SVG 1.1//EN" "http://www.w3.org/Graphics/SVG/1.1/DTD/svg11.dtd"><svg xmlns="http://www.w3.org/2000/svg"><symbol id="icon-arrow" viewBox="0 0 129 129">
    <path d="M40.4 121.3c-.8.8-1.8 1.2-2.9 1.2s-2.1-.4-2.9-1.2c-1.6-1.6-1.6-4.2 0-5.8l51-51-51-51c-1.6-1.6-1.6-4.2 0-5.8 1.6-1.6 4.2-1.6 5.8 0l53.9 53.9c1.6 1.6 1.6 4.2 0 5.8l-53.9 53.9z"/>
</symbol><symbol id="icon-businessman-check" viewBox="0 0 512 512">
    <path d="M384 0c-42.351 0-76.8 34.449-76.8 76.8s34.449 76.8 76.8 76.8 76.8-34.449 76.8-76.8S426.351 0 384 0zm0 128c-28.271 0-51.2-22.921-51.2-51.2s22.929-51.2 51.2-51.2c28.279 0 51.2 22.921 51.2 51.2S412.279 128 384 128z"/>
    <path d="M299.87 396.279c-.708-.102-1.374-.367-2.074-.495-20.275 52.89-71.45 90.615-131.396 90.615-77.636 0-140.8-63.164-140.8-140.8s63.164-140.8 140.8-140.8c42.078 0 79.804 18.654 105.626 48.009l5.589-30.729C248.132 195.516 209.22 179.2 166.4 179.2 74.496 179.2 0 253.696 0 345.6S74.496 512 166.4 512c56.815 0 106.923-28.518 136.943-71.979l-3.473-43.742z"/>
    <path d="M486.4 325.12h-3.302L460.39 200.226c-2.219-12.177-12.817-21.026-25.19-21.026H332.8c-12.365 0-22.972 8.849-25.19 21.026l-25.6 140.8a25.604 25.604 0 0 0 5.53 20.983 25.64 25.64 0 0 0 19.661 9.19h16.358l9.327 117.231C333.943 501.734 345.054 512 358.4 512h51.2c13.355 0 24.465-10.266 25.515-23.569l4.241-53.231H486.4c14.14 0 25.6-11.46 25.6-25.6v-58.88c0-14.14-11.46-25.6-25.6-25.6zM409.6 486.4h-51.2l-11.204-140.8H307.2l25.6-140.8h38.4v77.875c0 7.074 5.726 12.8 12.8 12.8 7.074 0 12.8-5.726 12.8-12.8V204.8h38.4l21.871 120.32H404.48c-14.14 0-25.6 11.46-25.6 25.6v58.88c0 14.14 11.46 25.6 25.6 25.6h9.19l-4.07 51.2zm76.8-76.8h-81.92v-58.88h81.92v58.88z"/>
    <path d="M263.851 297.097c-5.547-4.369-13.602-3.345-17.954 2.253L166.4 401.553 86.903 299.349c-4.352-5.598-12.424-6.622-17.954-2.253-5.598 4.326-6.596 12.373-2.253 17.954l89.6 115.2a12.8 12.8 0 0 0 10.103 4.949 12.8 12.8 0 0 0 10.103-4.949l89.6-115.2c4.354-5.572 3.355-13.627-2.251-17.953z"/>
</symbol><symbol id="icon-businessman-time" viewBox="0 0 512 512">
    <path d="M384 0c-42.351 0-76.8 34.449-76.8 76.8s34.449 76.8 76.8 76.8 76.8-34.449 76.8-76.8S426.351 0 384 0zm0 128c-28.271 0-51.2-22.921-51.2-51.2s22.929-51.2 51.2-51.2c28.279 0 51.2 22.921 51.2 51.2S412.279 128 384 128z"/>
    <path d="M307.354 490.479l-1.485-18.662c-23.39 9.31-48.802 14.583-75.469 14.583-112.93 0-204.8-91.87-204.8-204.8S117.47 76.8 230.4 76.8c17.954 0 35.294 2.56 51.9 6.921-.162-2.33-.7-4.548-.7-6.921 0-6.579.751-12.962 1.937-19.191-17.084-4.045-34.816-6.409-53.137-6.409C103.151 51.2 0 154.351 0 281.6S103.151 512 230.4 512c27.537 0 53.828-5.077 78.31-13.943-.588-2.484-1.143-4.975-1.356-7.578z"/>
    <path d="M486.4 325.12h-3.302L460.39 200.226c-2.219-12.177-12.817-21.026-25.19-21.026H332.8c-12.365 0-22.972 8.849-25.19 21.026l-25.6 140.8a25.604 25.604 0 0 0 5.53 20.983 25.64 25.64 0 0 0 19.661 9.19h16.358l9.327 117.231C333.943 501.734 345.054 512 358.4 512h51.2c13.355 0 24.465-10.266 25.515-23.569l4.241-53.231H486.4c14.14 0 25.6-11.46 25.6-25.6v-58.88c0-14.14-11.46-25.6-25.6-25.6zM409.6 486.4h-51.2l-11.204-140.8H307.2l25.6-140.8h38.4v77.875c0 7.074 5.726 12.8 12.8 12.8 7.074 0 12.8-5.726 12.8-12.8V204.8h38.4l21.871 120.32H404.48c-14.14 0-25.6 11.46-25.6 25.6v58.88c0 14.14 11.46 25.6 25.6 25.6h9.19l-4.07 51.2zm76.8-76.8h-81.92v-58.88h81.92v58.88z"/>
    <path d="M243.2 245.547V102.4h-25.6v143.147a38.304 38.304 0 0 0-23.253 23.253H102.4v25.6h91.947c5.29 14.882 19.353 25.6 36.053 25.6 21.205 0 38.4-17.195 38.4-38.4 0-16.691-10.718-30.763-25.6-36.053zM230.4 294.4c-7.057 0-12.8-5.743-12.8-12.8s5.743-12.8 12.8-12.8 12.8 5.743 12.8 12.8-5.743 12.8-12.8 12.8z"/>
</symbol><symbol id="icon-cancel" viewBox="0 0 15.642 15.642">
    <path fill-rule="evenodd" d="M8.882 7.821l6.541-6.541A.75.75 0 1 0 14.362.219L7.821 6.76 1.28.22A.75.75 0 1 0 .219 1.281L6.76 7.822l-6.54 6.54a.75.75 0 0 0 1.06 1.061l6.541-6.541 6.541 6.541a.75.75 0 1 0 1.06-1.061l-6.54-6.541z"/>
</symbol><symbol id="icon-chat" viewBox="0 0 16 16">
    <path d="M3 11.2c0 .1 0 .1 0 0 0 .1 0 .1 0 0z"/>
    <path d="M8.3 1C3.9 1 0 3.6 0 6.6c0 2 1.1 3.7 3 4.7s0 .1 0 .1c-.1 1.3-.9 1.7-.9 1.7L.3 14h2c2.5 0 4.3-1.1 5.1-1.9h.8c4.3 0 7.8-2.5 7.8-5.6S12.6 1 8.3 1zm-.1 10.1H7.1l-.2.2c-.5.5-1.6 1.4-3.3 1.7.3-.5.5-1.1.5-2v-.3l-.3-.1C2 9.7 1 8.3 1 6.6 1 4.2 4.5 2 8.3 2 12 2 15 4 15 6.6c0 2.4-3.1 4.5-6.8 4.5z"/>
    <path d="M6 7a1 1 0 1 1-2 0 1 1 0 0 1 2 0z"/>
    <path d="M9 7a1 1 0 1 1-2 0 1 1 0 0 1 2 0z"/>
    <path d="M12 7a1 1 0 1 1-2 0 1 1 0 0 1 2 0z"/>
</symbol><symbol id="icon-checked" viewBox="0 0 512 512">
    <path d="M476.047 201.647h-75.269l103.041-103.04C509.094 93.329 512 86.314 512 78.853c0-7.461-2.906-14.476-8.182-19.753l-10.75-10.75c-10.892-10.892-28.615-10.892-39.508 0L300.263 201.647H32.862C14.742 201.647 0 216.389 0 234.51v204.446c0 18.121 14.742 32.863 32.862 32.863h443.185c18.12 0 32.862-14.742 32.862-32.863V234.51c0-18.121-14.742-32.863-32.862-32.863zm-8.063-138.873c2.938-2.937 7.721-2.939 10.659 0l10.75 10.75a7.486 7.486 0 0 1 2.208 5.329 7.487 7.487 0 0 1-2.208 5.33l-26.113 26.113-18.337-18.336-3.072-3.072 26.113-26.114zm-40.536 40.535l21.409 21.409-203.933 203.934-32.113 10.704 10.704-32.113 203.933-203.934zm61.062 335.647c0 6.872-5.591 12.464-12.463 12.464H32.862c-6.872 0-12.463-5.591-12.463-12.464V234.51c0-6.872 5.591-12.464 12.463-12.464h247.003l-72.476 72.477a10.21 10.21 0 0 0-2.464 3.987l-17.916 53.749a10.197 10.197 0 0 0 12.902 12.9l53.749-17.915a10.203 10.203 0 0 0 3.987-2.464l122.732-122.733h95.667c6.872 0 12.463 5.591 12.463 12.464v204.445z"/>
    <path d="M451.075 408.122h-6.08c-5.633 0-10.199 4.567-10.199 10.199s4.566 10.199 10.199 10.199h6.08c5.633 0 10.199-4.567 10.199-10.199s-4.566-10.199-10.199-10.199z"/>
    <path d="M404.453 408.122H172.36c-5.633 0-10.199 4.567-10.199 10.199s4.566 10.199 10.199 10.199h232.093c5.633 0 10.199-4.567 10.199-10.199s-4.566-10.199-10.199-10.199z"/>
    <path d="M451.075 349.338H299.049c-5.633 0-10.199 4.567-10.199 10.199s4.566 10.199 10.199 10.199h152.026c5.633 0 10.199-4.567 10.199-10.199s-4.566-10.199-10.199-10.199z"/>
    <path d="M107.587 316.211v-37.817c13.04.932 17.883 6.894 22.354 6.894 5.588 0 8.197-7.079 8.197-10.618 0-9.128-17.883-13.04-30.551-13.412v-5.03c0-2.236-2.795-4.285-5.588-4.285-3.167 0-5.403 2.049-5.403 4.285v5.403c-17.698 1.862-35.394 11.176-35.394 34.649 0 23.845 18.629 30.552 35.394 36.513v43.777c-19.001-1.49-24.031-14.531-30.178-14.531-4.657 0-8.569 6.147-8.569 10.618 0 9.128 15.648 21.61 38.748 21.982v5.775c0 2.235 2.236 4.285 5.403 4.285 2.795 0 5.588-2.05 5.588-4.285v-6.334c20.119-2.795 33.904-15.462 33.904-38.376 0-25.336-17.698-33.532-33.905-39.493zm-9.873-3.539c-9.873-3.725-17.883-7.637-17.883-18.256 0-9.687 7.452-14.343 17.883-15.648v33.904zm8.755 63.523v-39.307c9.128 3.912 16.393 9.128 16.393 20.865.001 10.618-6.333 16.58-16.393 18.442z"/>
</symbol><symbol id="icon-clock" viewBox="0 0 612 612">
    <path d="M587.572 186.881c-32.266-75.225-87.096-129.934-162.949-162.285C386.711 8.427 346.992.168 305.497.168c-41.488 0-80.914 8.181-118.784 24.428-75.225 32.265-130.298 86.939-162.621 162.285C7.895 224.629 0 264.176 0 305.664c0 41.496 7.895 81.371 24.092 119.127 32.323 75.346 87.403 130.348 162.621 162.621 37.877 16.247 77.295 24.42 118.784 24.42 41.489 0 81.214-8.259 119.12-24.42C500.47 555.06 555.3 500.009 587.573 424.791 603.819 386.914 612 347.16 612 305.664c0-41.488-8.174-80.907-24.428-118.783zm-48.848 253.972c-24.021 41.195-56.929 73.876-98.375 98.039-41.195 24.021-86.332 36.135-134.845 36.135-36.47 0-71.27-7.024-104.4-21.415-33.129-14.384-61.733-33.294-85.661-57.215-23.928-23.928-42.973-52.811-57.214-85.997-14.199-33.065-21.08-68.258-21.08-104.735 0-48.52 11.921-93.428 35.807-134.509 23.971-41.231 56.886-73.947 98.039-98.04 41.146-24.092 85.99-36.142 134.502-36.142 48.52 0 93.649 12.121 134.845 36.142 41.446 24.164 74.283 56.879 98.375 98.039 24.092 41.153 36.135 85.99 36.135 134.509 0 48.521-11.964 93.735-36.128 135.189z"/>
    <path d="M324.906 302.988V129.659c0-10.372-9.037-18.738-19.41-18.738-9.701 0-18.403 8.366-18.403 18.738v176.005c0 .336.671 1.678.671 2.678-.671 6.024 1.007 11.043 5.019 15.062L392.836 423.45c6.695 6.695 19.073 6.695 25.763 0 7.694-7.695 7.188-18.86 0-26.099l-93.693-94.363z"/>
</symbol><symbol id="icon-contract" viewBox="0 0 512.105 512.105">
    <path d="M128.052 325.818c-38.4 0-69.818 31.418-69.818 69.818 0 20.945 9.309 39.564 23.273 52.364v52.364c0 3.491 2.327 6.982 4.655 9.309 3.491 2.327 6.982 3.491 10.473 1.164l31.418-10.473 31.418 10.473c1.164 0 2.327 1.164 3.491 1.164 2.327 0 4.655-1.164 6.982-2.327 3.491-2.327 4.655-5.818 4.655-9.309V448c13.964-12.8 23.273-31.418 23.273-52.364-.001-38.4-31.42-69.818-69.82-69.818zm23.273 158.255l-19.782-6.982c-2.327-1.164-4.655-1.164-6.982 0l-19.782 6.982V460.8c6.982 2.327 15.127 4.655 23.273 4.655s16.291-1.164 23.273-4.655v23.273zm-23.273-41.891c-25.6 0-46.545-20.945-46.545-46.545s20.945-46.545 46.545-46.545 46.545 20.945 46.545 46.545c.001 25.599-20.945 46.545-46.545 46.545z"/>
    <circle cx="128.052" cy="395.636" r="23.273"/>
    <path d="M488.78 216.436l-6.982-6.982c-6.982-6.982-17.455-11.636-27.927-11.636-10.473 0-20.945 4.655-27.927 11.636l-41.891 41.891V112.873c0-15.127-5.818-30.255-17.455-40.727l-54.691-54.691C301.434 5.818 287.471 0 271.18 0H46.598C26.816 0 11.689 15.127 11.689 34.909v418.909c0 19.782 15.127 34.909 34.909 34.909h11.636c6.982 0 11.636-4.655 11.636-11.636s-4.655-11.636-11.636-11.636H46.598c-6.982 0-11.636-4.655-11.636-11.636V34.909c0-6.982 4.655-11.636 11.636-11.636h209.455c12.8 0 23.273 10.473 23.273 23.273v23.273c0 19.782 15.127 34.909 34.909 34.909h23.273c12.8 0 23.273 10.473 23.273 23.273v139.636c0 2.327 1.164 3.491 1.164 5.818l-67.491 67.491c-1.164 1.164-2.327 3.491-3.491 5.818l-9.309 48.873h-25.6c-6.982 0-11.636 4.655-11.636 11.636 0 6.982 4.655 11.636 11.636 11.636h37.236l58.182-11.636c2.327 0 4.655-1.164 5.818-3.491l131.49-131.491c6.982-6.982 11.636-17.455 11.636-27.927s-4.654-20.946-11.636-27.928zM337.507 81.455h-23.273c-6.982 0-11.636-4.655-11.636-11.636V46.545c0-2.327 0-4.655-1.164-8.145l43.055 43.055h-6.982zm-31.418 310.69l3.491-19.782 16.291 16.291-19.782 3.491zM472.489 256L349.143 379.345l-30.255-30.255 123.345-123.345c5.818-5.818 17.455-5.818 23.273 0l6.982 6.982c3.491 3.491 4.655 6.982 4.655 11.636s-1.163 8.146-4.654 11.637z"/>
    <path d="M372.416 407.273c-6.982 0-11.636 4.655-11.636 11.636v34.909c0 6.982-4.655 11.636-11.636 11.636H197.871c-6.982 0-11.636 4.655-11.636 11.636s4.655 11.636 11.636 11.636h151.273c19.782 0 34.909-15.127 34.909-34.909v-34.909c-.001-6.981-4.655-11.635-11.637-11.635z"/>
    <path d="M186.234 139.636H69.871c-6.982 0-11.636 4.655-11.636 11.636 0 6.982 4.655 11.636 11.636 11.636h116.364c6.982 0 11.636-4.655 11.636-11.636 0-6.981-4.655-11.636-11.637-11.636z"/>
    <path d="M302.598 186.182H162.962c-6.982 0-11.636 4.655-11.636 11.636s4.655 11.636 11.636 11.636h139.636c6.982 0 11.636-4.655 11.636-11.636s-4.654-11.636-11.636-11.636z"/>
    <path d="M302.598 139.636H232.78c-6.982 0-11.636 4.655-11.636 11.636 0 6.982 4.655 11.636 11.636 11.636h69.818c6.982 0 11.636-4.655 11.636-11.636 0-6.981-4.654-11.636-11.636-11.636z"/>
    <path d="M232.78 93.091h-69.818c-6.982 0-11.636 4.655-11.636 11.636s4.655 11.636 11.636 11.636h69.818c6.982 0 11.636-4.655 11.636-11.636s-4.654-11.636-11.636-11.636z"/>
    <path d="M174.598 232.727H69.871c-6.982 0-11.636 4.655-11.636 11.636S62.889 256 69.871 256h104.727c6.982 0 11.636-4.655 11.636-11.636s-4.654-11.637-11.636-11.637z"/>
    <path d="M116.416 279.273H69.871c-6.982 0-11.636 4.655-11.636 11.636s4.655 11.636 11.636 11.636h46.545c6.982 0 11.636-4.655 11.636-11.636s-4.654-11.636-11.636-11.636z"/>
    <path d="M116.416 186.182H69.871c-6.982 0-11.636 4.655-11.636 11.636s4.655 11.636 11.636 11.636h46.545c6.982 0 11.636-4.655 11.636-11.636s-4.654-11.636-11.636-11.636z"/>
    <path d="M302.598 232.727h-81.455c-6.982 0-11.636 4.655-11.636 11.636S214.162 256 221.143 256h81.455c6.982 0 11.636-4.655 11.636-11.636s-4.654-11.637-11.636-11.637z"/>
    <path d="M256.052 279.273h-93.091c-6.982 0-11.636 4.655-11.636 11.636s4.655 11.636 11.636 11.636h93.091c6.982 0 11.636-4.655 11.636-11.636s-4.654-11.636-11.636-11.636z"/>
</symbol><symbol id="icon-correct" viewBox="0 0 512 512">
    <path d="M225.882 331.294a30.057 30.057 0 0 1-21.233-8.885l-45.176-45.176c-11.761-11.761-11.761-30.856 0-42.616s30.856-11.761 42.616 0l25.449 25.449 84.179-72.132c13.809-9.276 32.527-5.587 41.788 8.222 7.695 11.475 6.611 26.699-2.635 36.954l-105.412 90.353a30.141 30.141 0 0 1-19.576 7.831z"/>
    <path d="M256 512C114.613 512 0 397.387 0 256S114.613 0 256 0s256 114.613 256 256-114.613 256-256 256zm0-451.765C147.878 60.235 60.235 147.878 60.235 256S147.878 451.765 256 451.765 451.765 364.122 451.765 256 364.122 60.235 256 60.235z"/>
</symbol><symbol id="icon-credit-card" viewBox="0 0 512 512">
    <path d="M469.256 175.503h-52.1v-73.542c0-23.569-19.175-42.744-42.744-42.744H42.744C19.175 59.218 0 78.393 0 101.962v191.786c0 23.569 19.175 42.744 42.744 42.744h52.102v73.546c0 23.569 19.175 42.744 42.744 42.744h331.666c23.569 0 42.744-19.175 42.744-42.744V218.247c0-23.569-19.175-42.744-42.744-42.744zM24.425 101.962c0-10.101 8.218-18.319 18.319-18.319h331.668c10.101 0 18.319 8.218 18.319 18.319v17.051H24.425v-17.051zm70.421 116.285v93.819H42.744c-10.101 0-18.319-8.218-18.319-18.319v-93.743h74.52a42.471 42.471 0 0 0-4.099 18.243zm-70.421-42.668v-32.14h368.306v32.064H137.59c-.826 0-1.644.029-2.458.076H24.425zm444.831 252.778H137.59c-10.101 0-18.319-8.218-18.319-18.319V218.247c0-9.597 7.422-17.479 16.824-18.243H404.94c.451 0 .894-.028 1.331-.076h62.984c10.101 0 18.319 8.218 18.319 18.319v191.791h.001c0 10.101-8.218 18.319-18.319 18.319z"/>
    <path d="M340.211 255.272c-13.892 0-26.666 4.847-36.745 12.924-10.333-8.324-23.209-12.931-36.829-12.931-32.465 0-58.877 26.412-58.877 58.877s26.412 58.877 58.877 58.877c13.621 0 26.496-4.607 36.829-12.929 10.079 8.077 22.853 12.925 36.745 12.925 32.462 0 58.871-26.41 58.871-58.872s-26.409-58.871-58.871-58.871zm-52.258 85.929c-6.009 4.758-13.451 7.392-21.317 7.392-18.997.001-34.452-15.454-34.452-34.45 0-18.997 15.455-34.452 34.452-34.452 7.866 0 15.307 2.635 21.317 7.392a58.48 58.48 0 0 0-6.613 27.058 58.501 58.501 0 0 0 6.613 27.06zm52.258 7.388c-18.993 0-34.445-15.453-34.445-34.447 0-18.993 15.453-34.445 34.445-34.445 18.993 0 34.445 15.453 34.445 34.445 0 18.995-15.452 34.447-34.445 34.447z"/>
</symbol><symbol id="icon-envelope" viewBox="0 0 483.3 483.3">
    <path d="M424.3 57.75H59.1c-32.6 0-59.1 26.5-59.1 59.1v249.6c0 32.6 26.5 59.1 59.1 59.1h365.1c32.6 0 59.1-26.5 59.1-59.1v-249.5c.1-32.6-26.4-59.2-59-59.2zm32.1 308.7c0 17.7-14.4 32.1-32.1 32.1H59.1c-17.7 0-32.1-14.4-32.1-32.1v-249.5c0-17.7 14.4-32.1 32.1-32.1h365.1c17.7 0 32.1 14.4 32.1 32.1v249.5h.1z"/>
    <path d="M304.8 238.55l118.2-106c5.5-5 6-13.5 1-19.1-5-5.5-13.5-6-19.1-1l-163 146.3-31.8-28.4c-.1-.1-.2-.2-.2-.3-.7-.7-1.4-1.3-2.2-1.9L78.3 112.35c-5.6-5-14.1-4.5-19.1 1.1-5 5.6-4.5 14.1 1.1 19.1l119.6 106.9-119.1 111.5c-5.4 5.1-5.7 13.6-.6 19.1 2.7 2.8 6.3 4.3 9.9 4.3 3.3 0 6.6-1.2 9.2-3.6l120.9-113.1 32.8 29.3c2.6 2.3 5.8 3.4 9 3.4s6.5-1.2 9-3.5l33.7-30.2 120.2 114.2c2.6 2.5 6 3.7 9.3 3.7 3.6 0 7.1-1.4 9.8-4.2 5.1-5.4 4.9-14-.5-19.1l-118.7-112.7z"/>
</symbol><symbol id="icon-family" viewBox="0 0 512 512">
    <path d="M255.998 179.2c-28.228 0-51.2 22.972-51.2 51.2s22.972 51.2 51.2 51.2 51.2-22.972 51.2-51.2-22.971-51.2-51.2-51.2zm0 76.8c-14.14 0-25.6-11.46-25.6-25.6s11.46-25.6 25.6-25.6 25.6 11.46 25.6 25.6-11.46 25.6-25.6 25.6z"/>
    <path d="M510.164 400.094l-47.718-119.296 22.63-67.9a25.595 25.595 0 0 0-3.516-23.066 25.59 25.59 0 0 0-20.762-10.633h-102.4a25.598 25.598 0 0 0-24.286 33.699l22.63 67.9-34.065 85.171-16.247-64.981c-2.85-11.392-13.082-19.388-24.832-19.388h-51.2c-11.75 0-21.982 7.996-24.832 19.388l-4.898 19.575-21.879-120.346c-2.21-12.169-12.817-21.018-25.19-21.018h-102.4c-12.373 0-22.972 8.849-25.182 21.026l-25.6 140.8a25.604 25.604 0 0 0 5.53 20.983 25.596 25.596 0 0 0 19.652 9.19h16.358l9.327 117.231C52.342 501.734 63.444 512 76.798 512h51.2c13.355 0 24.465-10.266 25.523-23.569L162.84 371.2h16.358c3.26 0 6.366-.896 9.327-2.074l-8.567 34.27a25.595 25.595 0 0 0 4.659 21.965 25.632 25.632 0 0 0 20.181 9.839v51.2c0 14.14 11.46 25.6 25.6 25.6h51.2c14.14 0 25.6-11.46 25.6-25.6v-51.2c4.54 0 8.747-1.485 12.587-3.695 3.9 2.321 8.337 3.695 13.013 3.695h25.6v51.2c0 14.14 11.46 25.6 25.6 25.6h51.2c14.14 0 25.6-11.46 25.6-25.6v-51.2h25.6a25.596 25.596 0 0 0 23.766-35.106zM139.194 345.6l-11.196 140.8h-51.2L65.603 345.6H25.598l25.6-140.8h102.4l25.6 140.8h-40.004zm142.404 64v76.8h-51.2v-76.8h-25.6l25.6-102.4h51.2l25.6 102.4h-25.6zm153.6 0v76.8h-51.2v-76.8h-51.2l51.2-128-25.6-76.8h102.4l-25.6 76.8 51.2 128h-51.2z"/>
    <path d="M409.598 0c-42.351 0-76.8 34.449-76.8 76.8s34.449 76.8 76.8 76.8 76.8-34.449 76.8-76.8S451.949 0 409.598 0zm0 128c-28.279 0-51.2-22.921-51.2-51.2s22.921-51.2 51.2-51.2c28.279 0 51.2 22.921 51.2 51.2s-22.92 51.2-51.2 51.2z"/>
    <path d="M76.798 76.8h.001v.001h-.001z"/>
    <path d="M102.398 0c-42.342 0-76.8 34.449-76.8 76.8s34.458 76.8 76.8 76.8c42.351 0 76.8-34.449 76.8-76.8S144.749 0 102.398 0zm0 128c-28.279 0-51.2-22.921-51.2-51.2s22.921-51.2 51.2-51.2 51.2 22.921 51.2 51.2-22.92 51.2-51.2 51.2z"/>
</symbol><symbol id="icon-fb" viewBox="0 0 470.513 470.513">
    <path d="M271.521 154.17v-40.541c0-6.086.28-10.8.849-14.13.567-3.335 1.857-6.615 3.859-9.853 1.999-3.236 5.236-5.47 9.706-6.708 4.476-1.24 10.424-1.858 17.85-1.858h40.539V0h-64.809c-37.5 0-64.433 8.897-80.803 26.691-16.368 17.798-24.551 44.014-24.551 78.658v48.82h-48.542v81.086h48.539v235.256h97.362V235.256h64.805l8.566-81.086h-73.37z"/>
</symbol><symbol id="icon-handshake" viewBox="0 0 264.355 264.355">
    <path d="M259.081 76.652L205.269 22.84c-3.407-3.407-7.936-5.283-12.754-5.283s-9.347 1.876-12.753 5.283l-12.646 12.645a17.908 17.908 0 0 0-4.203 6.67l-59.168-10.593-.013-.002c-26.604-5.281-52.579 12.015-57.944 38.622l-2.729 13.537c-3.014 14.949 6.697 29.562 21.646 32.576 14.95 3.012 29.563-6.697 32.577-21.646l1.668-8.278 26.533 2.32 69.29 69.29 12.558 12.558a6.53 6.53 0 0 1 0 9.224 6.53 6.53 0 0 1-9.223 0l-33.639-33.639a6 6 0 0 0-8.485 8.485l33.639 33.639a6.48 6.48 0 0 1 1.91 4.612 6.477 6.477 0 0 1-1.91 4.611 6.53 6.53 0 0 1-9.223 0l-33.639-33.639a6 6 0 0 0-8.485 8.485l33.639 33.639a6.529 6.529 0 0 1 0 9.223 6.479 6.479 0 0 1-4.611 1.91 6.48 6.48 0 0 1-4.612-1.91l-33.639-33.639a6 6 0 0 0-8.485 8.485l33.639 33.639a6.53 6.53 0 0 1 0 9.224 6.53 6.53 0 0 1-9.223 0L25.961 113.867 10.243 98.149a6 6 0 0 0-8.485 8.485l15.718 15.718 17.105 17.105-9.429 9.429a16.24 16.24 0 0 0-4.788 11.559c0 4.367 1.7 8.472 4.788 11.559l3.077 3.077a16.225 16.225 0 0 0 9.925 4.707 16.22 16.22 0 0 0 4.707 9.924l3.077 3.078a16.264 16.264 0 0 0 9.923 4.695 16.218 16.218 0 0 0 4.709 9.936l3.077 3.077a16.225 16.225 0 0 0 9.925 4.707 16.225 16.225 0 0 0 4.707 9.925l3.077 3.077c3.187 3.187 7.373 4.78 11.559 4.78s8.372-1.593 11.559-4.78l9.429-9.429 22.595 22.595c3.499 3.499 8.15 5.425 13.097 5.425s9.599-1.927 13.097-5.425c3.314-3.314 5.196-7.667 5.387-12.321 4.655-.191 9.007-2.073 12.322-5.387 3.416-3.416 5.195-7.845 5.38-12.329 4.483-.185 8.913-1.964 12.328-5.379 3.416-3.416 5.195-7.845 5.38-12.329 4.484-.185 8.914-1.964 12.329-5.38 7.222-7.222 7.222-18.972 0-26.194l-8.315-8.315 30.423-30.423 21.156-21.156c7.031-7.033 7.031-18.476-.001-25.508zM33.637 163.518a4.351 4.351 0 0 1 0-6.147l8.842-8.842 9.224 9.224-8.842 8.842a4.352 4.352 0 0 1-6.147 0l-3.077-3.077zm17.709 17.709a4.35 4.35 0 0 1 0-6.146l8.842-8.842 9.224 9.224-8.841 8.842a4.352 4.352 0 0 1-6.147 0l-3.078-3.078zm17.708 17.709c-.821-.821-1.273-1.913-1.273-3.073s.452-2.252 1.273-3.073l8.842-8.842 9.223 9.223-8.842 8.842a4.352 4.352 0 0 1-6.146 0l-3.077-3.077zm26.933 20.786a4.352 4.352 0 0 1-6.147 0l-3.077-3.077a4.351 4.351 0 0 1 0-6.147l8.842-8.842 9.224 9.224-8.842 8.842zm103.029-74.469l-66.592-66.592a5.992 5.992 0 0 0-3.72-1.734L94.651 73.95a6.002 6.002 0 0 0-6.404 4.792l-2.729 13.537c-1.706 8.462-9.974 13.958-18.442 12.253a15.553 15.553 0 0 1-9.946-6.683 15.553 15.553 0 0 1-2.307-11.759l2.729-13.536c4.066-20.169 23.774-33.275 43.951-29.204.042.008.085.017.128.024l58.306 10.439 7.179 7.179 58.081 58.081-26.181 26.18zm51.579-51.579l-16.914 16.914L175.6 52.507c-1.14-1.14-1.768-2.656-1.768-4.269a6 6 0 0 1 1.768-4.269l12.646-12.646c1.14-1.14 2.656-1.768 4.268-1.768s3.128.628 4.269 1.768l53.812 53.812c1.14 1.14 1.768 2.656 1.768 4.269a6 6 0 0 1-1.768 4.27z"/>
    <circle cx="236.071" cy="91.787" r="6"/>
</symbol><symbol id="icon-inst" viewBox="0 0 169.063 169.063">
    <path d="M122.406 0H46.654C20.929 0 0 20.93 0 46.655v75.752c0 25.726 20.929 46.655 46.654 46.655h75.752c25.727 0 46.656-20.93 46.656-46.655V46.655C169.063 20.93 148.133 0 122.406 0zm31.657 122.407c0 17.455-14.201 31.655-31.656 31.655H46.654C29.2 154.063 15 139.862 15 122.407V46.655C15 29.201 29.2 15 46.654 15h75.752c17.455 0 31.656 14.201 31.656 31.655v75.752z"/>
    <path d="M84.531 40.97c-24.021 0-43.563 19.542-43.563 43.563 0 24.02 19.542 43.561 43.563 43.561s43.563-19.541 43.563-43.561c0-24.021-19.542-43.563-43.563-43.563zm0 72.123c-15.749 0-28.563-12.812-28.563-28.561 0-15.75 12.813-28.563 28.563-28.563s28.563 12.813 28.563 28.563c0 15.749-12.814 28.561-28.563 28.561z"/>
    <path d="M129.921 28.251c-2.89 0-5.729 1.17-7.77 3.22a11.053 11.053 0 0 0-3.23 7.78c0 2.891 1.18 5.73 3.23 7.78 2.04 2.04 4.88 3.22 7.77 3.22 2.9 0 5.73-1.18 7.78-3.22 2.05-2.05 3.22-4.89 3.22-7.78 0-2.9-1.17-5.74-3.22-7.78-2.04-2.05-4.88-3.22-7.78-3.22z"/>
</symbol><symbol id="icon-jigsaw" viewBox="0 0 512 512">
    <path d="M508.624 247.851L386.392 125.607 264.149 3.375c-4.5-4.5-11.797-4.5-16.298 0L125.607 125.607 3.375 247.851c-4.5 4.5-4.5 11.797 0 16.298l122.232 122.243L247.85 508.624c2.251 2.251 5.2 3.376 8.149 3.376s5.898-1.125 8.149-3.376l122.243-122.232 122.232-122.243c4.502-4.501 4.502-11.797.001-16.298zM256 27.823l105.944 105.935-37.488 37.488a11.526 11.526 0 0 0 0 16.298l12.078 12.078a11.536 11.536 0 0 0 8.763 3.359c6.524-.349 12.731 1.91 17.016 6.195 8.763 8.762 8.763 23.021 0 31.783-8.762 8.763-23.021 8.763-31.782 0-5.889-5.888-6.812-14.075-6.937-17.322a11.533 11.533 0 0 0-3.366-7.71l-12.078-12.078a11.488 11.488 0 0 0-8.149-3.376c-2.949 0-5.9 1.125-8.149 3.376L256 239.701l-28.526-28.525.658-.658c8.06-.95 19.471-3.969 28.411-12.924 17.749-17.749 17.749-46.63 0-64.381-8.598-8.598-20.03-13.333-32.19-13.333s-23.592 4.736-32.197 13.34c-7.919 7.931-12.514 17.975-13.239 28.724l-.337.337-28.524-28.525L256 27.823zM27.823 256l105.935-105.944 36.67 36.67c4.499 4.499 11.793 4.5 16.295.003l11.813-11.801a11.523 11.523 0 0 0 3.363-8.768c-.33-6.167 2.004-12.081 6.565-16.649 8.762-8.762 23.021-8.762 31.782 0 4.245 4.245 6.582 9.888 6.582 15.892s-2.337 11.647-6.589 15.898c-5.518 5.526-14.202 6.42-17.679 6.548a11.532 11.532 0 0 0-7.73 3.371l-11.801 11.813c-4.497 4.502-4.496 11.796.003 16.295l36.671 36.671-28.525 28.525-.658-.658c-.95-8.06-3.969-19.471-12.924-28.411-8.598-8.597-20.03-13.333-32.19-13.333-12.161 0-23.592 4.736-32.19 13.333-8.599 8.597-13.333 20.03-13.333 32.19s4.734 23.592 13.34 32.197c7.933 7.92 17.974 12.515 28.724 13.24l.337.336-28.524 28.524L27.823 256zM256 484.177L150.056 378.243l36.67-36.67c4.499-4.499 4.5-11.793.003-16.295l-11.801-11.813a11.536 11.536 0 0 0-8.768-3.363c-6.159.33-12.081-2.004-16.649-6.565a22.325 22.325 0 0 1-6.582-15.892 22.323 22.323 0 0 1 6.582-15.891c4.245-4.245 9.888-6.582 15.892-6.582s11.647 2.337 15.897 6.589c5.526 5.518 6.42 14.202 6.548 17.679a11.532 11.532 0 0 0 3.371 7.73l11.813 11.801c4.502 4.497 11.794 4.495 16.295-.003l36.671-36.671L283.701 300l-.957.957c-10.819 1.396-20.833 6.105-28.004 13.275-8.597 8.597-13.333 20.03-13.333 32.19s4.736 23.592 13.333 32.19 20.03 13.333 32.19 13.333c12.161 0 23.592-4.736 32.191-13.333 7.661-7.662 12.215-18.054 12.893-29.12l.59-.59 29.339 29.339L256 484.177zm122.242-122.233l-37.488-37.489a11.526 11.526 0 0 0-16.298 0l-12.077 12.078a11.522 11.522 0 0 0-3.359 8.763c.348 6.529-1.91 12.731-6.195 17.016-8.761 8.763-23.02 8.763-31.783 0-8.763-8.762-8.763-23.02 0-31.782 5.888-5.889 14.075-6.812 17.322-6.937a11.533 11.533 0 0 0 7.71-3.366l12.078-12.078c4.5-4.5 4.5-11.798 0-16.298L272.3 255.999l27.703-27.703.956.957c1.396 10.819 6.105 20.833 13.275 28.004 8.597 8.597 20.03 13.333 32.19 13.333s23.592-4.736 32.19-13.333c8.598-8.598 13.333-20.03 13.333-32.19 0-12.161-4.736-23.592-13.333-32.191-7.662-7.662-18.052-12.216-29.12-12.893l-.59-.59 29.339-29.339 105.935 105.944-105.936 105.946z"/>
</symbol><symbol id="icon-laptop" viewBox="0 0 490.2 490.2">
    <path d="M200.9 369.9H85.8c-5.5 0-9.9 4.4-9.9 9.9s4.4 9.9 9.9 9.9h106.6c3.1 8.6 11.4 14.7 21 14.7h63.2c9.6 0 17.9-6.1 21-14.7h106.7c5.5 0 9.9-4.4 9.9-9.9s-4.4-9.9-9.9-9.9H289.2c-5.5 0-9.9 4.4-9.9 9.9v2.2c0 1.4-1.2 2.6-2.6 2.6h-63.2c-1.4 0-2.6-1.2-2.6-2.6v-2.2c-.1-5.5-4.5-9.9-10-9.9z"/>
    <path d="M480.3 369.9h-26V141.8c0-5.5-4.4-9.9-9.9-9.9s-9.9 4.4-9.9 9.9v238c0 5.5 4.5 9.9 10 9.9h25.9v13.6c0 14-11.4 25.4-25.4 25.4H45.2c-14 0-25.4-11.4-25.4-25.4v-13.6h25.9c5.5 0 9.9-4.4 9.9-9.9v-238c0-5.5-4.4-9.9-9.9-9.9s-9.9 4.4-9.9 9.9v228.1H9.9c-5.5 0-9.9 4.4-9.9 9.9v23.5c0 24.9 20.3 45.2 45.2 45.2H445c24.9 0 45.2-20.3 45.2-45.2v-23.5c0-5.5-4.4-9.9-9.9-9.9z"/>
    <path d="M283.6 111.3l-57.1 56.8-19.9-20c-3.9-3.9-10.1-3.9-14 0s-3.9 10.1 0 14l26.8 27c1.9 1.9 4.5 2.9 7 2.9s5-1 7-2.9l64.2-63.8c3.9-3.9 3.9-10.1 0-14-3.8-3.8-10.1-3.9-14 0z"/>
    <path d="M367.3 41.7H122.9c-20 0-36.3 16.3-36.3 36.3v144.4c0 20 16.3 36.3 36.3 36.3h10.3v43.5c0 8.1 6.6 14.6 14.7 14.6 4.2 0 8.2-1.8 11-5.1l45.8-53h162.6c20 0 36.3-16.3 36.3-36.3V78c0-20-16.3-36.3-36.3-36.3zm16.5 180.7c0 9.1-7.4 16.5-16.5 16.5H200.1c-2.9 0-5.6 1.2-7.5 3.4l-39.7 45.9v-39.4c0-5.5-4.4-9.9-9.9-9.9h-20.2c-9.1 0-16.5-7.4-16.5-16.5V78c0-9.1 7.4-16.5 16.5-16.5h244.4c9.1 0 16.5 7.4 16.5 16.5v144.4h.1z"/>
</symbol><symbol id="icon-list" viewBox="-62 0 512 512.00101">
    <path d="M113.496 3.008A9.982 9.982 0 0 1 120.648 0h221.426c12.457 0 23.774 5.09 31.969 13.285 8.2 8.2 13.289 19.516 13.289 31.969v21.031c0 5.531-4.484 10.016-10.016 10.016s-10.015-4.485-10.015-10.016V45.254c0-6.926-2.84-13.23-7.418-17.805-4.574-4.578-10.88-7.418-17.805-7.418H130.664v100.617c0 5.532-4.484 10.016-10.016 10.016H20.031v234.934c0 5.53-4.484 10.015-10.015 10.015S0 371.13 0 365.598v-244.95a9.986 9.986 0 0 1 3.008-7.152zm263.82 133.383c-5.53 0-10.015 4.48-10.015 10.011v320.344c0 6.926-2.84 13.23-7.418 17.805-4.578 4.578-10.88 7.418-17.809 7.418H45.254c-6.926 0-13.23-2.84-17.809-7.418-4.574-4.574-7.414-10.88-7.414-17.805v-21.031c0-5.531-4.484-10.016-10.015-10.016S0 440.184 0 445.715v21.031c0 12.457 5.09 23.774 13.285 31.969 8.2 8.2 19.516 13.285 31.969 13.285h296.824c12.457 0 23.77-5.086 31.969-13.285 8.195-8.2 13.285-19.512 13.285-31.969V146.402c-.004-5.53-4.484-10.011-10.016-10.011zm0-40.063c-5.53 0-10.015 4.484-10.015 10.016s4.484 10.015 10.015 10.015 10.012-4.484 10.012-10.015-4.48-10.016-10.012-10.016zm-367.3 299.313c5.53 0 10.015 4.484 10.015 10.015s-4.484 10.016-10.015 10.016S0 411.187 0 405.656s4.484-10.015 10.016-10.015zm156.996 30.289c-5.528 0-10.012-4.485-10.012-10.016s4.484-10.016 10.012-10.016h160.843c5.528 0 10.016 4.485 10.016 10.016s-4.488 10.016-10.016 10.016zm0-99.684h160.843c5.528 0 10.016-4.484 10.016-10.012 0-5.53-4.488-10.015-10.016-10.015H167.012c-5.528 0-10.012 4.484-10.012 10.015 0 5.528 4.484 10.012 10.012 10.012zm0-99.68h160.843c5.528 0 10.016-4.484 10.016-10.015s-4.488-10.016-10.016-10.016H167.012c-5.528 0-10.012 4.485-10.012 10.016s4.484 10.015 10.012 10.015zM44.398 413.934l25.676 25.675c3.91 3.907 10.25 3.907 14.16 0l51.348-51.351c3.91-3.91 3.91-10.25 0-14.16s-10.25-3.91-14.16 0l-44.27 44.27-18.593-18.595c-3.91-3.91-10.25-3.91-14.16 0s-3.91 10.25 0 14.16zm0-99.684l25.676 25.676c3.91 3.91 10.25 3.91 14.16 0l51.348-51.348c3.91-3.91 3.91-10.25 0-14.164-3.91-3.91-10.25-3.91-14.16 0l-44.27 44.27L58.56 300.09c-3.91-3.91-10.25-3.91-14.16 0s-3.91 10.25 0 14.16zm0-99.684l25.676 25.676c3.91 3.91 10.25 3.91 14.16 0l51.348-51.347c3.91-3.91 3.91-10.25 0-14.16a10.006 10.006 0 0 0-14.16 0L77.152 219 58.56 200.406c-3.91-3.91-10.25-3.91-14.16 0s-3.91 10.25 0 14.16zM34.191 110.633h76.442V34.19zm0 0" fill-rule="evenodd"/>
</symbol><symbol id="icon-network" viewBox="0 0 424 424">
    <path d="M212 126.56c-46.88 0-76 24-76 62.88a8 8 0 0 0 8 8h136a8 8 0 0 0 8-8c0-38.8-29.12-62.88-76-62.88zm-59.44 54.88c5.28-35.92 46.32-38.88 59.44-38.88s54.16 2.96 59.44 38.88H152.56z"/>
    <path d="M212 42.56c-20.987 0-38 17.013-38 38 .044 20.969 17.031 37.956 38 38 20.987 0 38-17.013 38-38s-17.013-38-38-38zm0 60c-12.15 0-22-9.85-22-22s9.85-22 22-22 22 9.85 22 22-9.85 22-22 22z"/>
    <path d="M76 310.56c-46.88 0-76 24-76 62.88a8 8 0 0 0 8 8h136a8 8 0 0 0 8-8c0-38.8-29.12-62.88-76-62.88zm-59.44 54.88c5.28-35.92 46.24-38.88 59.44-38.88s54.16 2.96 59.44 38.88H16.56z"/>
    <path d="M76 226.56c-20.987 0-38 17.013-38 38 .044 20.969 17.031 37.956 38 38 20.987 0 38-17.013 38-38s-17.013-38-38-38zm0 60c-12.15 0-22-9.85-22-22s9.85-22 22-22 22 9.85 22 22-9.85 22-22 22z"/>
    <path d="M348 310.56c-46.88 0-76 24-76 62.88a8 8 0 0 0 8 8h136a8 8 0 0 0 8-8c0-38.8-29.12-62.88-76-62.88zm-59.44 54.88c5.28-35.92 46.24-38.88 59.44-38.88s54.16 2.96 59.44 38.88H288.56z"/>
    <path d="M348 226.56c-20.987 0-38 17.013-38 38 .044 20.969 17.031 37.956 38 38 20.987 0 38-17.013 38-38s-17.013-38-38-38zm0 60c-12.15 0-22-9.85-22-22s9.85-22 22-22 22 9.85 22 22-9.85 22-22 22z"/>
    <path d="M253.36 296.72L220 263.2V216a8 8 0 0 0-16 0v47.2l-33.36 33.36A8.033 8.033 0 1 0 181.92 308L212 277.84 242.08 308a8 8 0 0 0 11.28-11.28z"/>
</symbol><symbol id="icon-paypal" viewBox="0 0 464 140.6">
    <style>
        .st0{fill:#a2a9bb}
    </style>
    <path class="st0" d="M381.6 24c-12 0-21.6 3.2-29.6 4.8l-2.4 18.4c4-1.6 15.2-4.8 24.8-5.6 9.6 0 15.2 1.6 13.6 10.4-28.8 0-48 5.6-52 24.8-5.6 32 29.6 32.8 43.2 18.4l-1.6 8.8h25.6l11.2-52c4-21.6-15.2-28.8-32.8-28zm1.6 53.6c-1.6 6.4-7.2 8.8-13.6 9.6-5.6 0-10.4-3.2-7.2-9.6 3.2-4.8 10.4-4.8 16-4.8h6.4c-.8-.8-1.6 2.4-1.6 4.8z"/>
    <path class="st0" d="M349.6 47.2c4-1.6 15.2-4.8 24.8-5.6 9.6 0 15.2 1.6 13.6 10.4-28.8 0-48 5.6-52 24.8-5.6 32 29.6 32.8 43.2 18.4l-1.6 8.8h25.6l11.2-52c4.8-21.6-15.2-27.2-32.8-27.2m1.6 52.8c-1.6 6.4-7.2 8.8-13.6 9.6-5.6 0-10.4-3.2-7.2-9.6 3.2-4.8 10.4-4.8 16-4.8h6.4c-.8-.8-1.6 2.4-1.6 4.8z"/>
    <path class="st0" d="M436 0l-20.8 104h25.6L462.4 0z"/>
    <path class="st0" d="M454.4 0l-39.2 104h25.6L462.4 0H436z"/>
    <path class="st0" d="M316.8 0h-47.2l-20.8 104h28l7.2-32h20c19.2 0 35.2-11.2 39.2-31.2 4-23.2-12.8-40.8-26.4-40.8zm-.8 36c-1.6 7.2-8.8 12-16 12h-12.8l5.6-24h13.6c7.2 0 11.2 4.8 9.6 12z"/>
    <path class="st0" d="M316.8 0h-32L248 104h28l7.2-32h20c19.2 0 35.2-11.2 39.2-31.2 4.8-23.2-12-40.8-25.6-40.8zm-.8 36c-1.6 7.2-8.8 12-16 12h-12.8l5.6-24h13.6c7.2 0 11.2 4.8 9.6 12z"/>
    <path class="st0" d="M132 24c-12 0-21.6 3.2-28.8 4.8l-2.4 18.4c3.2-1.6 15.2-4.8 24.8-5.6 9.6 0 15.2 1.6 13.6 10.4-28 0-47.2 5.6-51.2 24.8-5.6 32 28.8 32.8 42.4 18.4l-1.6 8.8h25.6l11.2-52c4-21.6-16-28.8-33.6-28zm2.4 53.6c-1.6 6.4-7.2 8.8-13.6 9.6-5.6 0-10.4-3.2-6.4-9.6 3.2-4.8 10.4-4.8 15.2-4.8h6.4c-.8-.8-1.6 2.4-1.6 4.8z"/>
    <path class="st0" d="M101.6 47.2c3.2-1.6 15.2-4.8 24.8-5.6 9.6 0 15.2 1.6 13.6 10.4-28 0-47.2 5.6-51.2 24.8-5.6 32 28.8 32.8 42.4 18.4l-2.4 8.8h25.6l11.2-52c4.8-21.6-15.2-27.2-32.8-27.2m1.6 52.8c-1.6 6.4-7.2 8.8-13.6 9.6-5.6 0-10.4-3.2-6.4-9.6 3.2-4.8 10.4-4.8 15.2-4.8h6.4c-.8-.8-1.6 2.4-1.6 4.8z"/>
    <path class="st0" d="M176 24h25.6l4 44.8L231.2 24h26.4l-60.8 112H168l18.4-33.6z"/>
    <path class="st0" d="M201.6 25.6l4 44L231.2 24h26.4l-60.8 112H168l18.4-32.8"/>
    <path class="st0" d="M68.8 0h-48L0 104h28l7.2-32h20c19.2 0 35.2-11.2 39.2-31.2C99.2 17.6 82.4 0 68.8 0zM68 36c-1.6 7.2-8.8 12-16 12H39.2l5.6-24h13.6c7.2 0 11.2 4.8 9.6 12z"/>
    <path class="st0" d="M68.8 0H47.2L0 104h28l7.2-32h20c19.2 0 35.2-11.2 39.2-31.2C99.2 17.6 82.4 0 68.8 0zM68 36c-1.6 7.2-8.8 12-16 12H39.2l5.6-24h13.6c7.2 0 11.2 4.8 9.6 12z"/>
    <path class="st0" d="M127.2 52c-21.6 1.6-36 8-39.2 24-5.6 32 28.8 32.8 42.4 18.4l-1.6 9.6h25.6l4-19.2L127.2 52zm7.2 25.6c-1.6 6.4-7.2 8.8-13.6 9.6-5.6 0-10.4-3.2-6.4-9.6 3.2-4.8 10.4-4.8 15.2-4.8h6.4c-.8-.8-1.6 2.4-1.6 4.8z"/>
    <path class="st0" d="M207.2 68l-1.6 2.4 16.8 16L257.6 24h-26.4z"/>
    <path class="st0" d="M28 104l7.2-32-32.8 32z"/>
    <g>
        <path class="st0" d="M276 104l7.2-33.6v.8L250.4 104z"/>
        <path class="st0" d="M376 52c-21.6 1.6-36 8-39.2 24-5.6 32 29.6 32.8 43.2 18.4l-2.4 9.6h25.6l4-19.2L376 52zm7.2 25.6c-1.6 6.4-7.2 8.8-13.6 9.6-5.6 0-10.4-3.2-7.2-9.6 3.2-4.8 10.4-4.8 16-4.8h6.4c-.8-.8-1.6 2.4-1.6 4.8z"/>
        <path class="st0" d="M433.6 56.8L415.2 104h25.6l7.2-32z"/>
    </g>
    <g>
        <path class="st0" d="M468 16.8V5.6h-4V4h10.4v1.6h-4v11.2H468z"/>
        <path class="st0" d="M476 16.8V4h2.4l3.2 8.8c0 .8.8 1.6.8 1.6 0-.8 0-.8.8-2.4l3.2-8.8h2.4V16h-1.6V4.8l-4 11.2h-2.4l-4-11.2V16h-.8v.8z"/>
    </g>
</symbol><symbol id="icon-pdf-logo" viewBox="0 0 439.875 439.875">
    <path d="M114.75 153H57.375v133.875H76.5V229.5h38.25c21.038 0 38.25-17.213 38.25-38.25 0-21.038-17.212-38.25-38.25-38.25zm0 57.375H76.5v-38.25h38.25c11.475 0 19.125 7.65 19.125 19.125s-7.65 19.125-19.125 19.125z"/>
    <path d="M382.5 95.625H57.375C24.862 95.625 0 120.487 0 153v133.875c0 32.513 24.862 57.375 57.375 57.375H382.5c32.513 0 57.375-24.862 57.375-57.375V153c0-32.513-24.862-57.375-57.375-57.375zm38.25 191.25c0 21.037-17.213 38.25-38.25 38.25H57.375c-21.038 0-38.25-17.213-38.25-38.25V153c0-21.038 17.212-38.25 38.25-38.25H382.5c21.037 0 38.25 17.212 38.25 38.25v133.875z"/>
    <path d="M229.5 153h-57.375v133.875H229.5c21.037 0 38.25-17.213 38.25-38.25V191.25c0-21.038-17.213-38.25-38.25-38.25zm19.125 95.625c0 11.475-7.65 19.125-19.125 19.125h-38.25v-95.625h38.25c11.475 0 19.125 7.65 19.125 19.125v57.375z"/>
    <path d="M286.875 286.875H306V229.5h57.375v-19.125H306v-38.25h76.5V153h-95.625z"/>
</symbol><symbol id="icon-phone-call" viewBox="0 0 473.806 473.806">
    <path d="M374.456 293.506c-9.7-10.1-21.4-15.5-33.8-15.5-12.3 0-24.1 5.3-34.2 15.4l-31.6 31.5c-2.6-1.4-5.2-2.7-7.7-4-3.6-1.8-7-3.5-9.9-5.3-29.6-18.8-56.5-43.3-82.3-75-12.5-15.8-20.9-29.1-27-42.6 8.2-7.5 15.8-15.3 23.2-22.8 2.8-2.8 5.6-5.7 8.4-8.5 21-21 21-48.2 0-69.2l-27.3-27.3c-3.1-3.1-6.3-6.3-9.3-9.5-6-6.2-12.3-12.6-18.8-18.6-9.7-9.6-21.3-14.7-33.5-14.7s-24 5.1-34 14.7l-.2.2-34 34.3c-12.8 12.8-20.1 28.4-21.7 46.5-2.4 29.2 6.2 56.4 12.8 74.2 16.2 43.7 40.4 84.2 76.5 127.6 43.8 52.3 96.5 93.6 156.7 122.7 23 10.9 53.7 23.8 88 26 2.1.1 4.3.2 6.3.2 23.1 0 42.5-8.3 57.7-24.8.1-.2.3-.3.4-.5 5.2-6.3 11.2-12 17.5-18.1 4.3-4.1 8.7-8.4 13-12.9 9.9-10.3 15.1-22.3 15.1-34.6 0-12.4-5.3-24.3-15.4-34.3l-54.9-55.1zm35.8 105.3c-.1 0-.1.1 0 0-3.9 4.2-7.9 8-12.2 12.2-6.5 6.2-13.1 12.7-19.3 20-10.1 10.8-22 15.9-37.6 15.9-1.5 0-3.1 0-4.6-.1-29.7-1.9-57.3-13.5-78-23.4-56.6-27.4-106.3-66.3-147.6-115.6-34.1-41.1-56.9-79.1-72-119.9-9.3-24.9-12.7-44.3-11.2-62.6 1-11.7 5.5-21.4 13.8-29.7l34.1-34.1c4.9-4.6 10.1-7.1 15.2-7.1 6.3 0 11.4 3.8 14.6 7l.3.3c6.1 5.7 11.9 11.6 18 17.9 3.1 3.2 6.3 6.4 9.5 9.7l27.3 27.3c10.6 10.6 10.6 20.4 0 31-2.9 2.9-5.7 5.8-8.6 8.6-8.4 8.6-16.4 16.6-25.1 24.4-.2.2-.4.3-.5.5-8.6 8.6-7 17-5.2 22.7l.3.9c7.1 17.2 17.1 33.4 32.3 52.7l.1.1c27.6 34 56.7 60.5 88.8 80.8 4.1 2.6 8.3 4.7 12.3 6.7 3.6 1.8 7 3.5 9.9 5.3.4.2.8.5 1.2.7 3.4 1.7 6.6 2.5 9.9 2.5 8.3 0 13.5-5.2 15.2-6.9l34.2-34.2c3.4-3.4 8.8-7.5 15.1-7.5 6.2 0 11.3 3.9 14.4 7.3l.2.2 55.1 55.1c10.3 10.2 10.3 20.7.1 31.3z"/>
    <path d="M256.056 112.706c26.2 4.4 50 16.8 69 35.8s31.3 42.8 35.8 69c1.1 6.6 6.8 11.2 13.3 11.2.8 0 1.5-.1 2.3-.2 7.4-1.2 12.3-8.2 11.1-15.6-5.4-31.7-20.4-60.6-43.3-83.5s-51.8-37.9-83.5-43.3c-7.4-1.2-14.3 3.7-15.6 11s3.5 14.4 10.9 15.6z"/>
    <path d="M473.256 209.006c-8.9-52.2-33.5-99.7-71.3-137.5s-85.3-62.4-137.5-71.3c-7.3-1.3-14.2 3.7-15.5 11-1.2 7.4 3.7 14.3 11.1 15.6 46.6 7.9 89.1 30 122.9 63.7 33.8 33.8 55.8 76.3 63.7 122.9 1.1 6.6 6.8 11.2 13.3 11.2.8 0 1.5-.1 2.3-.2 7.3-1.1 12.3-8.1 11-15.4z"/>
</symbol><symbol id="icon-placeholder" viewBox="0 0 477 477">
    <path d="M238.4 0C133 0 47.2 85.8 47.2 191.2c0 12 1.1 24.1 3.4 35.9.1.7.5 2.8 1.3 6.4 2.9 12.9 7.2 25.6 12.8 37.7 20.6 48.5 65.9 123 165.3 202.8 2.5 2 5.5 3 8.5 3s6-1 8.5-3c99.3-79.8 144.7-154.3 165.3-202.8 5.6-12.1 9.9-24.7 12.8-37.7.8-3.6 1.2-5.7 1.3-6.4 2.2-11.8 3.4-23.9 3.4-35.9C429.6 85.8 343.8 0 238.4 0zm161.2 222.4c0 .2-.1.4-.1.6-.1.5-.4 2-.9 4.3v.2c-2.5 11.2-6.2 22.1-11.1 32.6-.1.1-.1.3-.2.4-18.7 44.3-59.7 111.9-148.9 185.6-89.2-73.7-130.2-141.3-148.9-185.6-.1-.1-.1-.3-.2-.4-4.8-10.4-8.5-21.4-11.1-32.6v-.2c-.6-2.3-.8-3.8-.9-4.3 0-.2-.1-.4-.1-.7-2-10.3-3-20.7-3-31.2 0-90.5 73.7-164.2 164.2-164.2s164.2 73.7 164.2 164.2c0 10.6-1 21.1-3 31.3z"/>
    <path d="M238.4 71.9c-66.9 0-121.4 54.5-121.4 121.4s54.5 121.4 121.4 121.4 121.4-54.5 121.4-121.4S305.3 71.9 238.4 71.9zm0 215.8c-52.1 0-94.4-42.4-94.4-94.4s42.4-94.4 94.4-94.4 94.4 42.4 94.4 94.4-42.3 94.4-94.4 94.4z"/>
</symbol><symbol id="icon-profile" viewBox="0 0 563.43 563.43">
    <path d="M280.79 314.559c83.266 0 150.803-67.538 150.803-150.803S364.055 13.415 280.79 13.415 129.987 80.953 129.987 163.756s67.537 150.803 150.803 150.803zm0-261.824c61.061 0 111.021 49.959 111.021 111.021s-49.96 111.02-111.021 111.02-111.021-49.959-111.021-111.021 49.959-111.02 111.021-111.02z"/>
    <path d="M19.891 550.015h523.648c11.102 0 19.891-8.789 19.891-19.891 0-104.082-84.653-189.198-189.198-189.198H189.198C85.116 340.926 0 425.579 0 530.124c0 11.102 8.789 19.891 19.891 19.891zm169.307-169.307h185.034c75.864 0 138.313 56.436 148.028 129.524H41.17c9.714-72.625 72.164-129.524 148.028-129.524z"/>
</symbol><symbol id="icon-quality" viewBox="-65 0 511 511.99932">
    <path d="M110.504 109.883c5.523 0 10-4.48 10-10 0-5.531-4.477-10-10-10a9.993 9.993 0 0 0-9.996 10c0 5.52 4.476 10 9.996 10zm0 0"/>
    <path d="M376.465 181.438c7.32-12.833 4.48-29.075-6.754-38.63l-33.867-28.757c-1.875-1.594-3.149-3.836-3.586-6.309L324.59 64.29c-2.563-14.648-15.125-25.273-29.871-25.273h-44.207c-2.399 0-4.742-.868-6.52-2.375L210.125 7.27c-.027-.024-.059-.047-.086-.075a30.116 30.116 0 0 0-39.156.075L137.09 36.574a10.19 10.19 0 0 1-6.586 2.442H86.285c-14.742 0-27.305 10.629-29.867 25.257l-7.684 43.493c-.43 2.46-1.695 4.691-3.57 6.28L11.29 142.813c-11.23 9.551-14.066 25.793-6.746 38.622l22.11 38.761a10.795 10.795 0 0 1 1.253 7.188l-7.68 44.07c-2.542 14.621 5.645 28.926 19.462 34.008l41.546 15.312c.829.305 1.61.715 2.325 1.22L6.543 457.046c-4.39 7.7 2.707 16.906 11.273 14.613l44.98-12.05 12.052 44.976c2.3 8.59 13.902 10.156 18.343 2.367l79.48-139.363 14.333-5.281a10.15 10.15 0 0 1 6.992-.004l15.414 5.68 85.281 139.238c4.579 7.468 15.914 5.859 18.188-2.637l12.055-44.977 44.976 12.051c8.688 2.336 15.832-7.183 11.117-14.883l-82.855-135.25a9.72 9.72 0 0 1 1.605-.757l41.532-15.31c13.843-5.085 22.03-19.394 19.472-34.01l-7.68-44.071a10.8 10.8 0 0 1 1.254-7.188zM87.87 475.918l-8.344-31.145c-1.43-5.335-6.914-8.5-12.25-7.07l-31.492 8.438 59.863-104.985 13.11 22.977c7.035 12.347 21.43 18.066 34.82 14.101zm263.012-30.059l-30.434-8.156c-5.34-1.43-10.82 1.738-12.25 7.07l-8.613 32.153-60.121-98.156c2.172.48 4.355.718 6.523.718 10.594-.004 20.715-5.62 26.258-15.351l13.777-24.153zm-13.899-235.574a30.838 30.838 0 0 0-3.586 20.531l7.68 44.075c.895 5.09-1.914 10.054-6.676 11.804L292.872 302c-6.224 2.29-11.52 6.61-15.09 12.215a9.652 9.652 0 0 0-1.048 1.7l-21.859 38.32c-2.508 4.398-7.73 6.335-12.414 4.617-1.313-.485-40.496-14.922-41.559-15.313a30.192 30.192 0 0 0-20.804.004c-.805.289-18.528 6.824-41.543 15.309-4.692 1.726-9.914-.22-12.422-4.622l-20.57-36.054a10.02 10.02 0 0 0-2.977-4.985 30.382 30.382 0 0 0-14.441-11.187L46.602 286.69c-4.75-1.746-7.559-6.714-6.672-11.808l7.68-44.067a30.813 30.813 0 0 0-3.583-20.53l-22.109-38.763c-2.563-4.48-1.578-10.148 2.324-13.468l33.871-28.762a30.684 30.684 0 0 0 10.325-18.07l7.68-43.485c.886-5.054 5.163-8.726 10.171-8.726h44.219c7.133 0 14.07-2.555 19.61-7.266l33.82-29.324a10.18 10.18 0 0 1 13.136 0l33.895 29.39a30.201 30.201 0 0 0 19.543 7.2h44.21c5.008 0 9.286 3.672 10.173 8.738l7.671 43.469c1.243 7.05 4.91 13.468 10.332 18.074l33.864 28.754c3.91 3.324 4.89 8.992 2.332 13.476zm0 0"/>
    <path d="M190.504 59.746c-17.215 0-33.95 3.316-49.738 9.86-5.102 2.113-7.524 7.964-5.41 13.066 2.117 5.101 7.968 7.52 13.066 5.41 13.348-5.535 27.508-8.34 42.082-8.34 60.652 0 109.996 49.344 109.996 109.996 0 60.653-49.344 109.996-109.996 109.996S80.508 250.391 80.508 189.738c0-18.812 4.832-37.383 13.972-53.699 2.7-4.816.98-10.914-3.835-13.613-4.82-2.7-10.915-.98-13.614 3.836-10.808 19.297-16.523 41.246-16.523 63.48 0 71.68 58.316 129.996 129.996 129.996S320.5 261.422 320.5 189.742c0-71.683-58.316-129.996-129.996-129.996zm0 0"/>
    <path d="M151.23 202.64l-5.851 34.087a9.997 9.997 0 0 0 3.98 9.78 9.992 9.992 0 0 0 10.528.763l30.617-16.094 30.617 16.094a10 10 0 0 0 14.508-10.543l-5.852-34.086 24.766-24.141a9.997 9.997 0 0 0 2.531-10.25 10.016 10.016 0 0 0-8.074-6.809l-34.227-4.972-15.3-31.012a10.01 10.01 0 0 0-8.97-5.578 10 10 0 0 0-8.968 5.578l-15.3 31.012-34.227 4.972a10.005 10.005 0 0 0-8.074 6.809 9.997 9.997 0 0 0 2.53 10.25zm23.083-27.136a10.004 10.004 0 0 0 7.53-5.469l8.66-17.555 8.665 17.555a9.991 9.991 0 0 0 7.527 5.469l19.38 2.816-14.024 13.668a10.006 10.006 0 0 0-2.875 8.852l3.312 19.297-17.332-9.11a9.996 9.996 0 0 0-9.304 0l-17.332 9.11 3.312-19.297a9.999 9.999 0 0 0-2.875-8.852l-14.023-13.668zm0 0"/>
</symbol><symbol id="icon-send" viewBox="0 0 512.001 512.001">
    <path d="M9.47 192.489a15.065 15.065 0 0 0-.979 27.541l176.547 85.623L490.696.002 9.47 192.489z"/>
    <path d="M206.344 326.96l85.624 176.548a15.065 15.065 0 0 0 27.543-.979l192.49-481.223L206.344 326.96z"/>
</symbol><symbol id="icon-shopping-list" viewBox="-62 0 512 512.00101">
    <path d="M113.496 3.008A9.982 9.982 0 0 1 120.648 0h221.426c12.457 0 23.774 5.09 31.969 13.285 8.2 8.2 13.289 19.516 13.289 31.969v21.031c0 5.531-4.484 10.016-10.016 10.016s-10.015-4.485-10.015-10.016V45.254c0-6.926-2.84-13.23-7.418-17.805-4.574-4.578-10.88-7.418-17.805-7.418H130.664v100.617c0 5.532-4.484 10.016-10.016 10.016H20.031v234.934c0 5.53-4.484 10.015-10.015 10.015S0 371.13 0 365.598v-244.95a9.986 9.986 0 0 1 3.008-7.152zm263.82 133.383c-5.53 0-10.015 4.48-10.015 10.011v320.344c0 6.926-2.84 13.23-7.418 17.805-4.578 4.578-10.88 7.418-17.809 7.418H45.254c-6.926 0-13.23-2.84-17.809-7.418-4.574-4.574-7.414-10.88-7.414-17.805v-21.031c0-5.531-4.484-10.016-10.015-10.016S0 440.184 0 445.715v21.031c0 12.457 5.09 23.774 13.285 31.969 8.2 8.2 19.516 13.285 31.969 13.285h296.824c12.457 0 23.77-5.086 31.969-13.285 8.195-8.2 13.285-19.512 13.285-31.969V146.402c-.004-5.53-4.484-10.011-10.016-10.011zm0-40.063c-5.53 0-10.015 4.484-10.015 10.016s4.484 10.015 10.015 10.015 10.012-4.484 10.012-10.015-4.48-10.016-10.012-10.016zm-367.3 299.313c5.53 0 10.015 4.484 10.015 10.015s-4.484 10.016-10.015 10.016S0 411.187 0 405.656s4.484-10.015 10.016-10.015zm156.996 30.289c-5.528 0-10.012-4.485-10.012-10.016s4.484-10.016 10.012-10.016h160.843c5.528 0 10.016 4.485 10.016 10.016s-4.488 10.016-10.016 10.016zm0-99.684h160.843c5.528 0 10.016-4.484 10.016-10.012 0-5.53-4.488-10.015-10.016-10.015H167.012c-5.528 0-10.012 4.484-10.012 10.015 0 5.528 4.484 10.012 10.012 10.012zm0-99.68h160.843c5.528 0 10.016-4.484 10.016-10.015s-4.488-10.016-10.016-10.016H167.012c-5.528 0-10.012 4.485-10.012 10.016s4.484 10.015 10.012 10.015zM44.398 413.934l25.676 25.675c3.91 3.907 10.25 3.907 14.16 0l51.348-51.351c3.91-3.91 3.91-10.25 0-14.16s-10.25-3.91-14.16 0l-44.27 44.27-18.593-18.595c-3.91-3.91-10.25-3.91-14.16 0s-3.91 10.25 0 14.16zm0-99.684l25.676 25.676c3.91 3.91 10.25 3.91 14.16 0l51.348-51.348c3.91-3.91 3.91-10.25 0-14.164-3.91-3.91-10.25-3.91-14.16 0l-44.27 44.27L58.56 300.09c-3.91-3.91-10.25-3.91-14.16 0s-3.91 10.25 0 14.16zm0-99.684l25.676 25.676c3.91 3.91 10.25 3.91 14.16 0l51.348-51.347c3.91-3.91 3.91-10.25 0-14.16a10.006 10.006 0 0 0-14.16 0L77.152 219 58.56 200.406c-3.91-3.91-10.25-3.91-14.16 0s-3.91 10.25 0 14.16zM34.191 110.633h76.442V34.19zm0 0" fill-rule="evenodd"/>
</symbol><symbol id="icon-smiling-baby" viewBox="0 0 387.039 387.039">
    <circle cx="112.809" cy="233.169" r="15.368"/>
    <circle cx="274.229" cy="233.169" r="15.368"/>
    <path d="M387.039 226.647c0-22.261-16.136-40.811-37.324-44.602v-6.717c0-86.127-70.069-156.196-156.195-156.196-86.127 0-156.196 70.069-156.196 156.196v6.717C16.136 185.837 0 204.387 0 226.647c0 22.453 16.414 41.134 37.871 44.7 3.02 34.414 18.765 59.834 46.942 75.653 25.058 14.068 60.615 20.906 108.707 20.906 48.091 0 83.649-6.839 108.707-20.906 28.176-15.819 43.921-41.238 46.941-75.653 21.457-3.565 37.871-22.247 37.871-44.7zm-371.039 0c0-13.395 9.032-24.713 21.323-28.205v56.41C25.032 251.361 16 240.043 16 226.647zm317.715 32.11c0 35.135-12.862 59.436-39.321 74.291-22.603 12.69-55.599 18.858-100.874 18.858s-78.272-6.168-100.874-18.858c-26.46-14.855-39.322-39.156-39.322-74.291v-83.429c0-63.309 42.185-116.941 99.918-134.29 43.983.556 67.407 32.306 67.407 55.296 0 17.608-14.325 31.934-31.934 31.934-13.204 0-23.947-10.743-23.947-23.947 0-9.681 7.876-17.558 17.558-17.558a8 8 0 0 0 0-16c-18.504 0-33.558 15.054-33.558 33.558 0 22.027 17.92 39.947 39.947 39.947 26.431 0 47.934-21.503 47.934-47.934 0-16.605-8.343-34.47-22.317-47.79-5.59-5.328-11.95-9.807-18.89-13.387 76.42 1.034 138.273 63.51 138.273 140.171v83.429zm16-3.904v-56.41c12.292 3.492 21.324 14.81 21.324 28.205s-9.033 24.713-21.324 28.205z"/>
    <path d="M224.459 255.203c-17.059 17.061-44.82 17.061-61.879 0a8 8 0 0 0-11.314 11.314c11.649 11.649 26.952 17.474 42.254 17.474s30.604-5.825 42.254-17.474a8 8 0 0 0-11.315-11.314z"/>
</symbol><symbol id="icon-teacher" viewBox="0 0 512.015 512.015">
    <path d="M102.409 0c-42.351.009-76.8 34.458-76.8 76.809s34.449 76.792 76.8 76.792 76.8-34.449 76.8-76.8C179.209 34.449 144.76 0 102.409 0zm0 128.009c-28.279 0-51.2-22.921-51.2-51.2s22.921-51.2 51.2-51.2 51.2 22.921 51.2 51.2-22.92 51.2-51.2 51.2z"/>
    <path d="M486.409 128h-256c-14.14 0-25.6 11.46-25.6 25.6v19.55l25.6 12.8V153.6h256v204.791h-256v-30.43l-25.6-6.391v36.821c0 14.14 11.46 25.6 25.6 25.6h105.404l-65.178 108.621c-3.652 6.05-1.673 13.926 4.403 17.553 5.999 3.678 13.901 1.698 17.553-4.403l53.018-88.371v81.792c0 7.074 5.726 12.8 12.8 12.8s12.8-5.726 12.8-12.8v-81.792l53.026 88.363a12.794 12.794 0 0 0 10.974 6.221c2.253 0 4.523-.572 6.579-1.826 6.076-3.627 8.047-11.503 4.403-17.553l-65.178-108.621h105.395c14.14 0 25.6-11.46 25.6-25.6V153.6c.001-14.14-11.459-25.6-25.599-25.6z"/>
    <path d="M447.506 201.276c-1.929-6.801-9.003-10.803-15.821-8.772l-157.961 45.133c-1.843-1.783-3.908-3.345-6.263-4.531l-102.4-51.2a25.65 25.65 0 0 0-11.452-2.705h-102.4c-12.373 0-22.972 8.849-25.19 21.018L.419 341.01c-1.357 7.467.666 15.155 5.53 20.983s12.066 9.199 19.661 9.199h16.358l9.327 117.222c1.058 13.312 12.16 23.569 25.515 23.569h51.2c13.047 0 24.004-9.805 25.446-22.767l22.366-201.276 73.984 18.492a25.56 25.56 0 0 0 6.204.759 25.599 25.599 0 0 0 25.6-25.6V261.99l157.124-44.894c6.801-1.928 10.726-9.028 8.772-15.82zM256.009 281.6l-102.4-25.6-25.6 230.392h-51.2l-11.196-140.8H25.609l25.6-140.791h38.4v77.875c0 7.074 5.726 12.8 12.8 12.8 7.074 0 12.8-5.726 12.8-12.8V204.8h38.4l102.4 51.2v25.6z"/>
</symbol><symbol id="icon-tg" viewBox="0 0 100 100">
    <path clip-rule="evenodd" d="M51.474 60.754c-1.733 1.688-3.451 3.348-5.153 5.021-.595.586-1.264.91-2.118.865-.583-.031-.909-.287-1.088-.84-1.304-4.047-2.627-8.084-3.924-12.135-.126-.393-.312-.584-.71-.707a843.741 843.741 0 0 1-9.199-2.871c-.471-.15-.946-.346-1.353-.623-.629-.426-.721-1.121-.157-1.621a6.227 6.227 0 0 1 1.789-1.119c3.755-1.488 7.53-2.928 11.299-4.381 9.565-3.693 19.13-7.383 28.696-11.076 1.819-.703 3.217.287 3.028 2.254-.121 1.258-.447 2.496-.71 3.738a26979.26 26979.26 0 0 1-6.244 29.42c-.496 2.328-2.131 2.936-4.047 1.523-3.209-2.365-6.415-4.738-9.622-7.107-.153-.111-.312-.218-.487-.341zm-7.203 2.978l.108-.029c.02-.092.049-.182.057-.273.206-2.223.424-4.445.603-6.672.04-.496.21-.848.583-1.182 2.958-2.645 5.898-5.307 8.844-7.963 3.261-2.941 6.523-5.879 9.772-8.832.201-.182.285-.492.423-.744-.306-.033-.634-.156-.912-.084-.379.098-.738.318-1.076.531-7.197 4.533-14.388 9.074-21.59 13.598-.407.256-.483.473-.328.92.531 1.525 1.014 3.064 1.515 4.6l2.001 6.13z" fill-rule="evenodd"/>
</symbol><symbol id="icon-vk" viewBox="0 0 548.358 548.358">
    <path d="M545.451 400.298c-.664-1.431-1.283-2.618-1.858-3.569-9.514-17.135-27.695-38.167-54.532-63.102l-.567-.571-.284-.28-.287-.287h-.288c-12.18-11.611-19.893-19.418-23.123-23.415-5.91-7.614-7.234-15.321-4.004-23.13 2.282-5.9 10.854-18.36 25.696-37.397 7.807-10.089 13.99-18.175 18.556-24.267 32.931-43.78 47.208-71.756 42.828-83.939l-1.701-2.847c-1.143-1.714-4.093-3.282-8.846-4.712-4.764-1.427-10.853-1.663-18.278-.712l-82.224.568c-1.332-.472-3.234-.428-5.712.144l-3.713.859-1.431.715-1.136.859c-.952.568-1.999 1.567-3.142 2.995-1.137 1.423-2.088 3.093-2.848 4.996-8.952 23.031-19.13 44.444-30.553 64.238-7.043 11.803-13.511 22.032-19.418 30.693-5.899 8.658-10.848 15.037-14.842 19.126-4 4.093-7.61 7.372-10.852 9.849-3.237 2.478-5.708 3.525-7.419 3.142-1.715-.383-3.33-.763-4.859-1.143-2.663-1.714-4.805-4.045-6.42-6.995-1.622-2.95-2.714-6.663-3.285-11.136-.568-4.476-.904-8.326-1-11.563-.089-3.233-.048-7.806.145-13.706.198-5.903.287-9.897.287-11.991 0-7.234.141-15.085.424-23.555.288-8.47.521-15.181.716-20.125.194-4.949.284-10.185.284-15.705s-.336-9.849-1-12.991a44.442 44.442 0 0 0-2.99-9.137c-1.335-2.95-3.289-5.232-5.853-6.852-2.569-1.618-5.763-2.902-9.564-3.856-10.089-2.283-22.936-3.518-38.547-3.71-35.401-.38-58.148 1.906-68.236 6.855-3.997 2.091-7.614 4.948-10.848 8.562-3.427 4.189-3.905 6.475-1.431 6.851 11.422 1.711 19.508 5.804 24.267 12.275l1.715 3.429c1.334 2.474 2.666 6.854 3.999 13.134 1.331 6.28 2.19 13.227 2.568 20.837.95 13.897.95 25.793 0 35.689-.953 9.9-1.853 17.607-2.712 23.127-.859 5.52-2.143 9.993-3.855 13.418-1.715 3.426-2.856 5.52-3.428 6.28-.571.76-1.047 1.239-1.425 1.427a21.387 21.387 0 0 1-7.71 1.431c-2.667 0-5.901-1.334-9.707-4-3.805-2.666-7.754-6.328-11.847-10.992-4.093-4.665-8.709-11.184-13.85-19.558-5.137-8.374-10.467-18.271-15.987-29.691l-4.567-8.282c-2.855-5.328-6.755-13.086-11.704-23.267-4.952-10.185-9.329-20.037-13.134-29.554-1.521-3.997-3.806-7.04-6.851-9.134l-1.429-.859c-.95-.76-2.475-1.567-4.567-2.427a30.301 30.301 0 0 0-6.567-1.854l-78.229.568c-7.994 0-13.418 1.811-16.274 5.428l-1.143 1.711c-.571.953-.859 2.475-.859 4.57 0 2.094.571 4.664 1.714 7.707 11.42 26.84 23.839 52.725 37.257 77.659 13.418 24.934 25.078 45.019 34.973 60.237 9.897 15.229 19.985 29.602 30.264 43.112 10.279 13.515 17.083 22.176 20.412 25.981 3.333 3.812 5.951 6.662 7.854 8.565l7.139 6.851c4.568 4.569 11.276 10.041 20.127 16.416 8.853 6.379 18.654 12.659 29.408 18.85 10.756 6.181 23.269 11.225 37.546 15.126 14.275 3.905 28.169 5.472 41.684 4.716h32.834c6.659-.575 11.704-2.669 15.133-6.283l1.136-1.431c.764-1.136 1.479-2.901 2.139-5.276.668-2.379 1-5 1-7.851-.195-8.183.428-15.558 1.852-22.124 1.423-6.564 3.045-11.513 4.859-14.846 1.813-3.33 3.859-6.14 6.136-8.418 2.282-2.283 3.908-3.666 4.862-4.142.948-.479 1.705-.804 2.276-.999 4.568-1.522 9.944-.048 16.136 4.429 6.187 4.473 11.99 9.996 17.418 16.56 5.425 6.57 11.943 13.941 19.555 22.124 7.617 8.186 14.277 14.271 19.985 18.274l5.708 3.426c3.812 2.286 8.761 4.38 14.853 6.283 6.081 1.902 11.409 2.378 15.984 1.427l73.087-1.14c7.229 0 12.854-1.197 16.844-3.572 3.998-2.379 6.373-5 7.139-7.851.764-2.854.805-6.092.145-9.712-.677-3.611-1.344-6.136-2.008-7.563z"/>
</symbol><symbol id="icon-wallet" viewBox="0 0 331.493 331.493">
    <path d="M298.761 57.093l-101.2-54.8c-9.6-5.2-22.8-1.2-28 8.4l-59.2 110h-72c-9.2 0-16.4 7.2-16.4 16.4v178c0 9.2 7.2 16.4 16.4 16.4h230c9.2 0 16.4-7.2 16.4-16.4v-41.6h6.8c3.6 0 6.4-2.8 6.4-6.4v-47.6c0-3.6-2.8-6.4-6.4-6.4h-6.8v-46.8c0-7.6-5.6-14.4-12.8-16l35.2-65.2c5.2-10 1.6-22.4-8.4-28zm-72-24.4l-63.2 117.2h-18l67.6-124.4 13.6 7.2zm-45.6-16c2-3.6 6.8-5.2 10.4-3.2l10 5.6-70.4 130.8h-22l72-133.2zm-146.8 120c0-1.2 1.6-3.2 3.6-3.2h65.2l-8.8 16h-56.4c-1.2 0-2.4 0-3.6.4v-13.2zm237.2 178.4c0 2-1.6 3.6-3.6 3.6h-230c-2 0-3.6-1.6-3.6-3.6v-148.8c0-2 1.6-3.6 3.6-3.6H267.561c2 0 3.6 1.6 3.6 3.6v46.8h-24.4c-10.8 0-19.2 8.8-19.2 19.2v22c0 10.8 8.8 19.2 19.2 19.2h24.8v41.6zm12.8-89.2h.4v34.8h-38c-3.6 0-6.4-2.8-6.4-6.4v-22c0-3.6 2.8-6.4 6.4-6.4h37.6zm11.2-147.2l-38.4 71.2h-79.2l60-110.8 54.4 29.6c4 1.6 5.2 6.4 3.2 10z"/>
    <path d="M271.161 72.693l-3.2-1.6c-8-4.4-18.8-1.2-23.2 6.8l-4 7.6c-2 4-2.8 8.8-1.2 13.2 1.2 4.4 4.4 8 8.4 10l3.2 1.6c2.4 1.2 5.2 2 8 2 6.4 0 12-3.6 15.2-8.8l4-7.6c4-8.4.8-18.8-7.2-23.2zm-4.4 17.2l-4 7.6c-1.2 2-4 2.8-6 1.6l-3.2-2c-.8-.4-1.6-1.6-2-2.4-.4-1.2-.4-2.4.4-3.2l4-7.6c.8-1.2 2.4-2.4 4-2.4.8 0 1.2 0 2 .4l3.2 1.6c1.6 1.6 2.4 4 1.6 6.4z"/>
</symbol><symbol id="icon-whatsapp" viewBox="0 0 60 60">
    <path d="M30.071 46.221a16.34 16.34 0 0 1-7.885-2.014l-9.032 2.87 2.944-8.685a16.022 16.022 0 0 1-2.34-8.358c0-8.94 7.303-16.188 16.314-16.188 9.009 0 16.313 7.247 16.313 16.188 0 8.94-7.304 16.187-16.314 16.187zm0-29.797c-7.563 0-13.715 6.105-13.715 13.61 0 2.977.97 5.735 2.612 7.979l-1.713 5.054 5.27-1.675a13.708 13.708 0 0 0 7.546 2.251c7.562 0 13.716-6.105 13.716-13.609s-6.154-13.61-13.716-13.61zm8.238 17.338c-.1-.165-.367-.265-.766-.463-.4-.199-2.367-1.159-2.733-1.29-.367-.133-.634-.2-.9.198-.266.397-1.033 1.29-1.267 1.555-.233.265-.466.298-.866.1-.4-.199-1.688-.618-3.216-1.97-1.188-1.051-1.991-2.35-2.224-2.747-.233-.397-.025-.612.175-.81.18-.177.4-.463.6-.694.2-.232.267-.397.4-.662s.067-.496-.033-.695c-.1-.199-.9-2.151-1.234-2.946-.333-.794-.665-.661-.9-.661-.233 0-.5-.034-.766-.034s-.7.1-1.066.497c-.367.397-1.4 1.357-1.4 3.31 0 1.952 1.433 3.838 1.633 4.102.2.265 2.766 4.402 6.83 5.99 4.067 1.589 4.067 1.059 4.8.993.733-.066 2.365-.96 2.7-1.886.332-.927.332-1.722.233-1.887z"/>
</symbol><symbol id="icon-yandex-pay-logo" viewBox="0 0 49.079 49.079">
    <path d="M49.061 25.294c-.065-.375-.381-.6-.838-.605-.141-.002-.281.012-.418-.003-.27-.028-.341.062-.339.276.013 1.05.009 2.099.005 3.146-.003.549-.539 1.113-1.183 1.256-2 .439-3.998.885-6 1.32a3.156 3.156 0 0 1-.691.072c-.1 0-.238-.076-.281-.15-.028-.049.06-.168.129-.229.091-.074.207-.133.326-.174.367-.131.74-.25 1.111-.373 1.485-.494 2.973-.982 4.456-1.479.669-.226 1.03-.672 1.041-1.235.034-1.824.017-3.648.009-5.474 0-.289-.15-.53-.494-.655-.396-.142-.744-.029-1.088.135a6103.037 6103.037 0 0 1-6.307 3.005c-.619.295-.964.722-.961 1.33.007 1.725.002 3.447.004 5.17 0 .086.009.174.036.256.207.586.744.922 1.486.922 1.479.004 2.963.002 4.443.002 1.475 0 2.945.002 4.42-.002.32 0 .615-.066.855-.264.311-.25.295-.568.295-.885.003-1.68.003-3.358.001-5.041a1.65 1.65 0 0 0-.017-.321zm-6.15-.539c.149-.387.474-.629.97-.691.328-.042.614.161.661.457.071.456-.499.986-1.062.984-.47 0-.732-.329-.569-.75z"/>
    <path d="M7.612 18.087v1.579H6.43v-1.584h-.618v3.908h.637v-1.75h1.167v1.752h.629v-3.905h-.633z"/>
    <path d="M23.333 28.844c-.186-.929-.892-1.493-2.019-1.586-.444-.034-.896-.006-1.375-.006v-2.473h-.964v6.876c.713 0 1.402.041 2.082-.011 1.019-.076 1.796-.481 2.16-1.312.212-.482.216-.984.116-1.488zm-1.491 1.042c-.179.76-.957 1.118-1.895.896 0-.844-.004-1.674.008-2.506 0-.055.096-.145.165-.158.938-.199 1.565.113 1.728.896.058.281.06.59-.006.872z"/>
    <path d="M4.305 15.98c-.341 0-.68.001-1.02 0a1.741 1.741 0 0 0-1.205.437c-1.123.994-.828 2.882.666 3.285l-1.524 2.294c.213 0 .377-.011.537.003.212.019.321-.05.419-.207.374-.607.771-1.205 1.159-1.807.179-.276.201-.284.623-.203v2.195h.716v-.34-5.36c0-.297-.001-.296-.371-.297zm-.365 3.172c-.487-.005-.995.116-1.366-.249-.425-.417-.546-.899-.389-1.428.013-.042.034-.082.051-.122.316-.727.733-.929 1.704-.808v2.607z"/>
    <path d="M22.003 21.429c-1.061.354-1.793.034-1.985-.89a2.528 2.528 0 0 1 .11-1.428c.236-.638.705-.828 1.485-.617.015.004.033-.003.06-.007l.245-.308c-.644-.423-1.527-.322-2.007.212-.371.412-.516.889-.563 1.39-.053.575.018 1.133.398 1.638.398.528 1.088.776 1.798.61.501-.118.557-.17.459-.6z"/>
    <path d="M5.205 30.843v-6.062H1.584c-.05 1.029-.074 2.041-.156 3.051-.073.896-.271 1.775-.667 2.621-.131.279-.288.463-.688.396-.021-.003-.047.013-.073.023v2.224h1.081v-1.468h3.915V33.1h1.05v-2.257h-.841zm-1.173-.008h-2.37c.202-.506.449-1.004.599-1.521.301-1.039.299-2.105.307-3.168.002-.164 0-.33 0-.51h1.465l-.001 5.199z"/>
    <path d="M15.381 21.482c-.183.053-.359.117-.543.154-.513.104-.879-.01-1.074-.333-.229-.378-.218-.784-.204-1.209h1.935c.042-.636-.036-1.232-.439-1.774-.354-.476-.967-.552-1.454-.161a1.851 1.851 0 0 0-.445.523 2.675 2.675 0 0 0-.346 1.677c.045.359.144.724.297 1.062.222.497.735.751 1.328.688a3.81 3.81 0 0 0 .844-.205c.301-.104.309-.2.101-.422zm-1.5-2.866c.218-.271.578-.263.771.021.216.315.242.663.233 1.028h-1.348c.021-.382.094-.736.344-1.049z"/>
    <path d="M17.16 24.909c-.042-.051-.095-.128-.148-.13-.319-.013-.639-.008-.992-.008v2.826h-2.07v-2.821h-1.104v6.902h1.118v-.27-2.412c0-.443 0-.443.53-.443h1.534v3.127h1.122c.005-.076.013-.141.013-.203v-6.484c0-.029.014-.065-.003-.084z"/>
    <path d="M17.777 19.615c.386-.444.755-.897 1.13-1.346.046-.055.086-.113.15-.197-.121 0-.192.008-.259-.001-.274-.037-.441.052-.59.248-.329.432-.694.844-1.046 1.263-.04.047-.09.088-.186.181v-1.68h-.611v3.815h.62c0-.453-.01-.897.006-1.339.006-.152.076-.304.116-.456.119.073.17.138.215.206.319.479.634.958.956 1.434.042.063.114.148.182.157.182.023.369.008.594.008-.448-.682-.866-1.326-1.294-1.967-.081-.12-.087-.207.017-.326z"/>
    <path d="M32.466 24.757c-.18-.006-.261.045-.325.182-.433.954-.877 1.903-1.318 2.854-.193.416-.393.832-.588 1.248l-.053-.008v-4.259h-1.117v6.912h1.097c.697-1.506 1.394-3.018 2.097-4.543v4.539h1.262v-6.92c-.363 0-.709.01-1.055-.005z"/>
    <path d="M11.315 30.693c-.343.106-.652.227-.978.294-1.059.217-1.751-.076-2.053-.844-.233-.59-.224-1.199-.234-1.842h3.456c-.048-.535-.053-1.057-.15-1.562-.123-.633-.367-1.24-.872-1.75-.447-.451-.985-.582-1.656-.4-.697.189-1.122.627-1.408 1.146-.838 1.523-.91 3.092-.268 4.674.193.478.52.894 1.064 1.16.912.449 2.387.293 3.312-.354l-.213-.522zm-2.743-4.895c.163-.229.38-.416.744-.399.356.019.567.205.71.447.316.543.369 1.125.366 1.729H8.017c.06-.639.172-1.238.555-1.777z"/>
    <path d="M11.834 21.471v-3.389H9.791c0 .254.009.482-.001.711-.034.796-.063 1.593-.395 2.355-.082.188-.143.389-.46.347v1.23h.589v-.799h2.213v.795h.557v-1.232l-.46-.018zm-.645 0H9.813c.597-.924.516-1.917.559-2.908h.817v2.908z"/>
    <path d="M24.367 24.772c0 2.314 0 4.611.003 6.909h1.021v-6.214h3.113v-.695h-4.137z"/>
</symbol></svg>