<svg xmlns="http://www.w3.org/2000/svg" xmlns:xlink="http://www.w3.org/1999/xlink" width="217" height="72" viewBox="0 0 217 72"><defs><path id="9kona" d="M451.03 80.54A35.88 35.88 0 0 1 461.51 106c0 9.61-3.72 18.65-10.48 25.45A35.4 35.4 0 0 1 425.75 142a35.4 35.4 0 0 1-25.28-10.55A35.89 35.89 0 0 1 390 106c0-9.62 3.72-18.66 10.47-25.46A35.4 35.4 0 0 1 425.75 70a35.4 35.4 0 0 1 25.28 10.54zm-15.88-5.87a32.39 32.39 0 0 0-16.93-.5 8.26 8.26 0 0 1-.85 1.78c-3.2 5.2-3.67 11.94-3.68 12.23v9.59l.16-.06c.98-.33 2.15-1.07 2.15-2.68v-3.94c0-.76.6-1.37 1.35-1.39h3.61l.12-.13.24-.24c3.67-3.7 2.6-8.83 2.38-9.7v-.01l-.03-.12a1.4 1.4 0 0 1 .34-1.36 1.37 1.37 0 0 1 1.95 0c.09.08.16.18.23.31l.03.05.02.05c.05.11.09.21.1.32.08.27 1.64 5.97-1.74 10.83h12.65v-7.25c0-.05-.03-4.83-2.1-7.78zm-4.06 33.52a3.94 3.94 0 0 1 3.91 3.94v7.89h12.74V92.48h-28.98v2.55c0 1.51-.5 2.78-1.48 3.77a7.57 7.57 0 0 1-4.93 2h-.04a1.4 1.4 0 0 1-1.38-1.39v-6.93h-6.58v27.54h7.6v-3.86a3.93 3.93 0 0 1 4.92-3.8l.16.04v-.27a3.93 3.93 0 0 1 4.97-3.8l.13.05.03-.14a3.91 3.91 0 0 1 7.71 0l.02.14.14-.04c.35-.1.7-.15 1.06-.15zm-37.83-2.2c0 8.75 3.38 16.96 9.52 23.14a32.44 32.44 0 0 0 10.32 7.01 28.21 28.21 0 0 1-1.15-7.5v-5.84h-8.98c-.76 0-1.38-.62-1.38-1.4V91.1c0-.77.62-1.4 1.38-1.4h7.96v-1.64c.01-.3.39-7 3.63-12.79a32.35 32.35 0 0 0-11.78 7.6 32.61 32.61 0 0 0-9.52 23.13zm55.47 23.14a32.61 32.61 0 0 0 9.51-23.13 32.61 32.61 0 0 0-19.34-29.93 21.5 21.5 0 0 1 1.1 6.38v7.25h9.12a1.37 1.37 0 0 1 1.38 1.4v30.3c0 .37-.14.73-.4 1-.26.25-.61.4-.98.4H435v3.59a1.39 1.39 0 0 1-1.38 1.38c-.76 0-1.38-.62-1.38-1.38v-14.26c0-.64-.52-1.16-1.16-1.16-.63 0-1.15.52-1.15 1.16v14.26a1.38 1.38 0 1 1-2.76 0V108.9c0-.64-.52-1.16-1.15-1.16-.64 0-1.16.52-1.16 1.16v17.48a1.39 1.39 0 0 1-1.38 1.38c-.76 0-1.38-.62-1.38-1.38v-14.26c0-.64-.52-1.16-1.16-1.16-.61 0-1.15.54-1.15 1.16v14.26a1.39 1.39 0 0 1-1.39 1.38c-.76 0-1.37-.62-1.37-1.38v-10.23c0-.64-.52-1.16-1.16-1.16a1.2 1.2 0 0 0-1.16 1.16v12.47c0 1.65.37 6.23 1.94 8.78a32.35 32.35 0 0 0 16.63.42 20.7 20.7 0 0 1 1.27-2.63c3.29-5.32 3.7-12.03 3.73-12.31v-.1h2.74c.01.08.02.16.01.24-.01.3-.42 7.64-4.11 13.6l-.07.13a32.38 32.38 0 0 0 11.88-7.63zm33.63-36.72a3.87 3.87 0 0 1 1.68 3.35c0 1.7-.69 3.08-2.06 4.13-1.37 1.05-3.67 1.58-6.84 1.58h-5.42c-.71 0-1.06-.32-1.06-.99V82.5c0-.66.35-.98 1.06-.98h4.72c3.53 0 5.94.44 7.17 1.31 1.23.87 1.85 2.22 1.85 4.02 0 1.25-.46 2.23-1.37 2.91a5.79 5.79 0 0 1-2.68 1.21h-.05v.16h.06c.83.06 1.82.5 2.94 1.28zm-9.76-2.77h1.88a9 9 0 0 0 3.38-.64c1.07-.42 1.6-1.1 1.6-2.01 0-.71-.3-1.26-.89-1.63-.6-.37-1.93-.55-4.09-.55h-1.88zm6.13 8.01c.73-.35 1.1-1.07 1.1-2.15 0-1.01-.43-1.72-1.27-2.11a9.84 9.84 0 0 0-3.87-.57h-2.09v5.36h2.1c1.96 0 3.32-.18 4.03-.53zm15.7-11.04c2.14 0 3.67.76 4.54 2.25.87 1.5 1.32 3.29 1.32 5.32 0 2.03-.45 3.82-1.32 5.33-.87 1.48-2.4 2.24-4.54 2.24-.82 0-1.54-.12-2.12-.36a3.54 3.54 0 0 1-1.58-1.54l-.02-.03h-.16v.07c.04.37.06.75.06 1.11v5.3c0 .51-.25.77-.77.77h-2.23c-.51 0-.77-.26-.77-.78V87.67c0-.52.26-.77.77-.77h2.2c.43 0 .65.25.7.78l.05.87h.15l.02-.04c.47-.78 1-1.3 1.58-1.53.58-.24 1.3-.37 2.12-.37zm1.28 11.16c.4-.89.59-2.1.59-3.59 0-1.5-.2-2.7-.59-3.58-.39-.9-1.23-1.37-2.5-1.37-.72 0-1.34.41-1.84 1.22-.5.8-.76 1.84-.76 3.1v1.26c0 1.27.25 2.32.76 3.1.5.82 1.12 1.22 1.83 1.22 1.28 0 2.12-.46 2.51-1.36zm19.7 1.39c.03.18-.04.37-.22.58a5.39 5.39 0 0 1-1.96 1.51c-.75.33-1.96.5-3.58.5-2.63 0-4.53-.68-5.64-2.02-1.12-1.35-1.68-3.21-1.68-5.55 0-2.33.59-4.2 1.74-5.54 1.16-1.34 2.81-2.03 4.93-2.03 2.45 0 4.3.65 5.48 1.92 1.2 1.27 1.8 3.35 1.8 6.17 0 .52-.24.77-.72.77h-9.25l.01.08c.15 1.56.54 2.56 1.17 2.97.62.4 1.34.61 2.16.61.77 0 1.38-.1 1.8-.31.4-.21.76-.5 1.04-.86.3-.39.65-.45 1.09-.18l1.39.85c.26.16.41.34.44.53zm-9.08-6.36h6.18v-.06a4 4 0 0 0-.77-2.52c-.5-.66-1.33-.99-2.44-.99-.89 0-1.6.32-2.12.95a4.2 4.2 0 0 0-.85 2.56zm25.68-.36l-2.42 8.22c-.16.54-.4.81-.7.81h-2.97c-.3 0-.54-.27-.7-.8l-2.39-8.19-.01-.04h-.18l.01.07c.04.36.06.73.06 1.11v7.07c0 .52-.26.78-.78.78h-2.22c-.52 0-.77-.26-.77-.78V87.67c0-.52.25-.77.76-.77h3.68c.58 0 .94.29 1.1.89l2.34 8.27c.1.32.2.7.3 1.14.1.43.15.78.15 1.04v.06h.19v-.06c0-.26.05-.62.14-1.05.1-.44.2-.83.3-1.16l2.35-8.27c.17-.58.53-.86 1.12-.86h3.75c.51 0 .77.25.77.77v13.02c0 .52-.25.78-.77.78h-2.23c-.52 0-.77-.26-.77-.78v-7.07c0-.38.01-.75.05-1.11v-.07zm14.14 3.4c-.44 0-.79.11-1.04.34-.24.22-.53.62-.86 1.2l-1.9 3.4c-.25.46-.6.69-1.08.69h-2.38c-.3 0-.49-.07-.56-.2-.09-.14-.02-.4.19-.74l2.08-3.43c.37-.6.69-1 .96-1.22.28-.2.65-.45 1.1-.73l.04-.02V95h-.05a5.95 5.95 0 0 1-2.67-1.32 3.3 3.3 0 0 1-1.12-2.6c0-1.1.37-2.1 1.11-2.94.73-.83 2.16-1.25 4.24-1.25h6.24c.52 0 .77.25.77.77v13.02c0 .52-.25.78-.77.78h-2.22c-.52 0-.78-.26-.78-.78v-4.85zm-2.35-2.96c.6.23 1.38.34 2.31.34h1.34v-3.7h-1.6c-1.17 0-1.94.13-2.36.42-.42.28-.64.74-.64 1.36 0 .82.32 1.35.95 1.58zm-63.68 17.14c.51 0 .77.26.77.78v13.02c0 .52-.26.78-.77.78h-2.23c-.52 0-.77-.26-.77-.78V112.7h-5.02v11.12c0 .52-.25.78-.77.78h-2.23c-.52 0-.77-.26-.77-.78V110.8c0-.52.25-.78.77-.78zm10.71-.28c2.38 0 4.2.68 5.4 2.01 1.2 1.34 1.81 3.2 1.81 5.56 0 2.35-.6 4.22-1.81 5.56-1.2 1.33-3.02 2-5.4 2-2.38 0-4.2-.67-5.4-2-1.2-1.34-1.8-3.2-1.8-5.56 0-2.35.6-4.22 1.8-5.56 1.2-1.33 3.02-2 5.4-2zm2.4 11.38c.55-.75.82-2.03.82-3.8 0-1.79-.27-3.07-.82-3.82a2.79 2.79 0 0 0-2.4-1.14 2.8 2.8 0 0 0-2.4 1.14c-.54.75-.82 2.03-.82 3.81 0 1.78.28 3.06.83 3.81a2.8 2.8 0 0 0 2.4 1.14 2.8 2.8 0 0 0 2.39-1.14zm15.09-11.38c2.14 0 3.67.76 4.54 2.25a10.4 10.4 0 0 1 1.32 5.32c0 2.03-.44 3.83-1.32 5.32-.87 1.5-2.4 2.25-4.54 2.25-.82 0-1.54-.12-2.12-.36a3.53 3.53 0 0 1-1.58-1.54l-.02-.03h-.16v.06c.04.37.06.75.06 1.12v5.3c0 .51-.25.77-.77.77h-2.23c-.51 0-.77-.26-.77-.78V110.8c0-.52.26-.78.77-.78h2.2c.43 0 .66.26.69.78l.06.87h.15l.02-.03c.47-.78 1-1.3 1.58-1.54.58-.24 1.3-.36 2.12-.36zm1.29 11.16c.38-.89.58-2.1.58-3.59 0-1.5-.2-2.7-.58-3.59-.4-.9-1.24-1.36-2.52-1.36-.71 0-1.33.41-1.84 1.21-.5.8-.75 1.84-.75 3.11v1.26c0 1.27.26 2.31.75 3.1.5.81 1.13 1.22 1.84 1.22 1.28 0 2.12-.46 2.52-1.36zm18-10.88c.2 0 .35.06.42.17.12.16.1.44-.02.84l-4.7 14.2a11.55 11.55 0 0 1-2 3.87 4.1 4.1 0 0 1-3.27 1.38c-.77 0-1.46-.07-2.07-.2-.32-.07-.43-.27-.36-.65l.3-1.54c.06-.28.2-.41.41-.41.07 0 .14.01.23.04.29.1.57.14.82.14.77 0 1.37-.38 1.77-1.11.4-.72.67-1.35.8-1.87l.04-.22-4.65-13.63c-.14-.4-.15-.68-.03-.84.07-.11.22-.17.43-.17h2.49c.4 0 .65.22.77.67l2.1 7.83c.1.36.2.83.27 1.4.08.58.12.94.12 1.09v.06h.2v-.05c.12-.5.2-.9.25-1.18.05-.3.2-.87.42-1.71l2-7.44c.12-.45.37-.67.77-.67zm13.82 0c.52 0 .77.26.77.78v13.02c0 .52-.25.78-.77.78h-2.22c-.52 0-.77-.26-.77-.78v-4.14c0-.38.02-.76.05-1.12v-.07h-.17c-.55.28-1.21.48-1.99.6-.76.13-1.4.19-1.88.19-1.65 0-2.84-.46-3.52-1.36a5.8 5.8 0 0 1-1.03-3.56v-3.56c0-.52.25-.78.77-.78h2.22c.53 0 .78.26.78.78v3.73c0 .9.2 1.5.61 1.76.4.25.98.37 1.73.37.39 0 .8-.04 1.22-.13.43-.08.83-.38 1.2-.88v-4.85c0-.52.26-.78.78-.78zm10.18-.28c2.46 0 4.3.65 5.49 1.91 1.19 1.28 1.79 3.35 1.79 6.18 0 .52-.23.77-.72.77h-9.24v.07c.15 1.57.55 2.57 1.17 2.98.62.4 1.35.6 2.16.6.78 0 1.38-.1 1.8-.3.41-.21.77-.5 1.05-.86.3-.39.65-.45 1.08-.18l1.4.85c.26.16.4.34.44.53.03.17-.05.37-.22.58a5.44 5.44 0 0 1-1.97 1.51c-.75.33-1.95.5-3.58.5-2.62 0-4.52-.68-5.63-2.02-1.12-1.35-1.69-3.21-1.69-5.55 0-2.33.6-4.2 1.75-5.55 1.15-1.34 2.8-2.02 4.92-2.02zm3.51 6.13c0-1.02-.25-1.87-.76-2.52-.51-.66-1.33-.99-2.44-.99-.89 0-1.6.32-2.12.94a4.2 4.2 0 0 0-.85 2.56v.07h6.17zm18.33-5.85c.52 0 .77.26.77.78v13.02c0 .52-.25.78-.77.78h-2.22c-.52 0-.78-.26-.78-.78v-5.5h-5.13v5.5c0 .52-.25.78-.77.78h-2.22c-.52 0-.77-.26-.77-.78V110.8c0-.52.25-.78.77-.78h2.22c.52 0 .77.26.77.78v4.85h5.13v-4.85c0-.52.26-.78.78-.78zm16.39 0c.52 0 .77.26.77.78v13.02c0 .52-.25.78-.77.78h-2.23c-.51 0-.77-.26-.77-.78v-7.04c0-.38.02-.75.06-1.11v-.07h-.16l-4.1 8.12c-.3.59-.76.88-1.41.88h-2.92c-.43 0-.64-.26-.64-.78V110.8c0-.52.25-.78.77-.78h2.22c.52 0 .77.26.77.78v7.04c0 .37-.02.74-.05 1.12v.06h.15l4.1-8.12c.3-.6.76-.88 1.41-.88zm16.39 0c.52 0 .77.26.77.78v13.02c0 .52-.25.78-.77.78H604c-.52 0-.77-.26-.77-.78v-7.04c0-.38.02-.76.06-1.11v-.07h-.16l-4.1 8.12c-.3.59-.76.88-1.4.88h-2.93c-.43 0-.65-.26-.65-.78V110.8c0-.52.26-.78.78-.78h2.22c.52 0 .77.26.77.78v7.04c0 .37-.01.74-.05 1.12v.06h.16l4.1-8.12c.3-.6.76-.88 1.4-.88zm-9.04-2c-1.11-.49-1.73-1.27-1.84-2.32l-.08-.81c-.03-.25.02-.43.13-.55.12-.14.34-.21.64-.21h1.49c.4 0 .66.23.75.7l.07.35c.13.64.4 1.05.8 1.23.4.17.86.25 1.38.25.51 0 .97-.08 1.37-.25.41-.18.68-.59.8-1.23l.07-.34c.1-.48.35-.71.76-.71h1.49c.3 0 .52.07.64.2.11.13.16.31.13.56l-.08.8c-.11 1.06-.73 1.85-1.84 2.34-1.13.5-2.25.75-3.34.75a8.26 8.26 0 0 1-3.34-.75z"/></defs><g><g transform="translate(-390 -70)"><use fill="#fff" xlink:href="#9kona"/></g></g></svg>